<svg width="212" height="85" viewBox="0 0 212 85" fill="none" xmlns="http://www.w3.org/2000/svg">
<path d="M3.57882 74.97V84.83H2.89715V74.97H4.3869e-05V74.29H6.64635V74.97H3.57882Z" fill="#0C0C0C"/>
<path d="M16.0192 84.83V79.73H10.5659V84.83H9.71377V74.29H10.5659V79.05H16.0192V74.29H16.8713V84.83H16.0192Z" fill="#0C0C0C"/>
<path d="M20.6206 84.83V74.29H26.4148V74.97H21.4727V78.88H24.881V79.56H21.4727V83.81H26.7556V84.49H20.6206V84.83Z" fill="#0C0C0C"/>
<path d="M37.1512 85.0001C36.2991 85.0001 35.6175 84.8301 35.1062 84.3201C34.4245 83.9801 34.0837 83.3001 33.7429 82.7901L34.595 82.4501C34.7654 82.9601 35.1062 83.4701 35.6175 83.6401C36.1287 83.9801 36.64 84.1501 37.1512 84.1501C37.8329 84.1501 38.5146 83.9801 38.8554 83.6401C39.1963 83.3001 39.5371 82.7901 39.5371 82.1101C39.5371 80.9201 38.685 80.0701 37.1512 79.5601C36.64 79.3901 36.2991 79.2201 36.1287 79.0501C35.7879 78.8801 35.4471 78.7101 35.2766 78.5401C34.9358 78.3701 34.7654 78.0301 34.595 77.6901C34.4245 77.3501 34.4245 77.0101 34.4245 76.5001C34.4245 75.8201 34.7654 75.3101 35.2766 74.8001C35.7879 74.2901 36.4696 74.1201 37.4921 74.1201C38.1737 74.1201 38.8554 74.2901 39.3667 74.6301C39.8779 74.9701 40.2188 75.3101 40.3892 75.8201L39.7075 75.9901C39.3667 75.1401 38.685 74.8001 37.6625 74.8001C36.9808 74.8001 36.4696 74.9701 36.1287 75.3101C35.7879 75.6501 35.6175 75.9901 35.6175 76.5001C35.6175 76.8401 35.6175 77.0101 35.7879 77.3501C35.9583 77.5201 36.1287 77.8601 36.4696 78.0301C36.8104 78.2001 36.9808 78.3701 37.1512 78.5401C37.3217 78.7101 37.6625 78.7101 38.1737 78.8801C38.5146 79.0501 38.8554 79.2201 39.1962 79.3901C39.5371 79.5601 39.8779 79.7301 40.0483 80.0701C40.3892 80.4101 40.5596 80.5801 40.73 81.0901C40.9004 81.4301 40.9004 81.9401 40.9004 82.2801C40.9004 83.1301 40.5596 83.8101 40.0483 84.3201C38.8554 84.8301 38.0033 85.0001 37.1512 85.0001Z" fill="#0C0C0C"/>
<path d="M43.7974 84.83V74.29H47.3762C48.5691 74.29 49.4212 74.63 49.9324 75.14C50.4437 75.82 50.7845 76.5 50.7845 77.35C50.7845 78.2 50.4437 78.88 49.9324 79.56C49.4212 80.24 48.5691 80.41 47.3762 80.41H44.6495V84.83H43.7974ZM47.3762 79.73C48.2282 79.73 48.9099 79.56 49.2508 79.05C49.5916 78.54 49.9324 78.03 49.9324 77.35C49.9324 76.67 49.762 76.16 49.4212 75.65C49.0803 75.14 48.3987 74.97 47.5466 74.97H44.8199V79.73H47.3762Z" fill="#0C0C0C"/>
<path d="M58.7943 84.6601C58.283 84.8301 57.7718 85.0001 57.0901 85.0001C56.4084 85.0001 55.8972 84.8301 55.3859 84.6601C54.8747 84.4901 54.5338 84.1501 54.193 83.8101C53.8522 83.4701 53.6817 82.9601 53.3409 82.6201C53.1705 82.1101 53.0001 81.6001 52.8297 81.0901C52.6592 80.5801 52.6592 80.0701 52.6592 79.5601C52.6592 79.0501 52.6592 78.5401 52.8297 78.0301C53.0001 77.5201 53.0001 77.0101 53.3409 76.5001C53.5113 75.9901 53.8522 75.6501 54.193 75.3101C54.5338 74.9701 54.8747 74.6301 55.3859 74.4601C55.8972 74.2901 56.4084 74.1201 57.0901 74.1201C57.7718 74.1201 58.283 74.2901 58.7943 74.4601C59.3055 74.6301 59.6464 74.9701 59.9872 75.3101C60.328 75.6501 60.4985 76.1601 60.8393 76.5001C61.0097 77.0101 61.1801 77.5201 61.3505 78.0301C61.521 78.5401 61.521 79.0501 61.521 79.5601C61.521 80.0701 61.521 80.5801 61.3505 81.0901C61.1801 81.6001 61.1801 82.1101 60.8393 82.6201C60.6689 83.1301 60.328 83.4701 59.9872 83.8101C59.8168 84.1501 59.3055 84.4901 58.7943 84.6601ZM55.7268 83.8101C56.238 84.1501 56.7493 84.1501 57.2605 84.1501C57.7718 84.1501 58.4534 83.9801 58.7943 83.8101C59.3055 83.4701 59.6464 83.1301 59.8168 82.6201C59.9872 82.1101 60.328 81.6001 60.328 81.0901C60.4985 80.5801 60.4985 80.0701 60.4985 79.3901C60.4985 78.7101 60.4985 78.2001 60.328 77.6901C60.1576 77.1801 59.9872 76.6701 59.8168 76.1601C59.6464 75.6501 59.1351 75.3101 58.7943 75.1401C58.283 74.9701 57.7718 74.8001 57.2605 74.8001C56.5788 74.8001 56.0676 74.9701 55.7268 75.1401C55.2155 75.4801 54.8747 75.8201 54.7042 76.3301C54.5338 76.8401 54.193 77.3501 54.193 77.8601C54.0226 78.3701 54.0226 78.8801 54.0226 79.5601C54.0226 80.2401 54.0226 80.7501 54.193 81.2601C54.3634 81.7701 54.5338 82.2801 54.7042 82.7901C54.8747 83.3001 55.2155 83.6401 55.7268 83.8101Z" fill="#0C0C0C"/>
<path d="M67.1447 74.97V84.83H66.2926V74.97H63.3955V74.29H70.0418V74.97H67.1447Z" fill="#0C0C0C"/>
<path d="M85.5498 84.8301H84.6977V77.1801V76.5001C84.6977 76.5001 84.6978 76.6701 84.5273 76.8401C84.5273 77.0101 84.3569 77.1801 84.3569 77.1801L81.119 85.0001L77.881 77.0101C77.7106 76.6701 77.7106 76.5001 77.7106 76.3301V77.0101V84.6601H76.8585V74.1201H77.5402L80.9486 82.2801C80.9486 82.4501 81.119 82.6201 81.2894 82.9601C81.2894 82.7901 81.4598 82.6201 81.6302 82.2801L85.0386 74.1201H85.7203V84.8301H85.5498Z" fill="#0C0C0C"/>
<path d="M95.4341 84.83L94.4116 81.94H90.1511L89.1286 84.83H88.2765L91.8553 74.29H92.537L96.1158 84.83H95.4341ZM94.2412 81.26L92.7074 76.84C92.537 76.16 92.3666 75.82 92.3666 75.48C92.3666 75.65 92.1962 76.16 92.0257 76.84L90.492 81.26H94.2412Z" fill="#0C0C0C"/>
<path d="M99.3537 84.83V74.29H103.103C104.125 74.29 104.978 74.63 105.489 75.14C106 75.65 106.17 76.33 106.17 77.18C106.17 77.86 106 78.54 105.489 79.05C104.978 79.56 104.296 79.9 103.444 80.07L105.83 85H104.978L102.592 80.24H100.035V85H99.3537V84.83ZM100.206 79.22H103.103C103.955 79.22 104.466 79.05 104.807 78.54C105.148 78.2 105.318 77.69 105.318 77.01C105.318 76.84 105.318 76.5 105.148 76.33C105.148 76.16 104.978 75.82 104.807 75.65C104.637 75.48 104.466 75.31 104.125 75.14C103.785 74.97 103.444 74.97 102.932 74.97H100.035V79.22H100.206Z" fill="#0C0C0C"/>
<path d="M115.884 84.83L112.476 78.54L110.601 80.92V84.83H109.749V74.29H110.601V79.73L115.032 74.29H115.884L112.987 77.86L116.736 84.83H115.884Z" fill="#0C0C0C"/>
<path d="M119.974 84.83V74.29H125.769V74.97H120.826V78.88H124.235V79.56H120.826V83.81H126.109V84.49H119.974V84.83Z" fill="#0C0C0C"/>
<path d="M132.585 74.97V84.83H131.733V74.97H128.836V74.29H135.482V74.97H132.585Z" fill="#0C0C0C"/>
<path d="M147.752 84.83L146.73 81.94H142.469L141.447 84.83H140.765L144.344 74.29H145.026L148.605 84.83H147.752ZM146.559 81.26L145.026 76.84C144.855 76.16 144.685 75.82 144.685 75.48C144.685 75.65 144.514 76.16 144.344 76.84L142.81 81.26H146.559Z" fill="#0C0C0C"/>
<path d="M155.08 85C154.399 85 153.717 84.83 153.206 84.49C152.695 84.15 152.183 83.81 151.842 83.3C151.502 82.79 151.331 82.28 151.161 81.6C150.99 80.92 150.99 80.24 150.99 79.56C150.99 78.54 151.161 77.69 151.502 76.84C151.842 75.99 152.183 75.31 152.865 74.8C153.547 74.29 154.228 73.95 155.251 73.95C156.614 73.95 157.637 74.46 158.318 75.48L157.637 75.99C157.125 75.14 156.273 74.8 155.251 74.8C154.569 74.8 154.058 74.97 153.717 75.14C153.206 75.48 152.865 75.82 152.695 76.33C152.524 76.84 152.183 77.35 152.183 77.86C152.013 78.37 152.013 78.88 152.013 79.56C152.013 80.41 152.183 81.26 152.354 81.94C152.524 82.62 152.865 83.13 153.547 83.64C154.058 84.15 154.74 84.32 155.421 84.32C156.273 84.32 156.955 83.98 157.296 83.47C157.637 82.96 157.977 82.11 157.977 81.09V80.75H155.932V79.9H158.83V80.75C158.83 82.11 158.489 83.13 157.807 83.81C156.955 84.66 156.103 85 155.08 85Z" fill="#0C0C0C"/>
<path d="M162.238 84.83V74.29H168.032V74.97H162.92V78.88H166.328V79.56H162.92V83.81H168.203V84.49H162.238V84.83Z" fill="#0C0C0C"/>
<path d="M178.939 84.83H178.087L172.974 76.5C172.633 75.99 172.633 75.82 172.463 75.82V76.5V84.83H171.611V74.29H172.463L177.576 82.62C177.746 82.79 177.746 82.96 178.087 83.3V82.62V74.29H178.939V84.83Z" fill="#0C0C0C"/>
<path d="M186.608 85C185.585 85 184.904 84.66 184.222 84.15C183.54 83.64 183.029 82.96 182.859 82.11C182.518 81.26 182.518 80.41 182.518 79.39C182.518 78.88 182.518 78.2 182.688 77.69C182.859 77.18 183.029 76.67 183.199 76.16C183.37 75.65 183.711 75.31 184.051 74.97C184.392 74.63 184.733 74.29 185.244 74.12C185.756 73.95 186.267 73.78 186.778 73.78C187.63 73.78 188.312 73.95 188.653 74.29C189.164 74.63 189.505 74.97 189.846 75.48L189.164 75.82C188.823 75.48 188.653 75.14 188.141 74.8C187.801 74.63 187.289 74.46 186.608 74.46C185.926 74.46 185.244 74.63 184.733 75.14C184.222 75.65 183.881 76.16 183.54 76.84C183.37 77.52 183.199 78.2 183.199 79.05C183.199 80.41 183.54 81.43 184.051 82.45C184.563 83.3 185.415 83.81 186.608 83.81C187.801 83.81 188.653 83.3 189.164 82.28L189.846 82.62C189.505 83.13 189.164 83.64 188.653 83.98C188.141 84.83 187.46 85 186.608 85Z" fill="#0C0C0C"/>
<path d="M195.64 84.83V80.75L192.232 74.29H193.084L195.981 79.9L199.048 74.29H199.9L196.492 80.58V84.83H195.64Z" fill="#0C0C0C"/>
<path d="M203.65 80.5801V74.8001H201.945V74.1201H206.206V74.8001H204.502V80.5801H203.65ZM211.659 80.5801H210.978V76.5001L210.807 77.0101L209.273 80.7501L207.74 77.0101L207.569 76.5001V80.5801H206.887V74.2901H207.399L209.273 78.7101L209.444 79.0501L209.614 78.7101L211.489 74.2901H212V80.5801H211.659Z" fill="#0C0C0C"/>
<path d="M84.8682 27.2H80.2669V12.92C80.2669 11.73 80.2669 10.71 80.4373 9.69001C80.0965 10.54 79.7556 11.73 79.2444 12.92L72.7685 27.54L66.2926 12.92C65.7814 11.9 65.2701 10.88 64.9293 9.69001C65.0997 10.71 65.0997 11.73 65.0997 12.92V27.2H60.4984V0.51001H65.0997L71.9164 16.15C72.2572 16.83 72.4277 17.51 72.5981 18.19C72.7685 17.51 73.1093 17 73.2797 16.15L80.2669 0.51001H84.6978V27.2H84.8682Z" fill="#0C0C0C"/>
<path d="M88.9582 27.2V0.51001H106.341V4.76001H93.5595V11.22H101.399V15.47H93.5595V22.78H107.193V27.2H88.9582Z" fill="#0C0C0C"/>
<path d="M110.26 27.2V0.51001H122.019C125.087 0.51001 127.302 1.19001 128.666 2.72001C130.029 4.25001 130.711 6.12001 130.711 8.50001C130.711 10.2 130.199 11.73 129.347 13.09C128.495 14.62 127.132 15.64 125.428 16.15L130.711 27.03H125.598L120.486 16.66H114.862V27.2H110.26ZM114.862 12.41H122.19C123.553 12.41 124.576 12.07 125.257 11.39C125.939 10.71 126.28 9.86001 126.28 8.67001C126.28 7.65001 125.939 6.63001 125.428 5.95001C124.746 5.27001 123.724 4.93001 122.36 4.93001H115.032V12.41H114.862Z" fill="#0C0C0C"/>
<path d="M144.685 27.54C142.64 27.54 140.936 27.2 139.402 26.35C137.868 25.5 136.675 24.48 135.653 23.29C134.801 21.93 134.119 20.57 133.608 18.87C133.096 17.34 132.926 15.64 132.926 13.77C132.926 12.41 133.096 11.22 133.437 9.86C133.778 8.5 134.119 7.31 134.801 6.12C135.482 4.93 136.164 3.91 137.016 3.06C137.868 2.21 139.061 1.36 140.254 0.85C141.788 0.34 143.151 0 144.685 0C147.071 0 148.945 0.51 150.309 1.36C151.672 2.38 153.035 3.57 154.058 5.27L149.968 7.65C148.434 5.44 146.73 4.42 144.685 4.42C143.492 4.42 142.299 4.76 141.277 5.27C140.254 5.78 139.572 6.63 139.061 7.48C138.55 8.5 138.209 9.35 138.039 10.54C137.868 11.56 137.698 12.58 137.698 13.77C137.698 16.49 138.209 18.7 139.402 20.4C140.595 22.27 142.299 23.12 144.685 23.12C146.219 23.12 147.412 22.61 148.434 21.59C149.457 20.57 149.968 19.38 149.968 18.02V17.68H145.196V13.43H154.569V17.17C154.569 20.4 153.717 22.95 151.842 24.82C149.968 26.69 147.582 27.54 144.685 27.54Z" fill="#0C0C0C"/>
<path d="M157.978 27.2V0.51001H175.36V4.76001H162.579V11.22H170.418V15.47H162.579V22.78H176.212V27.2H157.978Z" fill="#0C0C0C"/>
<path d="M71.2347 36.21V59.67H67.9968V36.21H60.4984V32.98H78.7331V36.21H71.2347Z" fill="#0C0C0C"/>
<path d="M84.5273 59.67V32.98H95.0932C97.9903 32.98 100.206 33.66 101.569 35.19C102.932 36.72 103.614 38.42 103.614 40.63C103.614 42.33 103.103 44.03 102.08 45.39C101.058 46.75 99.5241 47.6 97.4791 48.11L103.273 59.84H99.5241L94.0707 48.45H88.1061V59.84H84.5273V59.67ZM87.7652 45.22H95.0932C96.7974 45.22 98.1607 44.71 98.8424 43.86C99.6945 43.01 100.035 41.99 100.035 40.63C100.035 39.44 99.6945 38.42 98.8424 37.4C97.9903 36.55 96.7974 36.04 94.9228 36.04H87.5948V45.22H87.7652Z" fill="#0C0C0C"/>
<path d="M125.768 59.67L123.553 53.21H112.987L110.772 59.67H107.363L116.907 32.98H119.974L129.518 59.67H125.768ZM122.531 50.15L119.122 40.29C118.611 39.1 118.441 38.08 118.27 37.57C117.929 38.59 117.759 39.44 117.418 40.29L114.01 50.15H122.531Z" fill="#0C0C0C"/>
<path d="M153.717 59.67H150.479L138.379 40.63C137.868 39.95 137.527 39.27 137.357 38.76C137.357 39.44 137.357 40.12 137.357 40.63V59.67H134.119V32.98H137.527L149.286 52.02C149.627 52.7 150.138 53.38 150.309 54.06C150.309 53.21 150.309 52.53 150.309 52.19V32.98H153.547V59.67H153.717Z" fill="#0C0C0C"/>
<path d="M168.543 60.18C166.328 60.18 164.283 59.67 162.579 58.48C160.875 57.46 159.852 55.93 159.17 54.23L162.238 53.04C162.749 54.23 163.601 55.25 164.794 55.93C165.817 56.61 167.18 56.95 168.543 56.95C170.248 56.95 171.441 56.61 172.463 55.76C173.486 54.91 173.826 53.89 173.826 52.36C173.826 51 173.315 49.81 172.293 48.96C171.27 48.11 169.736 47.43 167.862 46.75C167.01 46.41 166.158 46.07 165.646 45.9C164.965 45.73 164.283 45.22 163.601 44.88C162.749 44.37 162.238 43.86 161.727 43.35C161.215 42.84 160.875 42.16 160.534 41.48C160.193 40.8 160.023 39.95 160.023 39.1C160.023 37.23 160.704 35.7 162.238 34.34C163.772 33.15 165.646 32.47 168.203 32.47C170.248 32.47 171.952 32.98 173.315 33.83C174.678 34.68 175.531 35.87 176.042 37.23L172.974 38.25C172.633 37.4 171.952 36.89 171.1 36.38C170.248 35.87 169.225 35.7 167.862 35.7C166.498 35.7 165.306 36.04 164.624 36.55C163.772 37.23 163.431 38.08 163.431 39.1C163.431 39.61 163.601 40.29 163.942 40.63C164.283 41.14 164.624 41.48 165.306 41.99C165.987 42.33 166.498 42.67 167.01 42.84C167.521 43.01 168.203 43.35 169.225 43.69C170.418 44.2 171.441 44.54 172.122 44.88C172.804 45.22 173.656 45.73 174.678 46.41C175.531 47.09 176.212 47.94 176.724 48.79C177.235 49.81 177.405 50.83 177.405 52.19C177.405 54.57 176.553 56.44 175.019 57.8C173.315 59.5 171.27 60.18 168.543 60.18Z" fill="#0C0C0C"/>
<path d="M187.119 32.98H183.881V59.67H187.119V32.98Z" fill="#0C0C0C"/>
<path d="M204.161 36.21V59.67H200.752V36.21H193.254V32.98H211.489V36.21H204.161Z" fill="#0C0C0C"/>
<path d="M6.81672 32.3L0 35.36V59.84L6.81672 56.7801V32.3Z" fill="#E11C29"/>
<path d="M27.2669 0.51001L33.5723 5.44001L0 20.23V27.71V27.88L36.299 11.73V19.21L51.2958 0.51001H27.2669Z" fill="#0C0C0C"/>
<path d="M36.299 19.21L29.3118 22.27V59.84L36.299 56.95V19.21Z" fill="#1D335C"/>
<path d="M21.643 25.6699L18.2346 33.4899L14.8263 28.7299V59.8399L21.643 56.7799V25.6699Z" fill="#0C0C0C"/>
</svg>
