<svg width="187" height="61" viewBox="0 0 187 61" fill="none" xmlns="http://www.w3.org/2000/svg">
<g clip-path="url(#clip0)">
<path d="M186.918 52.7452C186.918 57.2835 183.237 61 178.663 61H8.74214C4.16803 61 0.487305 57.2835 0.487305 52.7452V8.25483C0.487305 3.68073 4.16803 0 8.74214 0H178.699C183.237 0 186.954 3.68073 186.954 8.25483V52.7452H186.918Z" fill="white"/>
<path d="M49.0876 40.3093C48.087 42.4892 47.6225 43.4898 46.3717 45.4195C44.585 48.1353 42.0835 51.4944 39.0103 51.4944C36.2587 51.5302 35.544 49.7077 31.8275 49.7077C28.1111 49.7434 27.3249 51.4944 24.5733 51.4944C21.4643 51.4587 19.07 48.4569 17.319 45.7411C12.3518 38.2009 11.8515 29.3386 14.889 24.6216C17.0689 21.2625 20.4995 19.3328 23.7156 19.3328C27.0033 19.3328 29.0759 21.1195 31.7918 21.1195C34.4362 21.1195 36.0443 19.3328 39.8322 19.3328C42.691 19.3328 45.7285 20.9051 47.9084 23.5853C40.7971 27.4804 41.9406 37.5935 49.0876 40.3093Z" fill="black"/>
<path d="M36.938 16.2952C38.3316 14.5084 39.368 12.0427 38.9749 9.46973C36.7236 9.61267 34.0792 11.0421 32.5425 12.936C31.1489 14.6156 30.0053 17.1528 30.4342 19.5828C32.8999 19.6543 35.4371 18.1891 36.938 16.2952Z" fill="black"/>
<path d="M64.2031 24.5146L57.0918 45.4197H60.3437L62.4521 38.9874H69.3132L71.4931 45.4197H74.8522L67.7052 24.5146H64.2031ZM65.8827 27.9452C66.1328 28.8743 66.383 29.8392 66.7046 30.9113L68.6343 36.4502H63.2025L65.0965 30.8755C65.3824 29.9464 65.6325 28.9815 65.8827 27.9452Z" fill="black"/>
<path d="M84.0722 29.9463C81.9281 29.9463 80.1771 30.7682 79.0336 32.3763L78.8906 30.3036H75.9961V30.5538C76.0676 31.8403 76.1033 33.2697 76.1033 35.3066V51.4231H79.2837V43.9188C80.2486 45.098 81.8209 45.777 83.6077 45.777C85.4659 45.777 87.1455 45.0623 88.3962 43.7401C89.7899 42.2749 90.5046 40.1666 90.5046 37.6651C90.5046 35.4495 89.8614 33.5198 88.6821 32.1261C87.5386 30.6967 85.8947 29.9463 84.0722 29.9463ZM83.2861 32.555C86.1092 32.555 87.3599 35.1636 87.3599 37.7723C87.3599 41.0957 85.7518 43.1683 83.1431 43.1683C81.3564 43.1683 79.8555 41.9533 79.4267 40.238C79.3552 39.9521 79.3195 39.6305 79.3195 39.2017V36.6645C79.3195 36.4501 79.3552 36.1642 79.4267 35.8783C79.4267 35.8069 79.4624 35.6997 79.4624 35.6282C79.927 33.8057 81.4993 32.555 83.2861 32.555Z" fill="black"/>
<path d="M100.368 29.9463C98.2235 29.9463 96.4724 30.7682 95.3289 32.3763L95.186 30.3036H92.3271V30.5538C92.3986 31.8403 92.4343 33.2697 92.4343 35.3066V51.4231H95.6148V43.9188C96.5796 45.098 98.152 45.777 99.9387 45.777C101.797 45.777 103.477 45.0623 104.727 43.7401C106.121 42.2749 106.836 40.1666 106.836 37.6651C106.836 35.4495 106.192 33.5198 105.013 32.1261C103.834 30.6967 102.19 29.9463 100.368 29.9463ZM99.5814 32.555C102.404 32.555 103.655 35.1636 103.655 37.7723C103.655 41.0957 102.047 43.1683 99.4384 43.1683C97.6874 43.1683 96.1508 41.9533 95.722 40.238C95.6505 39.9521 95.6148 39.6305 95.6148 39.2017V36.6645C95.6148 36.4501 95.6505 36.1642 95.722 35.8783C95.722 35.8069 95.7577 35.6997 95.7577 35.6282C96.2223 33.8057 97.7946 32.555 99.5814 32.555Z" fill="black"/>
<path d="M120.772 33.3769C117.806 32.2334 116.877 31.34 116.877 29.6604C116.877 28.2668 117.985 26.8374 120.486 26.8374C122.523 26.8374 123.845 27.5521 124.203 27.7665L124.489 27.9452L125.382 25.3008L125.203 25.1935C124.667 24.8719 123.166 24.1572 120.593 24.1572C116.555 24.1572 113.732 26.5515 113.732 29.9463C113.732 32.6979 115.483 34.6276 119.271 35.9856C121.951 36.9862 122.952 38.0225 122.952 39.7735C122.952 41.7747 121.415 42.9897 118.914 42.9897C117.306 42.9897 115.626 42.5251 114.34 41.7032L114.054 41.5245L113.196 44.2404L113.339 44.3476C114.518 45.1338 116.77 45.7056 118.7 45.7056C124.131 45.7056 126.061 42.3822 126.061 39.5591C126.097 36.6645 124.56 34.8778 120.772 33.3769Z" fill="black"/>
<path d="M131.779 26.6587L128.67 27.6235V30.2679H126.383V32.8051H128.67V40.5597C128.67 42.4179 129.027 43.7401 129.778 44.562C130.492 45.3482 131.564 45.777 132.851 45.777C134.03 45.777 134.888 45.5269 135.281 45.3839L135.46 45.3125L135.317 42.7753L135.031 42.8825C134.638 42.9897 134.209 43.0612 133.566 43.0612C132.351 43.0612 131.815 42.275 131.815 40.4525V32.8051H135.638V30.2679H131.815V26.6587H131.779Z" fill="black"/>
<path d="M143.463 29.9463C139.032 29.9463 135.959 33.2339 135.959 37.9867C135.959 42.5608 138.961 45.777 143.249 45.777H143.285C146.894 45.777 150.789 43.2398 150.789 37.7008C150.789 35.4495 150.11 33.5198 148.788 32.0904C147.394 30.6967 145.572 29.9463 143.463 29.9463ZM143.356 32.412C146.215 32.412 147.501 35.1994 147.501 37.7723C147.501 40.9527 145.75 43.2398 143.285 43.2398H143.249C140.855 43.2398 139.104 40.9885 139.104 37.8438C139.139 35.1636 140.426 32.412 143.356 32.412Z" fill="black"/>
<path d="M160.438 30.0892L160.259 30.0535C159.973 29.982 159.759 29.9463 159.473 29.9463C157.829 29.9463 156.328 30.9111 155.506 32.4835L155.399 30.2679H152.576L152.612 30.5181C152.683 31.7688 152.719 33.1625 152.719 35.0564L152.683 45.3839H155.864V37.3077C155.864 36.8789 155.9 36.4501 155.935 36.0927C156.293 34.163 157.615 32.9123 159.259 32.9123C159.58 32.9123 159.83 32.948 160.116 32.948L160.438 32.9838V30.0892Z" fill="black"/>
<path d="M167.549 29.9106C163.333 29.9106 160.402 33.2698 160.402 38.094C160.402 42.7396 163.333 45.7413 167.871 45.7413C170.265 45.7413 171.909 45.2053 172.874 44.7765L173.053 44.705L172.445 42.3465L172.195 42.4537C171.337 42.8111 170.194 43.1684 168.228 43.1684C166.87 43.1684 163.69 42.7039 163.476 38.5943L173.696 38.63L173.732 38.4156C173.803 38.094 173.839 37.6652 173.839 37.0934C173.839 33.77 172.195 29.9106 167.549 29.9106ZM167.335 32.3049C168.3 32.3049 169.086 32.5908 169.658 33.1983C170.551 34.1274 170.73 35.4853 170.73 36.1286H163.511C163.833 34.3061 164.976 32.3049 167.335 32.3049Z" fill="black"/>
<path d="M57.0918 10.2203C57.9852 10.1131 58.9858 10.0059 60.1293 10.0059C62.1662 10.0059 63.6313 10.4347 64.5962 11.2209C65.5968 12.0428 66.1685 13.1863 66.1685 14.7944C66.1685 16.4025 65.5968 17.7247 64.5962 18.6538C63.5599 19.5829 61.8446 20.0832 59.7362 20.0832C58.6999 20.0832 57.878 20.0475 57.1275 19.976V10.2203H57.0918ZM58.5569 19.0111C58.9143 19.0826 59.4503 19.0826 59.9864 19.0826C63.0238 19.0826 64.6677 17.546 64.6677 14.9016C64.6677 12.5431 63.2025 11.0779 60.2008 11.0779C59.4503 11.0779 58.9143 11.1494 58.5212 11.2209V19.0111H58.5569Z" fill="black"/>
<path d="M71.243 20.1548C69.1346 20.1548 67.4551 18.7612 67.4551 16.5099C67.4551 14.1156 69.2061 12.7219 71.386 12.7219C73.6373 12.7219 75.1739 14.1871 75.1739 16.3669C75.1739 19.0113 73.137 20.1548 71.243 20.1548ZM71.2788 19.19C72.6367 19.19 73.673 18.0465 73.673 16.4027C73.673 15.1877 72.994 13.6868 71.3145 13.6868C69.6349 13.6868 68.8845 15.0804 68.8845 16.4384C68.9202 18.0107 69.8851 19.19 71.2788 19.19Z" fill="black"/>
<path d="M77.4604 12.9005L78.5325 16.5097C78.7469 17.2959 78.9613 18.0464 79.1043 18.7968H79.14C79.3187 18.0821 79.5688 17.3316 79.8547 16.5455L81.1412 12.9362H82.3562L83.5712 16.474C83.8571 17.2959 84.1072 18.0821 84.2859 18.7968H84.3216C84.4646 18.0821 84.679 17.3316 84.9291 16.474L86.0369 12.9005H87.4663L84.9291 20.0118H83.6069L82.3919 16.6169C82.106 15.795 81.8916 15.1161 81.6772 14.2584H81.6415C81.4628 15.1161 81.2126 15.8665 80.9268 16.6169L79.6403 19.9761H78.3181L75.9238 12.8647H77.4604V12.9005Z" fill="black"/>
<path d="M88.8957 14.7944C88.8957 14.044 88.8957 13.4722 88.8242 12.8647H90.1107L90.1822 14.0082H90.2179C90.611 13.365 91.5401 12.686 92.8266 12.686C93.9344 12.686 95.6139 13.2578 95.6139 15.7235V19.976H94.1845V15.9022C94.1845 14.7587 93.72 13.7938 92.362 13.7938C91.4329 13.7938 90.6825 14.4013 90.4323 15.116C90.3608 15.2947 90.3251 15.5091 90.3251 15.7235V20.0118H88.8957V14.7944Z" fill="black"/>
<path d="M97.9375 9.57715H99.3669V20.0118H97.9375V9.57715Z" fill="black"/>
<path d="M104.977 20.1548C102.869 20.1548 101.189 18.7612 101.189 16.5099C101.189 14.1156 102.94 12.7219 105.12 12.7219C107.372 12.7219 108.908 14.1871 108.908 16.3669C108.908 19.0113 106.871 20.1548 104.977 20.1548ZM105.013 19.19C106.371 19.19 107.407 18.0465 107.407 16.4027C107.407 15.1877 106.728 13.6868 105.049 13.6868C103.369 13.6868 102.619 15.0804 102.619 16.4384C102.655 18.0107 103.619 19.19 105.013 19.19Z" fill="black"/>
<path d="M116.27 18.2964C116.27 18.9039 116.305 19.5114 116.377 20.0117H115.09L114.947 19.1183H114.912C114.483 19.6901 113.625 20.1904 112.482 20.1904C110.874 20.1904 110.052 19.1898 110.052 18.1535C110.052 16.4382 111.731 15.5091 114.805 15.5091V15.3661C114.805 14.7944 114.626 13.7223 113.018 13.7223C112.267 13.7223 111.517 13.901 110.945 14.2584L110.624 13.4007C111.267 13.0434 112.232 12.7932 113.232 12.7932C115.662 12.7932 116.234 14.2584 116.234 15.6878V18.2964H116.27ZM114.876 16.3667C113.304 16.331 111.517 16.5811 111.517 17.9748C111.517 18.8325 112.124 19.2256 112.839 19.2256C113.875 19.2256 114.554 18.6538 114.769 18.0463C114.805 17.9033 114.84 17.7604 114.84 17.6175V16.3667H114.876Z" fill="black"/>
<path d="M125.382 9.57715V18.1536C125.382 18.7968 125.382 19.5115 125.453 19.9761H124.167L124.095 18.7254H124.059C123.631 19.5115 122.666 20.119 121.379 20.119C119.485 20.119 117.984 18.6539 117.984 16.5098C117.984 14.1155 119.628 12.6861 121.522 12.6861C122.737 12.6861 123.559 13.1864 123.916 13.7582H123.952V9.57715H125.382ZM123.952 15.7951C123.952 15.6164 123.952 15.402 123.881 15.2233C123.666 14.4014 122.88 13.7582 121.808 13.7582C120.307 13.7582 119.45 14.9374 119.45 16.474C119.45 17.9392 120.236 19.1185 121.772 19.1185C122.737 19.1185 123.631 18.5467 123.881 17.5818C123.916 17.4032 123.952 17.2245 123.952 17.0101V15.7951Z" fill="black"/>
<path d="M134.459 20.1548C132.35 20.1548 130.671 18.7612 130.671 16.5099C130.671 14.1156 132.422 12.7219 134.602 12.7219C136.853 12.7219 138.39 14.1871 138.39 16.3669C138.39 19.0113 136.353 20.1548 134.459 20.1548ZM134.495 19.19C135.852 19.19 136.889 18.0465 136.889 16.4027C136.889 15.1877 136.21 13.6868 134.53 13.6868C132.851 13.6868 132.1 15.0804 132.1 16.4384C132.1 18.0107 133.101 19.19 134.495 19.19Z" fill="black"/>
<path d="M140.176 14.7944C140.176 14.044 140.176 13.4722 140.104 12.8647H141.391L141.462 14.0082H141.498C141.891 13.365 142.82 12.686 144.107 12.686C145.215 12.686 146.894 13.2578 146.894 15.7235V19.976H145.465V15.9022C145.465 14.7587 145 13.7938 143.642 13.7938C142.713 13.7938 141.963 14.4013 141.713 15.116C141.641 15.2947 141.605 15.5091 141.605 15.7235V20.0118H140.176V14.7944Z" fill="black"/>
<path d="M154.434 11.1853V12.9006H156.507V13.9012H154.434V17.7248C154.434 18.6182 154.72 19.1185 155.507 19.1185C155.9 19.1185 156.114 19.0828 156.328 19.047L156.4 20.0476C156.114 20.1191 155.685 20.2263 155.113 20.2263C154.434 20.2263 153.898 20.0119 153.577 19.6903C153.184 19.2972 153.005 18.654 153.005 17.8321V13.8654H151.79V12.8649H153.005V11.5427L154.434 11.1853Z" fill="black"/>
<path d="M158.115 9.57715H159.545V14.0083H159.58C159.795 13.651 160.152 13.2936 160.617 13.1149C161.046 12.8648 161.546 12.7576 162.082 12.7576C163.154 12.7576 164.833 13.3293 164.833 15.7951V20.0118H163.404V15.9023C163.404 14.7588 162.94 13.7939 161.582 13.7939C160.652 13.7939 159.938 14.3657 159.652 15.0804C159.58 15.259 159.545 15.4377 159.545 15.6879V19.9761H158.115V9.57715Z" fill="black"/>
<path d="M167.978 16.6526C168.014 18.4037 169.229 19.1184 170.658 19.1184C171.695 19.1184 172.338 18.9397 172.838 18.761L173.088 19.6544C172.588 19.8688 171.695 20.119 170.444 20.119C168.014 20.119 166.549 18.6538 166.549 16.5454C166.549 14.4013 167.978 12.686 170.265 12.686C172.838 12.686 173.517 14.7229 173.517 16.0451C173.517 16.2953 173.517 16.5097 173.481 16.6526H167.978ZM172.159 15.7235C172.159 14.9016 171.766 13.6152 170.194 13.6152C168.729 13.6152 168.121 14.8301 167.978 15.7235H172.159Z" fill="black"/>
</g>
<defs>
<clipPath id="clip0">
<rect width="186.431" height="61" fill="white" transform="translate(0.487305)"/>
</clipPath>
</defs>
</svg>
