<svg width="472" height="434" viewBox="0 0 472 434" fill="none" xmlns="http://www.w3.org/2000/svg">
<g clip-path="url(#clip0)">
<path d="M438.601 230.895H288.767V434H438.601V230.895Z" fill="#B0DDFF"/>
<path d="M363.683 351.554L322.746 327.353V279.066L363.683 303.267V351.554Z" fill="#D8EEFF"/>
<path d="M363.684 351.554L404.737 327.353V279.066L363.684 303.267V351.554Z" fill="#E7F5FF"/>
<path d="M322.746 279.066L363.683 254.749L404.737 279.066L363.683 303.267L322.746 279.066Z" fill="white"/>
<path d="M348.259 305.931L338.17 300.025V288.214L348.259 294.12V305.931Z" fill="#B0DDFF"/>
<path d="M348.259 294.119L338.17 288.214L378.876 263.55L388.849 269.455L348.259 294.119Z" fill="#D8EEFF"/>
<path d="M401.722 374.597H323.558C321.702 374.597 320.079 372.976 320.079 371.123C320.079 369.271 321.702 367.649 323.558 367.649H401.722C403.577 367.649 405.201 369.271 405.201 371.123C405.201 372.976 403.693 374.597 401.722 374.597Z" fill="white"/>
<path d="M401.722 391.04H323.558C321.702 391.04 320.079 389.535 320.079 387.566C320.079 385.714 321.702 384.092 323.558 384.092H401.722C403.577 384.092 405.201 385.714 405.201 387.566C405.201 389.419 403.693 391.04 401.722 391.04Z" fill="white"/>
<path d="M389.545 407.483H335.619C333.763 407.483 332.14 405.862 332.14 404.009C332.14 402.156 333.763 400.535 335.619 400.535H389.545C391.517 400.535 393.024 402.041 393.024 404.009C393.024 405.862 391.517 407.483 389.545 407.483Z" fill="white"/>
<path d="M460.403 61.4872H265.109C258.73 61.4872 253.511 66.698 253.511 73.0667V194.304C253.511 200.673 258.73 205.884 265.109 205.884H346.288L354.406 213.758L362.756 221.863L371.106 213.758L379.223 205.884H460.403C466.781 205.884 472 200.673 472 194.304V73.0667C472 66.698 466.781 61.4872 460.403 61.4872Z" fill="#E7F5FF"/>
<path d="M263.369 61.4872H331.676V205.884H263.369C256.991 205.884 251.772 200.673 251.772 194.304V73.0667C251.772 66.698 256.875 61.4872 263.369 61.4872Z" fill="#B0DDFF"/>
<path d="M451.705 91.2465H353.13C351.275 91.2465 349.651 89.7412 349.651 87.7727C349.651 85.8042 351.275 84.2988 353.13 84.2988H451.705C453.561 84.2988 455.184 85.8042 455.184 87.7727C455.184 89.7412 453.561 91.2465 451.705 91.2465Z" fill="#B0DDFF"/>
<path d="M451.705 166.166H353.13C351.275 166.166 349.651 164.545 349.651 162.692C349.651 160.839 351.275 159.218 353.13 159.218H451.705C453.561 159.218 455.184 160.724 455.184 162.692C455.184 164.661 453.561 166.166 451.705 166.166Z" fill="white"/>
<path d="M417.378 107.689H353.13C351.275 107.689 349.651 106.184 349.651 104.216C349.651 102.363 351.275 100.742 353.13 100.742H417.378C419.233 100.742 420.857 102.247 420.857 104.216C420.857 106.184 419.349 107.689 417.378 107.689Z" fill="#B0DDFF"/>
<path d="M311.961 155.744H274.85C272.994 155.744 271.371 154.239 271.371 152.27C271.371 150.418 272.994 148.797 274.85 148.797H311.961C313.932 148.797 315.44 150.418 315.44 152.27C315.44 154.123 313.932 155.744 311.961 155.744Z" fill="#E7F5FF"/>
<path d="M315.44 167.324H271.371C269.399 167.324 267.892 165.819 267.892 163.85C267.892 161.997 269.399 160.376 271.371 160.376H315.44C317.295 160.376 318.919 161.997 318.919 163.85C318.919 165.819 317.411 167.324 315.44 167.324Z" fill="#E7F5FF"/>
<path d="M410.42 122.86V126.102L404.853 146.829H401.026L406.593 126.218H399.054V122.744H410.42V122.86Z" fill="#25416D"/>
<path d="M412.623 128.648C412.623 124.827 414.711 122.627 418.422 122.627C422.133 122.627 424.22 124.827 424.22 128.648V141.154C424.22 144.975 422.133 147.176 418.422 147.176C414.711 147.176 412.623 144.975 412.623 141.154V128.648ZM416.334 141.386C416.334 143.123 417.146 143.702 418.306 143.702C419.465 143.702 420.277 143.007 420.277 141.386V128.417C420.277 126.68 419.465 126.101 418.306 126.101C417.146 126.101 416.334 126.796 416.334 128.417V141.386Z" fill="#25416D"/>
<path d="M426.308 126.564C426.308 124.132 427.583 122.743 429.903 122.743C432.222 122.743 433.498 124.132 433.498 126.564V134.438C433.498 136.87 432.222 138.259 429.903 138.259C427.583 138.259 426.308 136.87 426.308 134.438V126.564ZM428.743 134.67C428.743 135.712 429.207 136.175 430.019 136.175C430.83 136.175 431.294 135.712 431.294 134.67V126.448C431.294 125.406 430.83 124.943 430.019 124.943C429.207 124.943 428.743 125.406 428.743 126.448V134.67ZM439.528 122.858H441.732L432.222 146.944H430.019L439.528 122.858ZM438.253 135.364C438.253 132.933 439.528 131.543 441.848 131.543C444.167 131.543 445.443 132.933 445.443 135.364V143.238C445.443 145.67 444.167 147.06 441.848 147.06C439.528 147.06 438.253 145.67 438.253 143.238V135.364ZM440.688 143.47C440.688 144.512 441.152 144.975 441.964 144.975C442.775 144.975 443.239 144.512 443.239 143.47V135.249C443.239 134.206 442.775 133.743 441.964 133.743C441.152 133.743 440.688 134.206 440.688 135.249V143.47Z" fill="#25416D"/>
<path d="M421.553 166.166H353.014C351.159 166.166 349.535 164.545 349.535 162.692C349.535 160.839 351.159 159.218 353.014 159.218H421.553C423.408 159.218 425.032 160.724 425.032 162.692C425.032 164.661 423.524 166.166 421.553 166.166Z" fill="#6CB8FF"/>
<path d="M357.189 187.472H354.754L354.29 184.693H351.391L350.927 187.472H348.723L351.159 172.419H354.638L357.189 187.472ZM351.739 182.609H354.058L352.898 174.966L351.739 182.609Z" fill="#25416D"/>
<path d="M455.996 175.893V176.472C455.996 177.977 455.532 179.019 454.488 179.482C455.764 179.946 456.228 181.104 456.228 182.725V183.998C456.228 186.314 454.952 187.588 452.633 187.588H448.922V172.535H452.517C454.952 172.419 455.996 173.461 455.996 175.893ZM451.357 174.503V178.44H452.285C453.213 178.44 453.677 178.093 453.677 176.819V176.009C453.677 174.966 453.329 174.503 452.517 174.503H451.357ZM451.357 180.64V185.272H452.749C453.561 185.272 454.025 184.925 454.025 183.767V182.493C454.025 181.104 453.561 180.64 452.517 180.64H451.357Z" fill="#25416D"/>
<path d="M353.362 168.482C356.565 168.482 359.161 165.89 359.161 162.692C359.161 159.495 356.565 156.902 353.362 156.902C350.16 156.902 347.564 159.495 347.564 162.692C347.564 165.89 350.16 168.482 353.362 168.482Z" fill="#6CB8FF" stroke="#D8EEFF" stroke-miterlimit="10"/>
<path d="M451.009 168.482C454.212 168.482 456.808 165.89 456.808 162.692C456.808 159.495 454.212 156.902 451.009 156.902C447.807 156.902 445.211 159.495 445.211 162.692C445.211 165.89 447.807 168.482 451.009 168.482Z" fill="white" stroke="#D8EEFF" stroke-miterlimit="10"/>
<path d="M422.828 170.45C427.12 170.45 430.598 166.977 430.598 162.692C430.598 158.407 427.12 154.934 422.828 154.934C418.537 154.934 415.058 158.407 415.058 162.692C415.058 166.977 418.537 170.45 422.828 170.45Z" fill="#6CB8FF"/>
<path d="M322.166 107.342C322.166 114.985 319.151 121.816 314.396 127.027C309.177 132.585 301.755 136.059 293.521 136.059C285.288 136.059 277.865 132.585 272.647 127.027C267.776 121.932 264.761 114.985 264.761 107.342C264.761 91.4781 277.633 78.7406 293.405 78.7406C309.293 78.6248 322.166 91.4781 322.166 107.342Z" fill="white"/>
<path d="M305.814 100.858C305.466 100.51 305.118 100.279 304.655 100.163C304.655 100.163 304.539 98.5416 303.843 96.8047L304.886 96.2257L306.162 97.3837C306.162 97.2679 305.814 100.858 305.814 100.858Z" fill="#25416D"/>
<path d="M314.28 126.911C309.061 132.47 301.639 135.944 293.405 135.944C285.172 135.944 277.749 132.47 272.531 126.911C274.502 123.322 278.329 120.89 282.736 120.89H304.075C308.598 120.89 312.309 123.322 314.28 126.911Z" fill="#6CB8FF"/>
<path d="M304.771 100.047V99.9312C304.771 92.4045 299.784 86.3832 293.637 86.3832C287.491 86.3832 282.504 92.4045 282.504 99.9312V100.047C281.229 100.51 280.185 102.131 280.185 104.1C280.185 106.184 281.345 107.921 282.852 108.153C283.78 111.858 286.215 114.869 289.346 116.258L287.607 120.89L293.289 125.522H293.521L299.204 120.89L297.464 116.258C300.712 114.869 303.147 111.858 304.075 108.153C305.698 108.037 306.974 106.3 306.974 104.1C306.974 102.131 306.046 100.51 304.771 100.047Z" fill="#FFEFEF"/>
<path d="M281.46 100.858C281.808 100.51 282.156 100.279 282.62 100.163C282.62 100.163 282.736 98.5416 283.432 96.8047L282.388 96.2257L281.113 97.3837C281.113 97.2679 281.344 100.858 281.46 100.858Z" fill="#25416D"/>
<path d="M306.046 96.9205C306.046 89.5096 300.364 83.4883 293.405 83.4883C286.447 83.4883 280.765 89.5096 280.765 96.9205C280.765 97.0363 280.765 97.1521 280.765 97.3837H282.272C282.504 100.626 287.375 101.784 293.289 101.784C299.204 101.784 304.075 100.626 304.307 97.3837H305.814C306.046 97.1521 306.046 97.0363 306.046 96.9205Z" fill="#B0DDFF"/>
<path d="M304.771 97.2679C304.771 97.2679 304.075 102.247 293.521 102.247C282.156 102.247 282.272 97.2679 282.272 97.2679C282.272 97.2679 287.491 96.2257 293.637 96.2257C299.784 96.2257 304.771 97.2679 304.771 97.2679Z" fill="#6CB8FF"/>
<path d="M282.968 108.384C282.504 106.416 282.04 99.5838 282.388 100.163C283.084 101.205 282.504 105.605 285.751 109.774C286.911 111.163 291.782 109.195 293.174 109.195C295.493 109.311 297.812 110.468 299.088 110.816C303.495 111.858 304.307 101.668 304.655 99.8153C304.887 98.6574 305.118 100.973 304.307 107.921C304.075 109.774 300.828 117.416 293.521 117.3C285.404 117.185 282.968 108.384 282.968 108.384Z" fill="#25416D"/>
<path d="M297.581 111.626C297.465 112.321 295.029 112.9 293.406 112.9C291.782 112.9 289.579 112.205 289.579 111.511C289.579 111.163 292.014 111.626 293.522 111.626C295.145 111.626 297.581 111.279 297.581 111.626Z" fill="white"/>
<path d="M185.089 230.895H35.2549V434H185.089V230.895Z" fill="#B0DDFF"/>
<path d="M110.172 351.554L69.2344 327.353V279.066L110.172 303.267V351.554Z" fill="#D8EEFF"/>
<path d="M110.172 351.554L151.225 327.353V279.066L110.172 303.267V351.554Z" fill="#E7F5FF"/>
<path d="M69.2344 279.066L110.172 254.749L151.226 279.066L110.172 303.267L69.2344 279.066Z" fill="white"/>
<path d="M94.7476 305.931L84.6582 300.025V288.214L94.7476 294.12V305.931Z" fill="#B0DDFF"/>
<path d="M94.7476 294.119L84.6582 288.214L125.248 263.55L135.337 269.455L94.7476 294.119Z" fill="#D8EEFF"/>
<path d="M148.21 374.597H70.046C68.0745 374.597 66.5669 372.976 66.5669 371.123C66.5669 369.271 68.0745 367.649 70.046 367.649H148.21C150.182 367.649 151.689 369.271 151.689 371.123C151.689 372.976 150.182 374.597 148.21 374.597Z" fill="white"/>
<path d="M148.21 391.04H70.046C68.0745 391.04 66.5669 389.535 66.5669 387.566C66.5669 385.713 68.0745 384.092 70.046 384.092H148.21C150.182 384.092 151.689 385.713 151.689 387.566C151.689 389.419 150.182 391.04 148.21 391.04Z" fill="white"/>
<path d="M136.033 407.483H82.2228C80.3672 407.483 78.7437 405.862 78.7437 404.009C78.7437 402.156 80.2513 400.535 82.2228 400.535H136.149C138.005 400.535 139.628 402.04 139.628 404.009C139.512 405.862 138.005 407.483 136.033 407.483Z" fill="white"/>
<path d="M206.891 61.4872H11.5971C5.21867 61.4872 0 66.698 0 73.0667V194.304C0 200.673 5.21867 205.884 11.5971 205.884H92.7764L100.894 213.758L109.244 221.863L117.594 213.758L125.712 205.884H206.891C213.27 205.884 218.488 200.673 218.488 194.304V73.0667C218.488 66.698 213.27 61.4872 206.891 61.4872Z" fill="#E7F5FF"/>
<path d="M11.5971 61.4872H79.9037V205.884H11.5971C5.21867 205.884 0 200.673 0 194.304V73.0667C0 66.698 5.21867 61.4872 11.5971 61.4872Z" fill="#B0DDFF"/>
<path d="M198.077 91.2465H99.5026C97.647 91.2465 96.0234 89.7412 96.0234 87.7727C96.0234 85.8042 97.5311 84.2988 99.5026 84.2988H198.077C199.933 84.2988 201.557 85.8042 201.557 87.7727C201.557 89.7412 200.049 91.2465 198.077 91.2465Z" fill="#B0DDFF"/>
<path d="M198.077 166.166H99.5026C97.647 166.166 96.0234 164.545 96.0234 162.692C96.0234 160.839 97.5311 159.218 99.5026 159.218H198.077C199.933 159.218 201.557 160.724 201.557 162.692C201.557 164.661 200.049 166.166 198.077 166.166Z" fill="white"/>
<path d="M163.866 107.689H99.5026C97.647 107.689 96.0234 106.184 96.0234 104.216C96.0234 102.363 97.5311 100.742 99.5026 100.742H163.75C165.722 100.742 167.229 102.247 167.229 104.216C167.345 106.184 165.722 107.689 163.866 107.689Z" fill="#B0DDFF"/>
<path d="M58.449 155.744H21.3385C19.483 155.744 17.8594 154.239 17.8594 152.27C17.8594 150.418 19.367 148.797 21.3385 148.797H58.449C60.3046 148.797 61.9282 150.418 61.9282 152.27C61.9282 154.123 60.4205 155.744 58.449 155.744Z" fill="#E7F5FF"/>
<path d="M61.9283 167.324H17.8595C16.004 167.324 14.3804 165.819 14.3804 163.85C14.3804 161.997 15.888 160.376 17.8595 160.376H61.9283C63.7838 160.376 65.4074 161.997 65.4074 163.85C65.4074 165.819 63.8998 167.324 61.9283 167.324Z" fill="#E7F5FF"/>
<path d="M132.554 166.166H98.5748C97.1831 166.166 96.0234 165.008 96.0234 163.618V161.65C96.0234 160.26 97.1831 159.102 98.5748 159.102H132.554C133.946 159.102 135.105 160.26 135.105 161.65V163.618C134.99 165.124 133.946 166.166 132.554 166.166Z" fill="#6CB8FF"/>
<path d="M103.678 187.472H101.242L100.779 184.693H97.8792L97.4154 187.472H95.2119L97.6473 172.419H101.126L103.678 187.472ZM98.2271 182.609H100.547L99.3869 174.966L98.2271 182.609Z" fill="#25416D"/>
<path d="M214.197 175.893V176.472C214.197 177.977 213.734 179.019 212.69 179.482C213.966 179.946 214.429 181.104 214.429 182.725V183.998C214.429 186.314 213.154 187.588 210.834 187.588H207.123V172.535H210.718C213.154 172.419 214.197 173.461 214.197 175.893ZM209.443 174.503V178.44H210.37C211.298 178.44 211.762 178.093 211.762 176.819V176.009C211.762 174.966 211.414 174.503 210.602 174.503H209.443ZM209.443 180.64V185.272H210.834C211.646 185.272 212.11 184.925 212.11 183.767V182.493C212.11 181.104 211.646 180.64 210.602 180.64H209.443Z" fill="#25416D"/>
<path d="M99.8508 168.482C103.053 168.482 105.649 165.89 105.649 162.692C105.649 159.495 103.053 156.902 99.8508 156.902C96.6483 156.902 94.0522 159.495 94.0522 162.692C94.0522 165.89 96.6483 168.482 99.8508 168.482Z" fill="#6CB8FF" stroke="#D8EEFF" stroke-miterlimit="10"/>
<path d="M209.095 168.482C212.297 168.482 214.893 165.89 214.893 162.692C214.893 159.495 212.297 156.902 209.095 156.902C205.892 156.902 203.296 159.495 203.296 162.692C203.296 165.89 205.892 168.482 209.095 168.482Z" fill="white" stroke="#D8EEFF" stroke-miterlimit="10"/>
<path d="M131.626 170.45C135.918 170.45 139.396 166.977 139.396 162.692C139.396 158.407 135.918 154.934 131.626 154.934C127.335 154.934 123.856 158.407 123.856 162.692C123.856 166.977 127.335 170.45 131.626 170.45Z" fill="#6CB8FF"/>
<path d="M113.883 125.985C112.723 125.985 111.911 126.68 111.911 128.301V130.848H108.316V128.533C108.316 124.711 110.288 122.511 113.999 122.511C117.71 122.511 119.682 124.711 119.682 128.533C119.682 136.059 112.143 138.954 112.143 142.891C112.143 143.007 112.143 143.239 112.143 143.354H119.334V146.828H108.432V143.818C108.432 136.754 115.97 135.596 115.97 128.648C115.854 126.564 115.043 125.985 113.883 125.985Z" fill="#25416D"/>
<path d="M121.653 128.648C121.653 124.827 123.74 122.627 127.451 122.627C131.162 122.627 133.25 124.827 133.25 128.648V141.154C133.25 144.976 131.162 147.176 127.451 147.176C123.74 147.176 121.653 144.976 121.653 141.154V128.648ZM125.48 141.386C125.48 143.123 126.292 143.702 127.451 143.702C128.611 143.702 129.423 143.007 129.423 141.386V128.417C129.423 126.68 128.611 126.101 127.451 126.101C126.292 126.101 125.48 126.796 125.48 128.417V141.386Z" fill="#25416D"/>
<path d="M135.338 126.564C135.338 124.132 136.613 122.743 138.933 122.743C141.252 122.743 142.528 124.132 142.528 126.564V134.438C142.528 136.87 141.252 138.259 138.933 138.259C136.613 138.259 135.338 136.87 135.338 134.438V126.564ZM137.773 134.67C137.773 135.712 138.237 136.175 139.049 136.175C139.861 136.175 140.324 135.712 140.324 134.67V126.448C140.324 125.406 139.861 124.943 139.049 124.943C138.237 124.943 137.773 125.406 137.773 126.448V134.67ZM148.558 122.859H150.762L141.252 146.944H139.049L148.558 122.859ZM147.283 135.364C147.283 132.933 148.558 131.543 150.878 131.543C153.197 131.543 154.473 132.933 154.473 135.364V143.239C154.473 145.67 153.197 147.06 150.878 147.06C148.558 147.06 147.283 145.67 147.283 143.239V135.364ZM149.718 143.47C149.718 144.512 150.182 144.975 150.994 144.975C151.805 144.975 152.269 144.512 152.269 143.47V135.249C152.269 134.207 151.805 133.743 150.994 133.743C150.182 133.743 149.718 134.207 149.718 135.249V143.47Z" fill="#25416D"/>
<path d="M68.3068 107.342C68.3068 114.985 65.2915 121.816 60.5368 127.027C55.3181 132.585 47.896 136.059 39.6621 136.059C31.4282 136.059 24.006 132.585 18.7874 127.027C13.9166 121.932 10.9014 114.985 10.9014 107.342C10.9014 91.4781 23.7741 78.7406 39.5461 78.7406C55.55 78.6248 68.3068 91.4781 68.3068 107.342Z" fill="white"/>
<path d="M51.9549 100.858C51.607 100.51 51.2591 100.279 50.7952 100.163C50.7952 100.163 50.6792 98.5417 49.9834 96.8048L51.0271 96.11L52.3028 97.2679C52.3028 97.2679 52.0709 100.858 51.9549 100.858Z" fill="#25416D"/>
<path d="M60.537 126.911C55.3183 132.47 47.8962 135.943 39.6623 135.943C31.4284 135.943 24.0063 132.47 18.7876 126.911C20.7591 123.322 24.5861 120.89 28.993 120.89H50.3316C54.7385 120.89 58.5655 123.322 60.537 126.911Z" fill="#6CB8FF"/>
<path d="M50.9114 100.047V99.9312C50.9114 92.4045 45.9247 86.3832 39.7783 86.3832C33.6318 86.3832 28.6451 92.4045 28.6451 99.9312V100.047C27.3694 100.51 26.3257 102.131 26.3257 104.1C26.3257 106.184 27.4854 107.921 28.993 108.153C29.9208 111.858 32.3561 114.869 35.4874 116.258L33.7478 120.89L39.4303 125.522H39.6623L45.3448 120.89L43.6053 116.258C46.8525 114.869 49.2878 111.858 50.2156 108.153C51.8392 108.037 53.1149 106.3 53.1149 104.1C53.2308 102.131 52.3031 100.51 50.9114 100.047Z" fill="#FFEFEF"/>
<path d="M27.6013 100.858C27.9492 100.51 28.2972 100.279 28.761 100.163C28.761 100.163 28.877 98.5417 29.5728 96.8048L28.5291 96.11L27.2534 97.2679L27.6013 100.858Z" fill="#25416D"/>
<path d="M52.3031 96.9205C52.3031 89.5096 46.6205 83.4883 39.6623 83.4883C32.704 83.4883 27.0215 89.5096 27.0215 96.9205C27.0215 97.0363 27.0215 97.1521 27.0215 97.3837H28.5291C28.761 100.626 33.6318 101.784 39.5463 101.784C45.4608 101.784 50.3316 100.626 50.5635 97.3837H52.0711C52.3031 97.1521 52.3031 97.0363 52.3031 96.9205Z" fill="#B0DDFF"/>
<path d="M51.0276 97.2679C51.0276 97.2679 50.3318 102.247 39.7785 102.247C28.4134 102.247 28.5293 97.2679 28.5293 97.2679C28.5293 97.2679 33.748 96.2257 39.8945 96.2257C46.0409 96.2257 51.0276 97.2679 51.0276 97.2679Z" fill="#6CB8FF"/>
<path d="M29.2248 108.384C28.7609 106.416 28.297 99.5838 28.6449 100.163C29.3407 101.205 28.7609 105.605 32.0081 109.774C33.1678 111.163 38.0385 109.195 39.4302 109.195C41.7496 109.311 44.069 110.469 45.3447 110.816C49.7515 111.858 50.5633 101.668 50.9112 99.8153C51.1432 98.6574 51.3751 100.973 50.5633 107.921C50.3314 109.774 47.0842 117.416 39.7781 117.3C31.6601 117.185 29.2248 108.384 29.2248 108.384Z" fill="#25416D"/>
<path d="M43.8374 111.626C43.7214 112.321 41.2861 112.9 39.6625 112.9C38.0389 112.9 35.8354 112.205 35.8354 111.511C35.8354 111.163 38.2708 111.626 39.7784 111.626C41.402 111.626 43.8374 111.279 43.8374 111.626Z" fill="white"/>
</g>
<defs>
<clipPath id="clip0">
<rect width="472" height="434" fill="white"/>
</clipPath>
</defs>
</svg>
