<svg width="164" height="54" viewBox="0 0 164 54" fill="none" xmlns="http://www.w3.org/2000/svg">
<g clip-path="url(#clip0)">
<path d="M163.735 46.7053C163.735 50.74 160.502 54 156.5 54H7.23441C3.23308 54 0 50.74 0 46.7053V7.29468C0 3.26001 3.23308 0 7.23441 0H156.5C160.502 0 163.735 3.26001 163.735 7.29468V46.7053Z" fill="black"/>
<path d="M12.292 10.3933V28.6946V46.9635L30.5701 28.6946L12.292 10.3933Z" fill="url(#paint0_linear)"/>
<path d="M35.4677 23.7561L28.1053 19.4632L12.292 10.2642V10.3933L30.5701 28.6945L35.4677 23.7561Z" fill="url(#paint1_linear)"/>
<path d="M12.292 46.9636V47.0927L28.1053 37.8936L35.4677 33.6007L30.5701 28.6946L12.292 46.9636Z" fill="url(#paint2_linear)"/>
<path d="M35.4679 23.7561L30.5703 28.6945L35.4679 33.6007L43.9188 28.6945L35.4679 23.7561Z" fill="url(#paint3_linear)"/>
<path d="M127.435 35.8279C126.762 35.8279 126.122 35.6988 125.546 35.4405C124.97 35.1823 124.49 34.795 124.105 34.2463H123.977C124.041 34.8595 124.105 35.4405 124.105 36.0215V40.4112H122.505V25.015H123.817L124.041 26.4674H124.105C124.522 25.8864 125.002 25.4668 125.546 25.2086C126.09 24.9504 126.73 24.8213 127.435 24.8213C128.843 24.8213 129.899 25.3054 130.668 26.2738C131.436 27.2421 131.82 28.5977 131.82 30.3407C131.82 32.0837 131.436 33.4393 130.668 34.4077C129.867 35.3437 128.779 35.8279 127.435 35.8279ZM127.178 26.1769C126.09 26.1769 125.322 26.4674 124.842 27.0807C124.362 27.694 124.105 28.63 124.105 29.9534V30.3084C124.105 31.7932 124.362 32.8583 124.842 33.5039C125.322 34.1494 126.122 34.4722 127.21 34.4722C128.107 34.4722 128.843 34.0849 129.355 33.3425C129.867 32.6001 130.123 31.5673 130.123 30.2762C130.123 28.9528 129.867 27.9199 129.355 27.2098C128.843 26.532 128.139 26.1769 127.178 26.1769Z" fill="#F9F9F9"/>
<path d="M135.501 35.6342H133.9V20.5284H135.501V35.6342Z" fill="#F9F9F9"/>
<path d="M144.688 35.6342L144.368 34.1172H144.304C143.792 34.795 143.248 35.2469 142.736 35.4728C142.223 35.6988 141.551 35.8279 140.783 35.8279C139.727 35.8279 138.926 35.5696 138.318 35.0209C137.71 34.4722 137.422 33.6976 137.422 32.697C137.422 30.5344 139.118 29.437 142.544 29.3078L144.336 29.2433V28.5977C144.336 27.7585 144.144 27.1453 143.792 26.7579C143.44 26.3706 142.864 26.1769 142.095 26.1769C141.231 26.1769 140.207 26.4352 139.118 26.9839L138.638 25.7573C139.15 25.4668 139.727 25.2409 140.335 25.0795C140.943 24.9181 141.583 24.8213 142.191 24.8213C143.44 24.8213 144.368 25.1118 144.976 25.6605C145.585 26.2092 145.873 27.113 145.873 28.3718V35.6342H144.688ZM141.071 34.5045C142.063 34.5045 142.832 34.214 143.408 33.6653C143.984 33.1166 144.272 32.3419 144.272 31.3413V30.373L142.672 30.4375C141.391 30.4698 140.495 30.6958 139.919 31.0508C139.343 31.4059 139.086 31.9546 139.086 32.697C139.086 33.278 139.246 33.7298 139.599 34.0203C139.951 34.3431 140.431 34.5045 141.071 34.5045Z" fill="#F9F9F9"/>
<path d="M146.801 25.015H148.497L150.802 31.0832C151.314 32.4711 151.634 33.4717 151.73 34.0849H151.794C151.89 33.7622 152.051 33.1812 152.307 32.4065C152.563 31.5996 153.459 29.1465 154.931 25.0473H156.66L152.147 37.119C151.698 38.3133 151.186 39.1525 150.578 39.6689C149.97 40.1854 149.234 40.4113 148.369 40.4113C147.889 40.4113 147.409 40.3468 146.929 40.2499V38.9588C147.281 39.0234 147.665 39.0879 148.113 39.0879C149.202 39.0879 150.002 38.4747 150.45 37.2159L151.026 35.6988L146.801 25.015Z" fill="#F9F9F9"/>
<path d="M97.8246 25.9833C98.3368 26.4029 99.3931 27.3067 99.3931 28.9851C99.3931 30.6313 98.4648 31.4059 97.5365 32.1483C97.2484 32.4388 96.9283 32.7616 96.9283 33.2457C96.9283 33.7299 97.2484 33.9881 97.5045 34.214L98.3048 34.8273C99.2651 35.6665 100.161 36.4089 100.161 37.9582C100.161 40.0562 98.1447 42.1543 94.3675 42.1543C91.1664 42.1543 89.6299 40.605 89.6299 38.9588C89.6299 38.1519 90.014 37.0222 91.3264 36.2475C92.7029 35.4083 94.5595 35.2792 95.5519 35.2146C95.2317 34.8273 94.8796 34.4077 94.8796 33.6976C94.8796 33.3103 94.9757 33.0843 95.1037 32.8261C94.8476 32.8584 94.6235 32.8584 94.3995 32.8584C92.0627 32.8584 90.7503 31.1154 90.7503 29.3724C90.7503 28.3396 91.1984 27.2099 92.1587 26.4029C93.4071 25.3701 94.9116 25.1764 96.096 25.1764H100.642L99.2331 25.9833H97.8246ZM96.2561 35.8602C96.064 35.8279 95.968 35.8279 95.7439 35.8279C95.5519 35.8279 94.3675 35.8602 93.4391 36.183C92.959 36.3444 91.5505 36.8931 91.5505 38.4747C91.5505 40.0562 93.087 41.186 95.4238 41.186C97.5365 41.186 98.6569 40.1531 98.6569 38.7974C98.6569 37.6677 97.9527 37.0545 96.2561 35.8602ZM96.8963 31.6319C97.4085 31.1154 97.4405 30.4053 97.4405 30.018C97.4405 28.4041 96.4802 25.9188 94.6556 25.9188C94.0794 25.9188 93.4712 26.2093 93.119 26.6611C92.7349 27.113 92.6389 27.7263 92.6389 28.3073C92.6389 29.7921 93.5032 32.2774 95.3918 32.2774C95.968 32.2774 96.5442 31.9869 96.8963 31.6319Z" fill="#F9F9F9"/>
<path d="M83.9325 35.5051C80.4433 35.5051 78.5547 32.7615 78.5547 30.2762C78.5547 27.3712 80.9235 24.8859 84.2526 24.8859C87.4857 24.8859 89.5023 27.4358 89.5023 30.1148C89.5344 32.7293 87.5177 35.5051 83.9325 35.5051ZM86.6854 33.6976C87.2296 32.9875 87.3576 32.0837 87.3576 31.2445C87.3576 29.2756 86.4293 25.5637 83.7084 25.5637C82.9722 25.5637 82.2679 25.8542 81.7237 26.3061C80.8595 27.0807 80.6994 28.049 80.6994 29.0174C80.6994 31.2122 81.7878 34.8273 84.4447 34.8273C85.3089 34.8596 86.1732 34.4077 86.6854 33.6976Z" fill="#F9F9F9"/>
<path d="M71.992 35.5051C68.5029 35.5051 66.6143 32.7615 66.6143 30.2762C66.6143 27.3712 68.983 24.8859 72.3121 24.8859C75.5452 24.8859 77.5619 27.4358 77.5619 30.1148C77.5939 32.7293 75.5772 35.5051 71.992 35.5051ZM74.745 33.6976C75.2891 32.9875 75.4172 32.0837 75.4172 31.2445C75.4172 29.2756 74.4889 25.5637 71.768 25.5637C71.0317 25.5637 70.3275 25.8542 69.7833 26.3061C68.919 27.0807 68.759 28.049 68.759 29.0174C68.759 31.2122 69.8473 34.8273 72.5042 34.8273C73.3685 34.8596 74.2328 34.4077 74.745 33.6976Z" fill="#F9F9F9"/>
<path d="M64.9498 35.15L61.7807 35.8924C60.5003 36.0861 59.3479 36.2798 58.1315 36.2798C52.0174 36.2798 49.6807 31.7609 49.6807 28.2104C49.6807 23.8853 52.9778 19.8506 58.6116 19.8506C59.796 19.8506 60.9484 20.0443 62.0048 20.3347C63.6693 20.8189 64.4376 21.3999 64.9178 21.7227L63.0931 23.4979L62.3249 23.6916L62.8691 22.7878C62.1008 22.0454 60.7564 20.6898 58.1315 20.6898C54.6423 20.6898 51.9854 23.3688 51.9854 27.2744C51.9854 31.4704 54.9944 35.4083 59.8281 35.4083C61.2365 35.4083 61.9728 35.1178 62.645 34.8596V31.2445L59.3159 31.4382L61.0765 30.4698H65.782L65.2058 31.0185C65.0458 31.1477 65.0138 31.2122 64.9818 31.3736C64.9498 31.5673 64.9498 32.2128 64.9498 32.4388V35.15Z" fill="#F9F9F9"/>
<path d="M104.835 34.5045C104.099 34.44 103.939 34.3109 103.939 33.4394V33.1812V20.8189C103.939 20.7867 103.939 20.7221 103.939 20.6898C104.035 19.9152 104.259 19.7861 104.931 19.3665H101.794L100.13 20.1734H101.826V33.2134V33.9558C101.826 34.4077 101.73 34.4723 101.218 35.1501H105.124L105.956 34.6659C105.572 34.6014 105.22 34.5691 104.835 34.5045Z" fill="#F9F9F9"/>
<path d="M113.83 34.7305C113.574 34.8596 113.349 35.021 113.093 35.1178C112.357 35.4406 111.621 35.5374 110.949 35.5374C110.244 35.5374 109.156 35.5052 108.036 34.666C106.467 33.5685 105.795 31.6642 105.795 29.9857C105.795 26.5643 108.58 24.8536 110.821 24.8536C111.621 24.8536 112.421 25.0473 113.093 25.4669C114.182 26.2093 114.47 27.1453 114.63 27.6618L109.476 29.7921L107.78 29.9212C108.324 32.7293 110.212 34.3755 112.325 34.3755C113.445 34.3755 114.246 33.9881 115.014 33.6008L113.83 34.7305ZM111.781 28.1137C112.197 27.9523 112.421 27.8232 112.421 27.5004C112.421 26.6289 111.429 25.596 110.244 25.596C109.348 25.596 107.716 26.2738 107.716 28.6624C107.716 29.0497 107.748 29.437 107.78 29.8244L111.781 28.1137Z" fill="#F9F9F9"/>
<path d="M115.975 25.0473V26.4997H115.783V25.0473H115.303V24.8859H116.423V25.0473H115.975Z" fill="#F9F9F9"/>
<path d="M117.928 26.4997V25.015L117.479 26.4997H117.351L116.903 25.015V26.4997H116.743V24.8859H117.031L117.447 26.177L117.864 24.8859H118.152V26.4997H117.928Z" fill="#F9F9F9"/>
<path d="M54.0976 15.4923H53.0092C53.0092 15.331 52.9132 14.9113 52.6891 14.2012H51.0886C50.8645 14.9113 50.7685 15.331 50.7685 15.4923H49.7441C49.7441 15.3955 50.0002 14.6531 50.5444 13.2652C51.0886 11.8773 51.3447 11.1026 51.3447 10.9735H52.6571C52.6571 11.1026 52.9132 11.845 53.3934 13.2329C53.8415 14.6208 54.0976 15.3632 54.0976 15.4923ZM52.4971 13.5234C52.1129 12.3292 51.9209 11.6836 51.9209 11.5868H51.8568C51.8568 11.6836 51.6648 12.3292 51.2486 13.5234H52.4971Z" fill="#F9F9FA"/>
<path d="M58.5152 15.4925H57.6509C57.6509 15.3957 57.3308 14.9115 56.6906 13.9755C56.0184 13.0072 55.6663 12.3616 55.5702 12.0066H55.5062C55.5702 12.523 55.6022 12.9749 55.6022 13.3945C55.6022 13.9755 55.6022 14.6533 55.6663 15.4925H54.834C54.866 14.7824 54.898 13.9755 54.898 13.1363C54.898 12.2971 54.866 11.587 54.834 10.9737H55.8583C55.8583 11.1028 56.1464 11.587 56.7226 12.4262C57.3308 13.3299 57.6829 13.9432 57.7469 14.266H57.811C57.747 13.7495 57.7149 13.2977 57.7149 12.878C57.7149 12.2648 57.6829 11.6192 57.6509 10.9414H58.5152C58.4832 11.5224 58.4512 12.2325 58.4512 13.104C58.4832 14.0078 58.4832 14.7824 58.5152 15.4925Z" fill="#F9F9FA"/>
<path d="M63.5085 13.0715C63.5085 13.7171 63.2844 14.2981 62.8683 14.7822C62.4521 15.2664 61.8759 15.5246 61.1077 15.5246C60.7556 15.5246 60.3074 15.5246 59.6992 15.4923C59.7312 14.7822 59.7312 14.0076 59.7312 13.1361C59.7312 12.2969 59.7312 11.5868 59.6992 10.9735H60.3074C60.4035 10.9735 60.5635 10.9735 60.7556 10.9735C60.9476 10.9735 61.0757 10.9735 61.1397 10.9735C61.972 10.9735 62.5802 11.1672 62.9323 11.5868C63.3164 12.0064 63.5085 12.4905 63.5085 13.0715ZM62.5482 13.2329C62.5482 12.781 62.4201 12.426 62.164 12.1032C61.908 11.8127 61.5238 11.6513 60.9796 11.6513C60.8836 11.6513 60.7556 11.6513 60.5635 11.6836C60.5955 12.1355 60.5955 12.6197 60.5955 13.1361C60.5955 13.6848 60.5955 14.2335 60.6275 14.7822C60.7876 14.8145 60.9156 14.8145 61.0757 14.8145C61.5558 14.8145 61.94 14.6531 62.164 14.3626C62.4521 14.0399 62.5482 13.6848 62.5482 13.2329Z" fill="#F9F9FA"/>
<path d="M68.086 15.4923H67.0616C66.8055 14.6854 66.5815 14.169 66.4534 13.9753C66.3254 13.7816 66.0693 13.6848 65.7812 13.6848C65.6531 13.6848 65.5251 13.6848 65.3971 13.6848C65.3971 14.2658 65.3971 14.8791 65.4291 15.4923H64.4688C64.5008 14.7822 64.5008 14.0076 64.5008 13.1361C64.5008 12.2969 64.5008 11.5868 64.4688 10.9735H65.077C65.141 10.9735 65.301 10.9735 65.4931 10.9735C65.7172 10.9735 65.9092 10.9735 66.1013 10.9735C67.1577 10.9735 67.6698 11.3286 67.6698 12.0709C67.6698 12.6519 67.3817 13.0393 66.7735 13.2652V13.3298C66.9976 13.3943 67.2217 13.588 67.3817 13.8785C67.5738 14.1367 67.7979 14.6854 68.086 15.4923ZM66.8055 12.2969C66.8055 11.845 66.5174 11.6191 65.9092 11.6191C65.6852 11.6191 65.4931 11.6191 65.333 11.6836C65.3651 12.0387 65.3651 12.5228 65.3651 13.0715C65.4931 13.0715 65.5891 13.0715 65.6852 13.0715C66.4534 13.0715 66.8055 12.8133 66.8055 12.2969Z" fill="#F9F9FA"/>
<path d="M73.0156 13.1691C73.0156 13.8792 72.7915 14.4602 72.3754 14.9444C71.9592 15.3963 71.415 15.6545 70.7748 15.6545C70.1666 15.6545 69.6544 15.4285 69.2703 15.0089C68.8542 14.5893 68.6621 14.0406 68.6621 13.3628C68.6621 12.6527 68.8862 12.0717 69.3023 11.5875C69.7185 11.1357 70.2626 10.8774 70.9029 10.8774C71.5111 10.8774 72.0232 11.1034 72.4074 11.523C72.8235 11.9426 73.0156 12.4913 73.0156 13.1691ZM72.0873 13.266C72.0873 12.7818 71.9592 12.3945 71.7351 12.104C71.4791 11.8135 71.191 11.6521 70.8388 11.6521C70.5187 11.6521 70.2306 11.8135 69.9746 12.104C69.7505 12.3945 69.6224 12.7818 69.6224 13.266C69.6224 13.7501 69.7505 14.1375 70.0066 14.4279C70.2626 14.7184 70.5507 14.8798 70.9029 14.8798C71.223 14.8798 71.5111 14.7184 71.7671 14.4279C71.9592 14.1052 72.0873 13.7178 72.0873 13.266Z" fill="#F9F9FA"/>
<path d="M74.9681 15.4923H74.0078C74.0398 14.7822 74.0398 13.9753 74.0398 13.1361C74.0398 12.2969 74.0398 11.5868 74.0078 10.9735H74.9681C74.9361 11.5545 74.9361 12.2646 74.9361 13.1361C74.9361 14.0076 74.9361 14.7822 74.9681 15.4923Z" fill="#F9F9FA"/>
<path d="M79.9626 13.0715C79.9626 13.7171 79.7385 14.2981 79.3224 14.7822C78.9062 15.2664 78.33 15.5246 77.5618 15.5246C77.2097 15.5246 76.7615 15.5246 76.1533 15.4923C76.1853 14.7822 76.1853 14.0076 76.1853 13.1361C76.1853 12.2969 76.1853 11.5868 76.1533 10.9735H76.7615C76.8576 10.9735 77.0176 10.9735 77.2097 10.9735C77.4017 10.9735 77.5298 10.9735 77.5938 10.9735C78.4261 10.9735 79.0343 11.1672 79.3864 11.5868C79.7705 12.0064 79.9626 12.4905 79.9626 13.0715ZM79.0023 13.2329C79.0023 12.781 78.8742 12.426 78.6181 12.1032C78.3621 11.8127 77.9779 11.6513 77.4337 11.6513C77.3377 11.6513 77.2097 11.6513 77.0176 11.6836C77.0496 12.1355 77.0496 12.6197 77.0496 13.1361C77.0496 13.6848 77.0496 14.2335 77.0816 14.7822C77.2417 14.8145 77.3697 14.8145 77.5298 14.8145C78.0099 14.8145 78.3941 14.6531 78.6181 14.3626C78.9062 14.0399 79.0023 13.6848 79.0023 13.2329Z" fill="#F9F9FA"/>
<path d="M86.5566 15.4923H85.4682C85.4682 15.331 85.3722 14.9113 85.1481 14.2012H83.5476C83.3235 14.9113 83.2275 15.331 83.2275 15.4923H82.2031C82.2031 15.3955 82.4592 14.6531 83.0034 13.2652C83.5476 11.8773 83.8037 11.1026 83.8037 10.9735H85.1161C85.1161 11.1026 85.3722 11.845 85.8523 13.2329C86.3325 14.6208 86.5566 15.3632 86.5566 15.4923ZM84.988 13.5234C84.6039 12.3292 84.4119 11.6836 84.4119 11.5868H84.3478C84.3478 11.6836 84.1558 12.3292 83.7396 13.5234H84.988Z" fill="#F9F9FA"/>
<path d="M90.5893 12.1678C90.5893 12.7165 90.3972 13.1361 89.9811 13.3943C89.565 13.6525 89.0848 13.7816 88.4766 13.7816C88.3806 13.7816 88.2845 13.7816 88.2525 13.7816C88.2525 14.2012 88.2525 14.7822 88.2845 15.4923H87.3242C87.3562 14.8145 87.3562 14.0399 87.3562 13.1361C87.3562 12.2969 87.3562 11.5868 87.3242 10.9735H87.9324C88.0285 10.9735 88.1885 10.9735 88.4126 10.9735C88.6687 10.9735 88.8607 10.9735 89.0528 10.9735C89.501 10.9735 89.8531 11.0703 90.1412 11.264C90.4293 11.4577 90.5893 11.7482 90.5893 12.1678ZM89.693 12.3614C89.693 11.8773 89.3729 11.6191 88.7007 11.6191C88.5406 11.6191 88.3806 11.6513 88.1885 11.6836C88.2205 12.1355 88.2205 12.6197 88.2205 13.1684C88.2845 13.1684 88.3486 13.1684 88.4126 13.1684C89.2769 13.1684 89.693 12.8779 89.693 12.3614Z" fill="#F9F9FA"/>
<path d="M94.687 12.1678C94.687 12.7165 94.4949 13.1361 94.0788 13.3943C93.6626 13.6525 93.1825 13.7816 92.5743 13.7816C92.4782 13.7816 92.3822 13.7816 92.3502 13.7816C92.3502 14.2012 92.3502 14.7822 92.3822 15.4923H91.4219C91.4539 14.8145 91.4539 14.0399 91.4539 13.1361C91.4539 12.2969 91.4539 11.5868 91.4219 10.9735H92.0301C92.1261 10.9735 92.2862 10.9735 92.5102 10.9735C92.7663 10.9735 92.9584 10.9735 93.1505 10.9735C93.5986 10.9735 93.9507 11.0703 94.2388 11.264C94.5589 11.4577 94.687 11.7482 94.687 12.1678ZM93.8227 12.3614C93.8227 11.8773 93.5026 11.6191 92.8303 11.6191C92.6703 11.6191 92.5102 11.6513 92.3182 11.6836C92.3502 12.1355 92.3502 12.6197 92.3502 13.1684C92.4142 13.1684 92.4782 13.1684 92.5423 13.1684C93.4065 13.1684 93.8227 12.8779 93.8227 12.3614Z" fill="#F9F9FA"/>
<path d="M101.441 13.1691C101.441 13.8792 101.217 14.4602 100.801 14.9444C100.385 15.4285 99.8408 15.6545 99.2006 15.6545C98.5924 15.6545 98.0802 15.4285 97.6961 15.0089C97.28 14.5893 97.0879 14.0406 97.0879 13.3628C97.0879 12.6527 97.312 12.0717 97.7281 11.5875C98.1442 11.1357 98.6884 10.8774 99.3286 10.8774C99.9369 10.8774 100.449 11.1034 100.833 11.523C101.249 11.9426 101.441 12.4913 101.441 13.1691ZM100.481 13.266C100.481 12.7818 100.353 12.3945 100.129 12.104C99.8728 11.8135 99.5847 11.6521 99.2326 11.6521C98.9125 11.6521 98.6244 11.8135 98.3683 12.104C98.1442 12.3945 98.0162 12.7818 98.0162 13.266C98.0162 13.7501 98.1442 14.1375 98.4003 14.4279C98.6564 14.7184 98.9445 14.8798 99.2966 14.8798C99.6168 14.8798 99.9048 14.7184 100.161 14.4279C100.385 14.1052 100.481 13.7178 100.481 13.266Z" fill="#F9F9FA"/>
<path d="M106.115 15.4925H105.251C105.251 15.3957 104.93 14.9115 104.29 13.9755C103.618 13.0072 103.266 12.3616 103.17 12.0066H103.106C103.17 12.523 103.202 12.9749 103.202 13.3945C103.202 13.9755 103.202 14.6533 103.266 15.4925H102.434C102.466 14.7824 102.498 13.9755 102.498 13.1363C102.498 12.2971 102.466 11.587 102.434 10.9737H103.458C103.458 11.1028 103.746 11.587 104.322 12.4262C104.93 13.3299 105.283 13.9432 105.347 14.266H105.411C105.347 13.7495 105.315 13.2977 105.315 12.878C105.315 12.2648 105.315 11.6192 105.251 10.9414H106.115C106.083 11.5224 106.051 12.2325 106.051 13.104C106.051 14.0078 106.083 14.7824 106.115 15.4925Z" fill="#F9F9FA"/>
</g>
<defs>
<linearGradient id="paint0_linear" x1="21.4251" y1="10.3969" x2="21.4251" y2="46.968" gradientUnits="userSpaceOnUse">
<stop stop-color="#257CB0"/>
<stop offset="0.2863" stop-color="#4A93B5"/>
<stop offset="0.767" stop-color="#78BCBB"/>
<stop offset="1" stop-color="#89CFBD"/>
</linearGradient>
<linearGradient id="paint1_linear" x1="12.2807" y1="19.4732" x2="35.4819" y2="19.4732" gradientUnits="userSpaceOnUse">
<stop stop-color="#52C1AD"/>
<stop offset="1" stop-color="#DEE89A"/>
</linearGradient>
<linearGradient id="paint2_linear" x1="23.8811" y1="28.6827" x2="23.8811" y2="47.101" gradientUnits="userSpaceOnUse">
<stop stop-color="#EC413D"/>
<stop offset="0.1668" stop-color="#DA4452"/>
<stop offset="0.5748" stop-color="#B0487A"/>
<stop offset="0.8619" stop-color="#954A92"/>
<stop offset="1" stop-color="#8A4A9D"/>
</linearGradient>
<linearGradient id="paint3_linear" x1="37.2443" y1="23.7711" x2="37.2443" y2="33.5936" gradientUnits="userSpaceOnUse">
<stop stop-color="#F58879"/>
<stop offset="0.1194" stop-color="#F69079"/>
<stop offset="0.7128" stop-color="#FCB877"/>
<stop offset="1" stop-color="#FEC874"/>
</linearGradient>
<clipPath id="clip0">
<rect width="163.735" height="54" fill="white"/>
</clipPath>
</defs>
</svg>
