<svg width="365" height="338" viewBox="0 0 365 338" fill="none" xmlns="http://www.w3.org/2000/svg">
<g clip-path="url(#clip0)">
<g opacity="0.7">
<path opacity="0.7" d="M359.676 41.0649L208.749 16.2005L177.794 204.22L328.721 229.085L359.676 41.0649Z" fill="#B0DDFF"/>
<path opacity="0.7" d="M295.623 63.3602L225.298 51.754C223.404 51.3987 222.102 49.6222 222.339 47.7274C222.694 45.8325 224.47 44.5297 226.364 44.7666L296.688 56.3728C298.582 56.7281 299.885 58.5045 299.648 60.3994C299.411 62.2943 297.517 63.597 295.623 63.3602Z" fill="white"/>
<path opacity="0.7" d="M330.548 69.0449L310.895 65.8472C309.001 65.492 307.698 63.7155 307.935 61.8206C308.29 59.9257 310.066 58.623 311.961 58.8599L331.613 62.0575C333.508 62.4128 334.81 64.1892 334.573 66.0841C334.336 68.0974 332.442 69.4002 330.548 69.0449Z" fill="white"/>
<path opacity="0.7" d="M292.426 82.5459L222.102 70.9397C220.208 70.5844 218.905 68.808 219.142 66.9131C219.497 65.0182 221.273 63.7155 223.167 63.9523L293.492 75.5585C295.386 75.9138 296.688 77.6902 296.451 79.5851C296.215 81.5984 294.32 82.9012 292.426 82.5459Z" fill="white"/>
<path opacity="0.7" d="M327.351 88.349L307.698 85.1514C305.804 84.7961 304.502 83.0197 304.739 81.1248C305.094 79.2299 306.87 77.9271 308.764 78.164L328.417 81.3616C330.311 81.7169 331.613 83.4934 331.377 85.3883C331.14 87.2831 329.364 88.5859 327.351 88.349Z" fill="white"/>
<path opacity="0.7" d="M289.229 101.732L218.905 90.1254C217.011 89.7701 215.708 87.9936 215.945 86.0988C216.3 84.2039 218.076 82.9011 219.971 83.138L290.295 94.7442C292.189 95.0995 293.491 96.8759 293.255 98.7708C293.018 100.784 291.242 102.087 289.229 101.732Z" fill="white"/>
<path opacity="0.7" d="M324.273 107.535L304.62 104.337C302.726 103.982 301.424 102.205 301.661 100.31C302.016 98.4155 303.792 97.1128 305.686 97.3497L325.339 100.547C327.233 100.903 328.535 102.679 328.299 104.574C327.943 106.587 326.168 107.89 324.273 107.535Z" fill="white"/>
<path opacity="0.7" d="M286.151 121.036L215.827 109.43C213.933 109.074 212.63 107.298 212.867 105.403C213.222 103.508 214.998 102.205 216.892 102.442L287.217 114.048C289.111 114.404 290.413 116.18 290.177 118.075C289.821 119.97 288.046 121.273 286.151 121.036Z" fill="white"/>
<path opacity="0.7" d="M321.077 126.72L301.424 123.523C299.53 123.167 298.227 121.391 298.464 119.496C298.819 117.601 300.595 116.298 302.489 116.535L322.142 119.733C324.037 120.088 325.339 121.865 325.102 123.76C324.865 125.773 322.971 127.076 321.077 126.72Z" fill="white"/>
<path opacity="0.7" d="M282.955 140.221L212.63 128.615C210.736 128.26 209.434 126.484 209.671 124.589C210.026 122.694 211.802 121.391 213.696 121.628L284.02 133.234C285.914 133.589 287.217 135.366 286.98 137.261C286.743 139.274 284.849 140.577 282.955 140.221Z" fill="white"/>
<path opacity="0.7" d="M317.88 146.025L298.227 142.827C296.333 142.472 295.031 140.695 295.268 138.8C295.623 136.905 297.399 135.603 299.293 135.84L318.946 139.037C320.84 139.392 322.142 141.169 321.906 143.064C321.669 144.959 319.893 146.261 317.88 146.025Z" fill="white"/>
<path opacity="0.7" d="M279.758 159.407L209.434 147.801C207.54 147.446 206.237 145.669 206.474 143.774C206.829 141.879 208.605 140.577 210.499 140.814L280.824 152.42C282.718 152.775 284.02 154.552 283.784 156.446C283.547 158.46 281.652 159.762 279.758 159.407Z" fill="white"/>
<path opacity="0.7" d="M314.802 165.21L295.149 162.013C293.255 161.657 291.953 159.881 292.189 157.986C292.545 156.091 294.32 154.788 296.215 155.025L315.868 158.223C317.762 158.578 319.064 160.355 318.827 162.249C318.472 164.263 316.696 165.566 314.802 165.21Z" fill="white"/>
<path opacity="0.7" d="M276.443 179.659L206.119 168.053C204.225 167.697 202.922 165.921 203.159 164.026C203.514 162.131 205.29 160.828 207.184 161.065L277.509 172.671C279.403 173.027 280.705 174.803 280.469 176.698C280.232 178.711 278.338 180.014 276.443 179.659Z" fill="white"/>
<path opacity="0.7" d="M311.369 185.462L291.716 182.264C289.822 181.909 288.519 180.132 288.756 178.238C289.111 176.343 290.887 175.04 292.781 175.277L312.434 178.474C314.329 178.83 315.631 180.606 315.394 182.501C315.157 184.396 313.381 185.699 311.369 185.462Z" fill="white"/>
<path opacity="0.7" d="M306.396 216.254L286.98 213.056C285.086 212.701 283.783 210.924 284.02 209.029C284.375 207.135 286.151 205.832 288.046 206.069L307.462 209.266C309.356 209.622 310.658 211.398 310.421 213.293C310.066 215.306 308.29 216.609 306.396 216.254Z" fill="white"/>
<path opacity="0.7" d="M240.808 205.477L201.028 198.963C199.134 198.608 197.832 196.831 198.068 194.936C198.423 193.041 200.199 191.739 202.094 191.975L241.873 198.489C243.767 198.844 245.07 200.621 244.833 202.516C244.478 204.529 242.702 205.832 240.808 205.477Z" fill="white"/>
<path opacity="0.7" d="M328.772 229.163C328.772 228.926 328.891 228.807 328.891 228.57L177.823 203.7L177.468 205.595C176.521 214.951 182.559 223.596 191.557 225.965V226.083L342.624 250.954V250.835C333.271 248.348 327.115 239.111 328.772 229.163Z" fill="#B0DDFF"/>
<path opacity="0.7" d="M328.535 234.492C329.483 242.782 335.876 249.888 344.518 251.309C353.161 252.73 361.448 248.111 365 240.532L328.535 234.492Z" fill="#6CB8FF"/>
</g>
<g opacity="0.6">
<path opacity="0.6" d="M148.706 15.6566L0.0578613 51.7521L44.9948 236.933L193.643 200.837L148.706 15.6566Z" fill="#B0DDFF"/>
<path opacity="0.6" d="M98.3829 61.2285L29.1241 78.0456C27.2298 78.5193 25.3356 77.335 24.862 75.4401C24.3884 73.5452 25.5723 71.6503 27.4666 71.1766L96.7254 54.3595C98.6197 53.8858 100.514 55.0701 100.988 56.965C101.461 58.8599 100.277 60.7548 98.3829 61.2285Z" fill="white"/>
<path opacity="0.6" d="M132.835 52.9383L113.419 57.6755C111.525 58.1493 109.63 56.9649 109.157 55.0701C108.683 53.1752 109.867 51.2803 111.761 50.8066L131.177 46.0694C133.072 45.5956 134.966 46.7799 135.44 48.6748C135.913 50.4513 134.729 52.4646 132.835 52.9383Z" fill="white"/>
<path opacity="0.6" d="M103 80.1773L33.6231 96.9944C31.7288 97.4681 29.8346 96.2838 29.361 94.3889C28.8875 92.494 30.0714 90.5991 31.9656 90.1254L101.224 73.3083C103.119 72.8346 105.013 74.0189 105.487 75.9138C106.078 77.8087 104.895 79.7035 103 80.1773Z" fill="white"/>
<path opacity="0.6" d="M137.452 71.7687L118.036 76.5059C116.142 76.9796 114.247 75.7953 113.774 73.9005C113.3 72.0056 114.484 70.1107 116.378 69.637L135.795 64.8997C137.689 64.426 139.583 65.6103 140.057 67.5052C140.53 69.4001 139.346 71.4134 137.452 71.7687Z" fill="white"/>
<path opacity="0.6" d="M107.618 99.1261L38.2403 115.943C36.346 116.417 34.4518 115.233 33.9782 113.338C33.5046 111.443 34.6885 109.548 36.5828 109.074L105.842 92.2572C107.736 91.7834 109.63 92.9677 110.104 94.8626C110.696 96.7575 109.512 98.6524 107.618 99.1261Z" fill="white"/>
<path opacity="0.6" d="M142.069 90.7176L122.653 95.4548C120.759 95.9285 118.865 94.7442 118.391 92.8494C117.917 90.9545 119.101 89.0596 120.996 88.5859L140.412 83.8487C142.306 83.3749 144.2 84.5592 144.674 86.4541C145.029 88.349 143.964 90.2439 142.069 90.7176Z" fill="white"/>
<path opacity="0.6" d="M112.116 118.075L42.8575 134.892C40.9632 135.366 39.069 134.181 38.5954 132.287C38.1218 130.392 39.3057 128.497 41.2 128.023L110.459 111.206C112.353 110.732 114.247 111.917 114.721 113.811C115.194 115.706 114.011 117.601 112.116 118.075Z" fill="white"/>
<path opacity="0.6" d="M146.568 109.666L127.152 114.404C125.258 114.877 123.364 113.693 122.89 111.798C122.417 109.903 123.6 108.008 125.495 107.535L144.911 102.798C146.805 102.324 148.699 103.508 149.173 105.403C149.646 107.298 148.463 109.193 146.568 109.666Z" fill="white"/>
<path opacity="0.6" d="M116.733 137.024L47.4747 153.841C45.5804 154.315 43.6861 153.13 43.2126 151.235C42.739 149.341 43.9229 147.446 45.8172 146.972L115.076 130.155C116.97 129.681 118.865 130.865 119.338 132.76C119.812 134.655 118.628 136.55 116.733 137.024Z" fill="white"/>
<path opacity="0.6" d="M151.185 128.615L131.769 133.353C129.875 133.826 127.981 132.642 127.507 130.747C127.034 128.852 128.218 126.957 130.112 126.484L149.528 121.746C151.422 121.273 153.317 122.457 153.79 124.352C154.264 126.247 153.08 128.142 151.185 128.615Z" fill="white"/>
<path opacity="0.6" d="M121.351 155.973L52.0921 172.79C50.1978 173.263 48.3036 172.079 47.83 170.184C47.3564 168.289 48.5404 166.395 50.4346 165.921L119.693 149.104C121.588 148.63 123.482 149.814 123.956 151.709C124.429 153.486 123.245 155.499 121.351 155.973Z" fill="white"/>
<path opacity="0.6" d="M155.803 147.564L136.387 152.301C134.492 152.775 132.598 151.591 132.124 149.696C131.651 147.801 132.835 145.906 134.729 145.432L154.145 140.695C156.039 140.221 157.934 141.406 158.407 143.301C158.881 145.196 157.697 147.09 155.803 147.564Z" fill="white"/>
<path opacity="0.6" d="M126.205 175.869L56.8277 192.686C54.9334 193.16 53.0392 191.975 52.5656 190.081C52.092 188.186 53.2759 186.291 55.1702 185.817L124.429 169C126.323 168.526 128.218 169.711 128.691 171.605C129.283 173.382 128.099 175.395 126.205 175.869Z" fill="white"/>
<path opacity="0.6" d="M160.657 167.46L141.241 172.198C139.346 172.671 137.452 171.487 136.978 169.592C136.505 167.697 137.689 165.802 139.583 165.329L158.999 160.591C160.893 160.118 162.788 161.302 163.261 163.197C163.735 165.092 162.551 166.987 160.657 167.46Z" fill="white"/>
<path opacity="0.6" d="M167.997 197.897L148.818 202.516C146.923 202.99 145.029 201.805 144.556 199.91C144.082 198.015 145.266 196.121 147.16 195.647L166.34 191.028C168.234 190.554 170.128 191.739 170.602 193.634C171.075 195.41 169.891 197.423 167.997 197.897Z" fill="white"/>
<path opacity="0.6" d="M103.474 213.53L64.2864 223.004C62.3922 223.478 60.4979 222.294 60.0243 220.399C59.5508 218.504 60.7347 216.609 62.629 216.135L101.816 206.661C103.711 206.187 105.605 207.371 106.079 209.266C106.434 211.161 105.368 213.056 103.474 213.53Z" fill="white"/>
<path opacity="0.6" d="M193.688 200.976C193.688 200.739 193.569 200.621 193.569 200.384L44.8701 236.505L45.3437 238.4C48.1851 247.401 57.0644 252.967 66.2989 251.664V251.783L214.998 215.543V215.425C205.409 216.846 196.056 210.687 193.688 200.976Z" fill="#B0DDFF"/>
<path opacity="0.6" d="M195.582 205.95C199.726 213.293 208.25 217.201 216.774 215.188C225.298 213.056 231.1 205.595 231.455 197.305L195.582 205.95Z" fill="#6CB8FF"/>
</g>
<path d="M290.887 306.853H71.3899C64.8784 306.853 59.5508 301.523 59.5508 295.01V154.907C59.5508 148.393 64.8784 143.064 71.3899 143.064H290.887C297.399 143.064 302.726 148.393 302.726 154.907V295.01C302.726 301.523 297.517 306.853 290.887 306.853Z" fill="#B0DDFF"/>
<path d="M253.12 338H109.157C103.592 338 99.0935 333.5 99.0935 327.933C99.0935 322.367 103.592 317.867 109.157 317.867H253.002C258.566 317.867 263.065 322.367 263.065 327.933C263.184 333.5 258.685 338 253.12 338Z" fill="#B0DDFF"/>
<path d="M217.958 300.458H144.319V320.591H217.958V300.458Z" fill="#B0DDFF"/>
<path d="M286.151 159.526H76.0071V290.391H286.151V159.526Z" fill="#E7F5FF"/>
<path d="M181.138 256.52L138.754 223.715H223.641L181.138 256.52Z" fill="#FFC6C0"/>
<path d="M204.817 207.727H157.46V225.491H204.817V207.727Z" fill="#FFC6C0"/>
<path d="M241.636 0H88.6748V190.554H241.636V0Z" fill="#B0DDFF"/>
<path d="M182.085 32.4499H110.696C108.801 32.4499 107.144 30.9103 107.144 28.897C107.144 27.0021 108.683 25.3441 110.696 25.3441H181.967C183.861 25.3441 185.519 26.8836 185.519 28.897C185.637 30.7918 183.98 32.4499 182.085 32.4499Z" fill="white"/>
<path d="M217.484 32.4499H197.595C195.7 32.4499 194.043 30.9103 194.043 28.897C194.043 27.0021 195.7 25.3441 197.595 25.3441H217.484C219.379 25.3441 221.036 26.8836 221.036 28.897C221.036 30.7918 219.379 32.4499 217.484 32.4499Z" fill="white"/>
<path d="M182.085 51.8725H110.696C108.801 51.8725 107.144 50.3329 107.144 48.3196C107.144 46.3063 108.683 44.7667 110.696 44.7667H181.967C183.861 44.7667 185.519 46.3063 185.519 48.3196C185.637 50.3329 183.98 51.8725 182.085 51.8725Z" fill="white"/>
<path d="M217.484 51.8725H197.595C195.7 51.8725 194.043 50.3329 194.043 48.3196C194.043 46.4247 195.7 44.7667 197.595 44.7667H217.484C219.379 44.7667 221.036 46.3063 221.036 48.3196C221.036 50.3329 219.379 51.8725 217.484 51.8725Z" fill="white"/>
<path d="M182.085 71.4134H110.696C108.801 71.4134 107.144 69.8738 107.144 67.8605C107.144 65.9656 108.683 64.3076 110.696 64.3076H181.967C183.861 64.3076 185.519 65.8472 185.519 67.8605C185.637 69.7554 183.98 71.4134 182.085 71.4134Z" fill="white"/>
<path d="M217.484 71.4134H197.595C195.7 71.4134 194.043 69.8738 194.043 67.8605C194.043 65.8472 195.7 64.3076 197.595 64.3076H217.484C219.379 64.3076 221.036 65.8472 221.036 67.8605C221.036 69.7554 219.379 71.4134 217.484 71.4134Z" fill="white"/>
<path d="M182.085 90.836H110.696C108.801 90.836 107.144 89.2964 107.144 87.2831C107.144 85.3882 108.683 83.7302 110.696 83.7302H181.967C183.861 83.7302 185.519 85.2698 185.519 87.2831C185.637 89.2964 183.98 90.836 182.085 90.836Z" fill="white"/>
<path d="M217.484 90.836H197.595C195.7 90.836 194.043 89.2964 194.043 87.2831C194.043 85.2698 195.7 83.7302 197.595 83.7302H217.484C219.379 83.7302 221.036 85.2698 221.036 87.2831C221.036 89.2964 219.379 90.836 217.484 90.836Z" fill="white"/>
<path d="M182.085 110.377H110.696C108.801 110.377 107.144 108.837 107.144 106.824C107.144 104.929 108.683 103.271 110.696 103.271H181.967C183.861 103.271 185.519 104.811 185.519 106.824C185.637 108.719 183.98 110.377 182.085 110.377Z" fill="white"/>
<path d="M217.484 110.377H197.595C195.7 110.377 194.043 108.837 194.043 106.824C194.043 104.929 195.7 103.271 197.595 103.271H217.484C219.379 103.271 221.036 104.811 221.036 106.824C221.036 108.719 219.379 110.377 217.484 110.377Z" fill="white"/>
<path d="M182.085 129.8H110.696C108.801 129.8 107.144 128.26 107.144 126.247C107.144 124.233 108.683 122.694 110.696 122.694H181.967C183.861 122.694 185.519 124.233 185.519 126.247C185.637 128.26 183.98 129.8 182.085 129.8Z" fill="white"/>
<path d="M217.484 129.8H197.595C195.7 129.8 194.043 128.26 194.043 126.247C194.043 124.352 195.7 122.694 197.595 122.694H217.484C219.379 122.694 221.036 124.233 221.036 126.247C221.036 128.26 219.379 129.8 217.484 129.8Z" fill="white"/>
<path d="M182.085 150.288H110.696C108.801 150.288 107.144 148.748 107.144 146.735C107.144 144.84 108.683 143.182 110.696 143.182H181.967C183.861 143.182 185.519 144.722 185.519 146.735C185.637 148.748 183.98 150.288 182.085 150.288Z" fill="white"/>
<path d="M217.484 150.288H197.595C195.7 150.288 194.043 148.748 194.043 146.735C194.043 144.84 195.7 143.182 197.595 143.182H217.484C219.379 143.182 221.036 144.722 221.036 146.735C221.036 148.748 219.379 150.288 217.484 150.288Z" fill="white"/>
<path d="M217.484 181.554H197.832C195.937 181.554 194.28 180.014 194.28 178.001C194.28 176.106 195.937 174.448 197.832 174.448H217.484C219.379 174.448 221.036 176.106 221.036 178.001C221.036 180.014 219.379 181.554 217.484 181.554Z" fill="white"/>
<path d="M151.067 181.554H110.696C108.801 181.554 107.144 179.896 107.144 178.001C107.144 176.106 108.683 174.448 110.696 174.448H151.067C153.08 174.448 154.619 175.987 154.619 178.001C154.619 180.014 152.961 181.554 151.067 181.554Z" fill="white"/>
<path d="M241.755 190.673C241.755 190.436 241.755 190.317 241.755 190.081H88.6748V191.975C89.2668 201.331 96.607 208.911 105.96 209.74V209.858H259.04V209.74C249.332 208.911 241.755 200.739 241.755 190.673Z" fill="#B0DDFF"/>
<path d="M242.347 196.002C244.596 204.055 252.055 209.977 260.816 209.977C269.577 209.977 277.035 204.055 279.285 196.002H242.347Z" fill="#6CB8FF"/>
</g>
<defs>
<clipPath id="clip0">
<rect width="365" height="338" fill="white"/>
</clipPath>
</defs>
</svg>
