<svg width="521" height="421" viewBox="0 0 521 421" fill="none" xmlns="http://www.w3.org/2000/svg">
<g clip-path="url(#clip0)">
<g opacity="0.5">
<path d="M90.4745 28.6456H69.6828C68.3226 28.6456 67.2539 27.5771 67.2539 26.2171V24.8571C67.2539 23.4971 68.3226 22.4286 69.6828 22.4286H90.3774C91.7376 22.4286 92.8063 23.4971 92.8063 24.8571V26.12C92.9035 27.4799 91.8348 28.6456 90.4745 28.6456Z" fill="#FFC6C0"/>
<path d="M79.2041 44.3825H58.5095C57.1493 44.3825 56.0806 43.3139 56.0806 41.954V40.6911C56.0806 39.3311 57.1493 38.2626 58.5095 38.2626H79.2041C80.5643 38.2626 81.633 39.3311 81.633 40.6911V41.954C81.633 43.2168 80.5643 44.3825 79.2041 44.3825Z" fill="#FFC6C0"/>
<path d="M79.2041 75.7592H58.5095C57.1493 75.7592 56.0806 74.6906 56.0806 73.3307V72.0678C56.0806 70.7078 57.1493 69.6393 58.5095 69.6393H79.2041C80.5643 69.6393 81.633 70.7078 81.633 72.0678V73.3307C81.633 74.6906 80.5643 75.7592 79.2041 75.7592Z" fill="#FFC6C0"/>
<path d="M75.1235 60.0223H54.4289C53.0687 60.0223 52 58.9537 52 57.5937V56.3309C52 54.9709 53.0687 53.9023 54.4289 53.9023H75.1235C76.4837 53.9023 77.5524 54.9709 77.5524 56.3309V57.5937C77.5524 58.9537 76.4837 60.0223 75.1235 60.0223Z" fill="#FFC6C0"/>
<path d="M90.4745 91.4961H69.6828C68.3226 91.4961 67.2539 90.4276 67.2539 89.0676V87.8048C67.2539 86.4448 68.3226 85.3762 69.6828 85.3762H90.3774C91.7376 85.3762 92.8063 86.4448 92.8063 87.8048V89.0676C92.9035 90.4276 91.8348 91.4961 90.4745 91.4961Z" fill="#FFC6C0"/>
<path d="M123.702 26.1199C140.705 26.1199 154.501 39.914 154.501 56.9138C154.501 73.9135 140.705 87.8048 123.702 87.8048C106.7 87.8048 92.806 74.0107 92.806 57.0109C92.806 40.0111 106.7 26.1199 123.702 26.1199ZM123.702 20C103.299 20 86.6851 36.6112 86.6851 57.0109C86.6851 77.4106 103.299 94.0218 123.702 94.0218C144.105 94.0218 160.719 77.4106 160.719 57.0109C160.719 36.6112 144.105 20 123.702 20ZM141.676 58.468C142.259 58.5652 142.259 59.5366 141.676 59.6337C135.75 60.7023 123.022 63.0337 121.467 63.0337C119.233 63.0337 117.484 61.2851 117.484 59.0509C117.484 57.4966 119.816 42.2454 120.982 36.1255C121.079 35.5426 121.953 35.5426 122.05 36.1255L125.062 55.3595L141.676 58.468Z" fill="#FFC6C0"/>
</g>
<path d="M221.346 382.532C162.76 360.092 121.176 302.487 121.176 234.974C121.176 206.123 128.755 179.021 142.065 155.804" stroke="#D8EEFF" stroke-width="12" stroke-miterlimit="10" stroke-linecap="round"/>
<path d="M425.668 196.215C428.777 208.649 430.429 221.569 430.429 234.974C430.429 322.013 361.155 392.538 275.754 392.538" stroke="#D8EEFF" stroke-width="12" stroke-miterlimit="10" stroke-linecap="round"/>
<path d="M166.743 123.359C194.725 94.9933 233.296 77.5078 275.851 77.5078C336.963 77.5078 389.817 113.644 414.883 166.004" stroke="#D8EEFF" stroke-width="12" stroke-miterlimit="10" stroke-linecap="round"/>
<path d="M273.033 128.021C300.238 128.021 322.292 105.971 322.292 78.7706C322.292 51.5702 300.238 29.5199 273.033 29.5199C245.828 29.5199 223.774 51.5702 223.774 78.7706C223.774 105.971 245.828 128.021 273.033 128.021Z" fill="white" stroke="#D8EEFF" stroke-width="12" stroke-miterlimit="10"/>
<path d="M413.912 339.401C441.117 339.401 463.171 317.351 463.171 290.15C463.171 262.95 441.117 240.9 413.912 240.9C386.707 240.9 364.653 262.95 364.653 290.15C364.653 317.351 386.707 339.401 413.912 339.401Z" fill="white" stroke="#D8EEFF" stroke-width="12" stroke-miterlimit="10"/>
<path d="M136.235 339.401C163.44 339.401 185.494 317.351 185.494 290.15C185.494 262.95 163.44 240.9 136.235 240.9C109.03 240.9 86.9766 262.95 86.9766 290.15C86.9766 317.351 109.03 339.401 136.235 339.401Z" fill="white" stroke="#D8EEFF" stroke-width="12" stroke-miterlimit="10"/>
<path d="M338.42 151.821H212.893V322.207H338.42V151.821Z" fill="#B0DDFF"/>
<path d="M275.754 253.042L241.36 232.74V192.232L275.754 212.534V253.042Z" fill="#D8EEFF"/>
<path d="M275.656 253.042L310.05 232.74V192.232L275.656 212.534V253.042Z" fill="#E7F5FF"/>
<path d="M241.36 192.232L275.656 171.832L310.05 192.232L275.656 212.534L241.36 192.232Z" fill="white"/>
<path d="M262.734 214.769L254.282 209.814V199.906L262.734 204.86V214.769Z" fill="#B0DDFF"/>
<path d="M262.734 204.86L254.282 199.906L288.384 179.215L296.74 184.266L262.734 204.86Z" fill="#D8EEFF"/>
<path d="M307.524 272.374H242.04C240.388 272.374 239.125 271.014 239.125 269.459C239.125 267.905 240.388 266.545 242.04 266.545H307.524C309.078 266.545 310.439 267.905 310.439 269.459C310.439 271.014 309.176 272.374 307.524 272.374Z" fill="white"/>
<path d="M307.524 286.168H242.04C240.388 286.168 239.125 284.905 239.125 283.253C239.125 281.699 240.388 280.339 242.04 280.339H307.524C309.078 280.339 310.439 281.699 310.439 283.253C310.439 284.808 309.176 286.168 307.524 286.168Z" fill="white"/>
<path d="M297.42 299.962H252.241C250.59 299.962 249.327 298.602 249.327 297.048C249.327 295.493 250.59 294.133 252.241 294.133H297.42C298.974 294.133 300.334 295.396 300.334 297.048C300.334 298.602 298.974 299.962 297.42 299.962Z" fill="white"/>
<path d="M273.033 111.41C291.062 111.41 305.678 96.797 305.678 78.7706C305.678 60.7443 291.062 46.1311 273.033 46.1311C255.004 46.1311 240.388 60.7443 240.388 78.7706C240.388 96.797 255.004 111.41 273.033 111.41Z" fill="#B0DDFF"/>
<path d="M261.86 88.5819C261.666 88.0962 261.569 87.8047 261.569 86.1533V83.0448C261.569 81.1991 260.986 80.5191 259.528 80.5191H258.46V88.5819H255.351V68.765H260.014C263.22 68.765 264.581 70.2221 264.581 73.3307V74.8849C264.581 76.9249 263.9 78.2849 262.54 78.8677C264.095 79.5477 264.581 81.0048 264.581 83.0448V86.0562C264.581 87.0276 264.581 87.7076 264.872 88.4847H261.86V88.5819ZM258.46 71.5821V77.702H259.723C260.889 77.702 261.569 77.2163 261.569 75.5649V73.6221C261.569 72.165 261.083 71.5821 260.014 71.5821H258.46Z" fill="#25416D"/>
<path d="M275.948 73.6221V76.2449C275.948 79.4506 274.393 81.102 271.284 81.102H269.827V88.5819H266.718V68.765H271.284C274.49 68.765 275.948 70.4164 275.948 73.6221ZM269.827 71.5821V78.2849H271.284C272.256 78.2849 272.839 77.7992 272.839 76.4392V73.4278C272.839 71.9707 272.256 71.5821 271.284 71.5821H269.827Z" fill="#25416D"/>
<path d="M284.206 82.7534L286.344 68.6678H290.716V88.4847H287.801V74.3021L285.664 88.4847H282.749L280.417 74.4963V88.4847H277.697V68.765H282.069L284.206 82.7534Z" fill="#25416D"/>
<path d="M136.236 322.79C154.265 322.79 168.881 308.177 168.881 290.15C168.881 272.124 154.265 257.511 136.236 257.511C118.206 257.511 103.591 272.124 103.591 290.15C103.591 308.177 118.206 322.79 136.236 322.79Z" fill="#B0DDFF"/>
<path d="M128.171 285.002V287.625C128.171 290.83 126.617 292.482 123.508 292.482H122.05V299.962H118.941V280.145H123.508C126.617 280.145 128.171 281.893 128.171 285.002ZM122.05 282.962V289.665H123.508C124.479 289.665 125.062 289.179 125.062 287.819V284.808C125.062 283.351 124.479 282.962 123.508 282.962H122.05Z" fill="#25416D"/>
<path d="M138.956 285.002V287.625C138.956 290.83 137.402 292.482 134.292 292.482H132.835V299.962H129.726V280.145H134.292C137.402 280.145 138.956 281.893 138.956 285.002ZM132.835 282.962V289.665H134.292C135.264 289.665 135.847 289.179 135.847 287.819V284.808C135.847 283.351 135.264 282.962 134.292 282.962H132.835Z" fill="#25416D"/>
<path d="M147.117 294.23L149.254 280.145H153.627V299.962H150.712V285.779L148.574 299.962H145.66L143.328 285.973V299.962H140.607V280.145H144.98L147.117 294.23Z" fill="#25416D"/>
<path d="M413.912 322.79C431.941 322.79 446.556 308.177 446.556 290.15C446.556 272.124 431.941 257.511 413.912 257.511C395.882 257.511 381.267 272.124 381.267 290.15C381.267 308.177 395.882 322.79 413.912 322.79Z" fill="#B0DDFF"/>
<path d="M405.556 292.579V295.202C405.556 298.407 404.002 300.156 400.893 300.156C397.784 300.156 396.229 298.31 396.229 295.202V284.905C396.229 281.699 397.784 279.951 400.893 279.951C404.002 279.951 405.556 281.796 405.556 284.905V286.848H402.641V284.71C402.641 283.253 402.058 282.768 400.99 282.768C400.018 282.768 399.338 283.351 399.338 284.71V295.396C399.338 296.853 399.921 297.339 400.99 297.339C401.961 297.339 402.641 296.853 402.641 295.396V292.579H405.556Z" fill="#25416D"/>
<path d="M416.632 285.002V287.625C416.632 290.83 415.078 292.482 411.969 292.482H410.511V299.962H407.402V280.145H411.969C415.078 280.145 416.632 281.893 416.632 285.002ZM410.511 282.962V289.665H411.969C412.94 289.665 413.523 289.179 413.523 287.819V284.808C413.523 283.35 412.94 282.962 411.969 282.962H410.511Z" fill="#25416D"/>
<path d="M424.793 294.23L426.931 280.145H431.303V299.962H428.388V285.779L426.251 299.962H423.336L421.004 285.973V299.962H418.284V280.145H422.656L424.793 294.23Z" fill="#25416D"/>
<path d="M149.643 142.787L107.283 161.924L154.404 189.123L149.643 142.787Z" fill="#D8EEFF"/>
<path d="M249.132 392.149L289.161 363.589L288.967 421L249.132 392.149Z" fill="#D8EEFF"/>
<path d="M418.867 179.118L428.68 132.004L377.283 154.93L418.867 179.118Z" fill="#D8EEFF"/>
</g>
<g opacity="0.5">
<path d="M22.8814 96.5032H10.5163C9.70737 96.5032 9.07178 95.9262 9.07178 95.192V94.4577C9.07178 93.7234 9.70737 93.1465 10.5163 93.1465H22.8236C23.6326 93.1465 24.2682 93.7234 24.2682 94.4577V95.1395C24.326 95.8738 23.6904 96.5032 22.8814 96.5032Z" fill="#FFC6C0"/>
<path d="M16.1786 105.001H3.87128C3.06235 105.001 2.42676 104.424 2.42676 103.69V103.008C2.42676 102.273 3.06235 101.697 3.87128 101.697H16.1786C16.9875 101.697 17.6231 102.273 17.6231 103.008V103.69C17.6231 104.371 16.9875 105.001 16.1786 105.001Z" fill="#FFC6C0"/>
<path d="M16.1786 121.943H3.87128C3.06235 121.943 2.42676 121.366 2.42676 120.632V119.95C2.42676 119.216 3.06235 118.639 3.87128 118.639H16.1786C16.9875 118.639 17.6231 119.216 17.6231 119.95V120.632C17.6231 121.366 16.9875 121.943 16.1786 121.943Z" fill="#FFC6C0"/>
<path d="M13.7519 113.446H1.44452C0.63559 113.446 0 112.869 0 112.134V111.452C0 110.718 0.63559 110.141 1.44452 110.141H13.7519C14.5608 110.141 15.1964 110.718 15.1964 111.452V112.134C15.1964 112.869 14.5608 113.446 13.7519 113.446Z" fill="#FFC6C0"/>
<path d="M22.8814 130.44H10.5163C9.70737 130.44 9.07178 129.863 9.07178 129.129V128.447C9.07178 127.713 9.70737 127.136 10.5163 127.136H22.8236C23.6326 127.136 24.2682 127.713 24.2682 128.447V129.129C24.326 129.863 23.6904 130.44 22.8814 130.44Z" fill="#FFC6C0"/>
<path d="M42.6425 95.1395C52.7541 95.1395 60.959 102.588 60.959 111.767C60.959 120.946 52.7541 128.447 42.6425 128.447C32.5308 128.447 24.2681 120.999 24.2681 111.82C24.2681 102.64 32.5308 95.1395 42.6425 95.1395ZM42.6425 91.835C30.5085 91.835 20.6279 100.804 20.6279 111.82C20.6279 122.835 30.5085 131.804 42.6425 131.804C54.7764 131.804 64.657 122.835 64.657 111.82C64.657 100.804 54.7764 91.835 42.6425 91.835ZM53.3319 112.606C53.6786 112.659 53.6786 113.183 53.3319 113.236C49.8073 113.813 42.238 115.072 41.3135 115.072C39.9845 115.072 38.9445 114.128 38.9445 112.921C38.9445 112.082 40.3312 103.847 41.0246 100.542C41.0824 100.227 41.6024 100.227 41.6602 100.542L43.4514 110.928L53.3319 112.606Z" fill="#FFC6C0"/>
</g>
<g opacity="0.5">
<path d="M478.881 4.80188H466.516C465.707 4.80188 465.072 4.22489 465.072 3.49053V2.75617C465.072 2.02182 465.707 1.44482 466.516 1.44482H478.824C479.633 1.44482 480.268 2.02182 480.268 2.75617V3.43808C480.326 4.17243 479.69 4.80188 478.881 4.80188Z" fill="#FFC6C0"/>
<path d="M472.179 13.2991H459.871C459.062 13.2991 458.427 12.7221 458.427 11.9877V11.3058C458.427 10.5715 459.062 9.99451 459.871 9.99451H472.179C472.988 9.99451 473.623 10.5715 473.623 11.3058V11.9877C473.623 12.6696 472.988 13.2991 472.179 13.2991Z" fill="#FFC6C0"/>
<path d="M472.179 30.2413H459.871C459.062 30.2413 458.427 29.6643 458.427 28.9299V28.248C458.427 27.5137 459.062 26.9366 459.871 26.9366H472.179C472.988 26.9366 473.623 27.5137 473.623 28.248V28.9299C473.623 29.6643 472.988 30.2413 472.179 30.2413Z" fill="#FFC6C0"/>
<path d="M469.752 21.744H457.445C456.636 21.744 456 21.1671 456 20.4327V19.7509C456 19.0165 456.636 18.4396 457.445 18.4396H469.752C470.561 18.4396 471.196 19.0165 471.196 19.7509V20.4327C471.196 21.1671 470.561 21.744 469.752 21.744Z" fill="#FFC6C0"/>
<path d="M478.881 38.7386H466.516C465.707 38.7386 465.072 38.1617 465.072 37.4274V36.7455C465.072 36.0112 465.707 35.4342 466.516 35.4342H478.824C479.633 35.4342 480.268 36.0112 480.268 36.7455V37.4274C480.326 38.1617 479.69 38.7386 478.881 38.7386Z" fill="#FFC6C0"/>
<path d="M498.642 3.43795C508.754 3.43795 516.959 10.8862 516.959 20.0655C516.959 29.2447 508.754 36.7454 498.642 36.7454C488.531 36.7454 480.268 29.2971 480.268 20.1179C480.268 10.9387 488.531 3.43795 498.642 3.43795ZM498.642 0.133423C486.508 0.133423 476.628 9.10284 476.628 20.1179C476.628 31.133 486.508 40.1024 498.642 40.1024C510.776 40.1024 520.657 31.133 520.657 20.1179C520.657 9.10284 510.776 0.133423 498.642 0.133423ZM509.332 20.9047C509.679 20.9572 509.679 21.4817 509.332 21.5341C505.807 22.1111 498.238 23.37 497.314 23.37C495.985 23.37 494.945 22.4258 494.945 21.2194C494.945 20.3802 496.331 12.1451 497.025 8.84058C497.082 8.52586 497.602 8.52586 497.66 8.84058L499.451 19.2262L509.332 20.9047Z" fill="#FFC6C0"/>
</g>
<defs>
<clipPath id="clip0">
<rect width="417" height="401" fill="white" transform="translate(52 20)"/>
</clipPath>
</defs>
</svg>
