<svg width="185" height="61" viewBox="0 0 185 61" fill="none" xmlns="http://www.w3.org/2000/svg">
<path d="M184.959 52.7597C184.959 57.3174 181.307 61 176.787 61H8.17221C3.65218 61 0 57.3174 0 52.7597V8.24029C0 3.68261 3.65218 0 8.17221 0H176.787C181.307 0 184.959 3.68261 184.959 8.24029V52.7597Z" fill="white"/>
<path d="M13.8857 11.7405V32.4141V53.0513L34.5332 32.4141L13.8857 11.7405Z" fill="url(#paint0_linear)"/>
<path d="M40.0657 26.8356L31.7489 21.9862L13.8857 11.5947V11.7406L34.5332 32.4142L40.0657 26.8356Z" fill="url(#paint1_linear)"/>
<path d="M13.8857 53.0515V53.1973L31.7489 42.8058L40.0657 37.9564L34.5332 32.4143L13.8857 53.0515Z" fill="url(#paint2_linear)"/>
<path d="M40.0657 26.8357L34.5332 32.4143L40.0657 37.9564L49.612 32.4143L40.0657 26.8357Z" fill="url(#paint3_linear)"/>
<path d="M143.953 40.4722C143.194 40.4722 142.471 40.3263 141.82 40.0346C141.169 39.7429 140.627 39.3054 140.193 38.6856H140.048C140.12 39.3783 140.193 40.0346 140.193 40.6909V45.6497H138.385V28.2576H139.867L140.12 29.8984H140.193C140.663 29.242 141.205 28.768 141.82 28.4764C142.435 28.1847 143.158 28.0388 143.953 28.0388C145.545 28.0388 146.738 28.5857 147.606 29.6796C148.473 30.7734 148.907 32.3048 148.907 34.2737C148.907 36.2426 148.473 37.774 147.606 38.8679C146.702 39.9253 145.472 40.4722 143.953 40.4722ZM143.664 29.5702C142.435 29.5702 141.567 29.8984 141.024 30.5911C140.482 31.2839 140.193 32.3413 140.193 33.8362V34.2373C140.193 35.9145 140.482 37.1177 141.024 37.8469C141.567 38.5762 142.471 38.9408 143.7 38.9408C144.713 38.9408 145.545 38.5033 146.123 37.6646C146.702 36.826 146.991 35.6593 146.991 34.2008C146.991 32.7059 146.702 31.5391 146.123 30.737C145.545 29.9713 144.749 29.5702 143.664 29.5702Z" fill="black"/>
<path d="M153.066 40.2534H151.258V23.1895H153.066V40.2534Z" fill="black"/>
<path d="M163.444 40.2534L163.082 38.5397H163.01C162.431 39.3054 161.817 39.8159 161.238 40.0711C160.659 40.3263 159.9 40.4722 159.032 40.4722C157.839 40.4722 156.935 40.1805 156.248 39.5606C155.561 38.9408 155.235 38.0657 155.235 36.9354C155.235 34.4925 157.152 33.2528 161.021 33.107L163.046 33.034V32.3048C163.046 31.3568 162.829 30.664 162.431 30.2265C162.033 29.789 161.383 29.5702 160.515 29.5702C159.538 29.5702 158.381 29.8619 157.152 30.4817L156.609 29.0962C157.188 28.768 157.839 28.5128 158.526 28.3305C159.213 28.1482 159.936 28.0388 160.623 28.0388C162.033 28.0388 163.082 28.367 163.769 28.9868C164.456 29.6067 164.782 30.6276 164.782 32.0496V40.2534H163.444ZM159.358 38.9773C160.479 38.9773 161.346 38.6491 161.997 38.0293C162.648 37.4094 162.974 36.5343 162.974 35.404V34.3102L161.166 34.3831C159.719 34.4196 158.707 34.6748 158.056 35.0759C157.405 35.477 157.116 36.0968 157.116 36.9354C157.116 37.5917 157.296 38.1022 157.694 38.4303C158.092 38.7949 158.634 38.9773 159.358 38.9773Z" fill="black"/>
<path d="M165.83 28.2576H167.747L170.35 35.1123C170.929 36.6802 171.29 37.8105 171.399 38.5032H171.471C171.58 38.1386 171.76 37.4823 172.05 36.6072C172.339 35.6957 173.351 32.9246 175.015 28.294H176.967L171.869 41.9306C171.363 43.2797 170.784 44.2277 170.097 44.8111C169.41 45.3945 168.578 45.6497 167.602 45.6497C167.06 45.6497 166.517 45.5768 165.975 45.4674V44.0089C166.372 44.0818 166.806 44.1548 167.313 44.1548C168.542 44.1548 169.446 43.462 169.952 42.04L170.603 40.3263L165.83 28.2576Z" fill="black"/>
<path d="M110.506 29.3515C111.085 29.8255 112.278 30.8464 112.278 32.7424C112.278 34.6019 111.229 35.477 110.181 36.3156C109.855 36.6438 109.494 37.0084 109.494 37.5553C109.494 38.1022 109.855 38.3939 110.144 38.6491L111.048 39.3419C112.133 40.2899 113.146 41.1285 113.146 42.8787C113.146 45.2487 110.868 47.6187 106.601 47.6187C102.985 47.6187 101.249 45.8685 101.249 44.009C101.249 43.0974 101.683 41.8213 103.166 40.9462C104.72 39.9982 106.818 39.8524 107.939 39.7795C107.577 39.3419 107.179 38.8679 107.179 38.0658C107.179 37.6282 107.288 37.373 107.432 37.0813C107.143 37.1178 106.89 37.1178 106.637 37.1178C103.997 37.1178 102.515 35.1488 102.515 33.1799C102.515 32.0132 103.021 30.737 104.106 29.8255C105.516 28.6587 107.215 28.4399 108.553 28.4399H113.688L112.097 29.3515H110.506ZM108.734 40.5087C108.517 40.4722 108.409 40.4722 108.156 40.4722C107.939 40.4722 106.601 40.5087 105.552 40.8733C105.01 41.0556 103.419 41.6754 103.419 43.4621C103.419 45.2487 105.154 46.5248 107.794 46.5248C110.181 46.5248 111.446 45.3581 111.446 43.8267C111.446 42.5505 110.651 41.8578 108.734 40.5087ZM109.457 35.7322C110.036 35.1488 110.072 34.3467 110.072 33.9092C110.072 32.0861 108.987 29.2786 106.926 29.2786C106.275 29.2786 105.588 29.6067 105.19 30.1172C104.757 30.6276 104.648 31.3204 104.648 31.9767C104.648 33.6539 105.624 36.4615 107.758 36.4615C108.409 36.4615 109.06 36.1333 109.457 35.7322Z" fill="black"/>
<path d="M94.8122 40.1076C90.8708 40.1076 88.7373 37.0084 88.7373 34.2009C88.7373 30.9193 91.4132 28.1118 95.1738 28.1118C98.826 28.1118 101.104 30.9923 101.104 34.0186C101.14 36.972 98.8622 40.1076 94.8122 40.1076ZM97.922 38.0658C98.5367 37.2636 98.6814 36.2427 98.6814 35.2947C98.6814 33.0706 97.6327 28.8775 94.5591 28.8775C93.7274 28.8775 92.9319 29.2057 92.3172 29.7161C91.3408 30.5912 91.16 31.685 91.16 32.7789C91.16 35.2583 92.3895 39.3419 95.3908 39.3419C96.3671 39.3784 97.3434 38.8679 97.922 38.0658Z" fill="black"/>
<path d="M81.3249 40.1076C77.3834 40.1076 75.25 37.0084 75.25 34.2009C75.25 30.9193 77.9258 28.1118 81.6865 28.1118C85.3387 28.1118 87.6168 30.9923 87.6168 34.0186C87.6529 36.972 85.3748 40.1076 81.3249 40.1076ZM84.4347 38.0658C85.0494 37.2636 85.194 36.2427 85.194 35.2947C85.194 33.0706 84.1454 28.8775 81.0718 28.8775C80.2401 28.8775 79.4446 29.2057 78.8299 29.7161C77.8535 30.5912 77.6727 31.685 77.6727 32.7789C77.6727 35.2583 78.9022 39.3419 81.9035 39.3419C82.8798 39.3784 83.8561 38.8679 84.4347 38.0658Z" fill="black"/>
<path d="M73.3695 39.7066L69.7897 40.5452C68.3433 40.7639 67.0415 40.9827 65.6674 40.9827C58.7608 40.9827 56.1211 35.8781 56.1211 31.8673C56.1211 26.9815 59.8456 22.4238 66.2098 22.4238C67.5477 22.4238 68.8495 22.6426 70.0428 22.9707C71.9231 23.5177 72.791 24.174 73.3334 24.5386L71.2722 26.544L70.4044 26.7627L71.0191 25.7418C70.1513 24.9032 68.6325 23.3718 65.6674 23.3718C61.7259 23.3718 58.7246 26.3981 58.7246 30.81C58.7246 35.5499 62.1237 39.9982 67.5839 39.9982C69.1749 39.9982 70.0066 39.6701 70.766 39.3784V35.2947L67.0053 35.5135L68.9941 34.4196H74.3097L73.6588 35.0395C73.478 35.1853 73.4418 35.2583 73.4057 35.4406C73.3695 35.6593 73.3695 36.3886 73.3695 36.6438V39.7066Z" fill="black"/>
<path d="M118.425 38.9774C117.593 38.9044 117.412 38.7586 117.412 37.7741V37.4825V23.5177C117.412 23.4813 117.412 23.4083 117.412 23.3719C117.521 22.4968 117.774 22.351 118.533 21.877H114.99L113.109 22.7885H115.026V37.5189V38.3575C115.026 38.868 114.917 38.9409 114.339 39.7066H118.75L119.691 39.1597C119.257 39.0868 118.859 39.0503 118.425 38.9774Z" fill="black"/>
<path d="M128.586 39.2326C128.297 39.3785 128.044 39.5608 127.754 39.6702C126.923 40.0348 126.091 40.1442 125.332 40.1442C124.536 40.1442 123.307 40.1077 122.041 39.1597C120.269 37.92 119.51 35.7688 119.51 33.8728C119.51 30.0079 122.656 28.0754 125.187 28.0754C126.091 28.0754 126.995 28.2942 127.754 28.7682C128.984 29.6068 129.309 30.6642 129.49 31.2476L123.668 33.654L121.752 33.7999C122.366 36.972 124.5 38.8316 126.886 38.8316C128.152 38.8316 129.056 38.394 129.924 37.9565L128.586 39.2326ZM126.272 31.758C126.742 31.5757 126.995 31.4299 126.995 31.0653C126.995 30.0808 125.874 28.9141 124.536 28.9141C123.524 28.9141 121.679 29.6797 121.679 32.3779C121.679 32.8154 121.716 33.253 121.752 33.6905L126.272 31.758Z" fill="black"/>
<path d="M131.008 28.2941V29.9349H130.791V28.2941H130.249V28.1118H131.515V28.2941H131.008Z" fill="black"/>
<path d="M133.214 29.9349V28.2577L132.708 29.9349H132.563L132.057 28.2577V29.9349H131.876V28.1118H132.201L132.672 29.5703L133.142 28.1118H133.467V29.9349H133.214Z" fill="black"/>
<path d="M61.1111 17.5006H59.8817C59.8817 17.3183 59.7732 16.8443 59.5201 16.0421H57.7121C57.459 16.8443 57.3505 17.3183 57.3505 17.5006H56.1934C56.1934 17.3912 56.4826 16.5526 57.0974 14.9848C57.7121 13.4169 58.0014 12.5418 58.0014 12.396H59.4839C59.4839 12.5418 59.7732 13.3805 60.3156 14.9483C60.8219 16.5161 61.1111 17.3548 61.1111 17.5006ZM59.3031 15.2764C58.8692 13.9274 58.6523 13.1981 58.6523 13.0888H58.5799C58.5799 13.1981 58.363 13.9274 57.8929 15.2764H59.3031Z" fill="black"/>
<path d="M66.1008 17.5009H65.1245C65.1245 17.3915 64.7629 16.8446 64.0397 15.7872C63.2803 14.6934 62.8825 13.9642 62.7741 13.5631H62.7017C62.7741 14.1465 62.8102 14.6569 62.8102 15.1309C62.8102 15.7872 62.8102 16.5529 62.8825 17.5009H61.9424C61.9785 16.6988 62.0147 15.7872 62.0147 14.8392C62.0147 13.8912 61.9785 13.0891 61.9424 12.3963H63.0995C63.0995 12.5422 63.4249 13.0891 64.0758 14.0371C64.7629 15.058 65.1606 15.7508 65.2329 16.1154H65.3053C65.233 15.532 65.1968 15.0215 65.1968 14.5475C65.1968 13.8548 65.1606 13.1256 65.1245 12.3599H66.1008C66.0646 13.0162 66.0285 13.8183 66.0285 14.8028C66.0646 15.8237 66.0646 16.6988 66.1008 17.5009Z" fill="black"/>
<path d="M71.7425 14.766C71.7425 15.4952 71.4894 16.1515 71.0193 16.6984C70.5492 17.2454 69.8983 17.5371 69.0305 17.5371C68.6327 17.5371 68.1265 17.5371 67.4395 17.5006C67.4756 16.6984 67.4756 15.8234 67.4756 14.8389C67.4756 13.8909 67.4756 13.0888 67.4395 12.396H68.1265C68.235 12.396 68.4158 12.396 68.6327 12.396C68.8497 12.396 68.9943 12.396 69.0667 12.396C70.0068 12.396 70.6939 12.6148 71.0916 13.0888C71.5256 13.5628 71.7425 14.1097 71.7425 14.766ZM70.6577 14.9483C70.6577 14.4378 70.5131 14.0368 70.2238 13.6721C69.9345 13.344 69.5006 13.1617 68.8859 13.1617C68.7774 13.1617 68.6327 13.1617 68.4158 13.1981C68.4519 13.7086 68.4519 14.2555 68.4519 14.8389C68.4519 15.4588 68.4519 16.0786 68.4881 16.6984C68.6689 16.7349 68.8135 16.7349 68.9943 16.7349C69.5368 16.7349 69.9707 16.5526 70.2238 16.2244C70.5492 15.8598 70.6577 15.4588 70.6577 14.9483Z" fill="black"/>
<path d="M76.9133 17.5006H75.7561C75.4668 16.5891 75.2137 16.0057 75.0691 15.7869C74.9244 15.5681 74.6352 15.4588 74.3097 15.4588C74.1651 15.4588 74.0204 15.4588 73.8758 15.4588C73.8758 16.1151 73.8758 16.8078 73.912 17.5006H72.8271C72.8633 16.6984 72.8633 15.8234 72.8633 14.8389C72.8633 13.8909 72.8633 13.0888 72.8271 12.396H73.5142C73.5865 12.396 73.7673 12.396 73.9843 12.396C74.2374 12.396 74.4544 12.396 74.6713 12.396C75.8646 12.396 76.4432 12.7971 76.4432 13.6357C76.4432 14.292 76.1177 14.7295 75.4307 14.9848V15.0577C75.6838 15.1306 75.9369 15.3494 76.1177 15.6775C76.3347 15.9692 76.5878 16.5891 76.9133 17.5006ZM75.4668 13.8909C75.4668 13.3805 75.1414 13.1252 74.4544 13.1252C74.2012 13.1252 73.9843 13.1252 73.8035 13.1981C73.8396 13.5992 73.8396 14.1461 73.8396 14.766C73.9843 14.766 74.0928 14.766 74.2012 14.766C75.0691 14.766 75.4668 14.4743 75.4668 13.8909Z" fill="black"/>
<path d="M82.4822 14.8764C82.4822 15.6785 82.2291 16.3348 81.759 16.8817C81.289 17.3922 80.6742 17.6839 79.951 17.6839C79.264 17.6839 78.6854 17.4287 78.2515 16.9547C77.7814 16.4807 77.5645 15.8608 77.5645 15.0951C77.5645 14.293 77.8176 13.6367 78.2877 13.0897C78.7577 12.5793 79.3725 12.2876 80.0957 12.2876C80.7827 12.2876 81.3613 12.5428 81.7952 13.0168C82.2653 13.4908 82.4822 14.1107 82.4822 14.8764ZM81.4336 14.9857C81.4336 14.4388 81.289 14.0013 81.0358 13.6731C80.7466 13.345 80.4211 13.1627 80.0233 13.1627C79.6617 13.1627 79.3363 13.345 79.047 13.6731C78.7939 14.0013 78.6493 14.4388 78.6493 14.9857C78.6493 15.5327 78.7939 15.9702 79.0832 16.2984C79.3725 16.6265 79.6979 16.8088 80.0957 16.8088C80.4573 16.8088 80.7827 16.6265 81.072 16.2984C81.289 15.9337 81.4336 15.4962 81.4336 14.9857Z" fill="black"/>
<path d="M84.6873 17.5006H83.6025C83.6387 16.6984 83.6387 15.7869 83.6387 14.8389C83.6387 13.8909 83.6387 13.0888 83.6025 12.396H84.6873C84.6512 13.0523 84.6512 13.8545 84.6512 14.8389C84.6512 15.8234 84.6512 16.6984 84.6873 17.5006Z" fill="black"/>
<path d="M90.3285 14.766C90.3285 15.4952 90.0753 16.1515 89.6053 16.6984C89.1352 17.2454 88.4843 17.5371 87.6164 17.5371C87.2187 17.5371 86.7124 17.5371 86.0254 17.5006C86.0616 16.6984 86.0616 15.8234 86.0616 14.8389C86.0616 13.8909 86.0616 13.0888 86.0254 12.396H86.7124C86.8209 12.396 87.0017 12.396 87.2187 12.396C87.4356 12.396 87.5803 12.396 87.6526 12.396C88.5928 12.396 89.2798 12.6148 89.6776 13.0888C90.1115 13.5628 90.3285 14.1097 90.3285 14.766ZM89.2437 14.9483C89.2437 14.4378 89.099 14.0368 88.8097 13.6721C88.5205 13.344 88.0865 13.1617 87.4718 13.1617C87.3633 13.1617 87.2187 13.1617 87.0017 13.1981C87.0379 13.7086 87.0379 14.2555 87.0379 14.8389C87.0379 15.4588 87.0379 16.0786 87.074 16.6984C87.2548 16.7349 87.3995 16.7349 87.5803 16.7349C88.1227 16.7349 88.5566 16.5526 88.8097 16.2244C89.1352 15.8598 89.2437 15.4588 89.2437 14.9483Z" fill="black"/>
<path d="M97.7772 17.5006H96.5477C96.5477 17.3183 96.4392 16.8443 96.1861 16.0421H94.3781C94.125 16.8443 94.0165 17.3183 94.0165 17.5006H92.8594C92.8594 17.3912 93.1487 16.5526 93.7634 14.9848C94.3781 13.4169 94.6674 12.5418 94.6674 12.396H96.1499C96.1499 12.5418 96.4392 13.3805 96.9816 14.9483C97.524 16.5161 97.7772 17.3548 97.7772 17.5006ZM96.0053 15.2764C95.5714 13.9274 95.3544 13.1981 95.3544 13.0888H95.2821C95.2821 13.1981 95.0651 13.9274 94.5951 15.2764H96.0053Z" fill="black"/>
<path d="M102.334 13.7451C102.334 14.3649 102.117 14.8389 101.647 15.1306C101.177 15.4223 100.634 15.5681 99.9473 15.5681C99.8388 15.5681 99.7303 15.5681 99.6942 15.5681C99.6942 16.0421 99.6942 16.6984 99.7303 17.5006H98.6455C98.6817 16.7349 98.6817 15.8598 98.6817 14.8389C98.6817 13.8909 98.6817 13.0888 98.6455 12.396H99.3326C99.441 12.396 99.6218 12.396 99.875 12.396C100.164 12.396 100.381 12.396 100.598 12.396C101.104 12.396 101.502 12.5054 101.828 12.7241C102.153 12.9429 102.334 13.2711 102.334 13.7451ZM101.321 13.9638C101.321 13.4169 100.96 13.1252 100.2 13.1252C100.02 13.1252 99.8388 13.1617 99.6218 13.1981C99.658 13.7086 99.658 14.2555 99.658 14.8754C99.7303 14.8754 99.8026 14.8754 99.875 14.8754C100.851 14.8754 101.321 14.5472 101.321 13.9638Z" fill="black"/>
<path d="M106.963 13.7451C106.963 14.3649 106.746 14.8389 106.276 15.1306C105.806 15.4223 105.263 15.5681 104.576 15.5681C104.468 15.5681 104.359 15.5681 104.323 15.5681C104.323 16.0421 104.323 16.6984 104.359 17.5006H103.274C103.311 16.7349 103.311 15.8598 103.311 14.8389C103.311 13.8909 103.311 13.0888 103.274 12.396H103.961C104.07 12.396 104.251 12.396 104.504 12.396C104.793 12.396 105.01 12.396 105.227 12.396C105.733 12.396 106.131 12.5054 106.457 12.7241C106.818 12.9429 106.963 13.2711 106.963 13.7451ZM105.986 13.9638C105.986 13.4169 105.625 13.1252 104.865 13.1252C104.685 13.1252 104.504 13.1617 104.287 13.1981C104.323 13.7086 104.323 14.2555 104.323 14.8754C104.395 14.8754 104.468 14.8754 104.54 14.8754C105.516 14.8754 105.986 14.5472 105.986 13.9638Z" fill="black"/>
<path d="M114.592 14.8764C114.592 15.6785 114.339 16.3348 113.868 16.8817C113.398 17.4287 112.784 17.6839 112.06 17.6839C111.373 17.6839 110.795 17.4287 110.361 16.9547C109.891 16.4807 109.674 15.8608 109.674 15.0951C109.674 14.293 109.927 13.6367 110.397 13.0897C110.867 12.5793 111.482 12.2876 112.205 12.2876C112.892 12.2876 113.471 12.5428 113.905 13.0168C114.375 13.4908 114.592 14.1107 114.592 14.8764ZM113.507 14.9857C113.507 14.4388 113.362 14.0013 113.109 13.6731C112.82 13.345 112.494 13.1627 112.097 13.1627C111.735 13.1627 111.41 13.345 111.12 13.6731C110.867 14.0013 110.722 14.4388 110.722 14.9857C110.722 15.5327 110.867 15.9702 111.156 16.2984C111.446 16.6265 111.771 16.8088 112.169 16.8088C112.531 16.8088 112.856 16.6265 113.145 16.2984C113.398 15.9337 113.507 15.4962 113.507 14.9857Z" fill="black"/>
<path d="M119.871 17.5009H118.895C118.895 17.3915 118.533 16.8446 117.81 15.7872C117.051 14.6934 116.653 13.9642 116.545 13.5631H116.472C116.545 14.1465 116.581 14.6569 116.581 15.1309C116.581 15.7872 116.581 16.5529 116.653 17.5009H115.713C115.749 16.6988 115.785 15.7872 115.785 14.8392C115.785 13.8912 115.749 13.0891 115.713 12.3963H116.87C116.87 12.5422 117.195 13.0891 117.846 14.0371C118.533 15.058 118.931 15.7508 119.003 16.1154H119.076C119.003 15.532 118.967 15.0215 118.967 14.5475C118.967 13.8548 118.967 13.1256 118.895 12.3599H119.871C119.835 13.0162 119.799 13.8183 119.799 14.8028C119.799 15.8237 119.835 16.6988 119.871 17.5009Z" fill="black"/>
<defs>
<linearGradient id="paint0_linear" x1="24.2028" y1="11.7445" x2="24.2028" y2="53.0563" gradientUnits="userSpaceOnUse">
<stop stop-color="#257CB0"/>
<stop offset="0.2863" stop-color="#4A93B5"/>
<stop offset="0.767" stop-color="#78BCBB"/>
<stop offset="1" stop-color="#89CFBD"/>
</linearGradient>
<linearGradient id="paint1_linear" x1="13.873" y1="21.9976" x2="40.0818" y2="21.9976" gradientUnits="userSpaceOnUse">
<stop stop-color="#52C1AD"/>
<stop offset="1" stop-color="#DEE89A"/>
</linearGradient>
<linearGradient id="paint2_linear" x1="26.9772" y1="32.4009" x2="26.9772" y2="53.2067" gradientUnits="userSpaceOnUse">
<stop stop-color="#EC413D"/>
<stop offset="0.1668" stop-color="#DA4452"/>
<stop offset="0.5748" stop-color="#B0487A"/>
<stop offset="0.8619" stop-color="#954A92"/>
<stop offset="1" stop-color="#8A4A9D"/>
</linearGradient>
<linearGradient id="paint3_linear" x1="42.0723" y1="26.8526" x2="42.0723" y2="37.9484" gradientUnits="userSpaceOnUse">
<stop stop-color="#F58879"/>
<stop offset="0.1194" stop-color="#F69079"/>
<stop offset="0.7128" stop-color="#FCB877"/>
<stop offset="1" stop-color="#FEC874"/>
</linearGradient>
</defs>
</svg>
