<svg width="436" height="338" viewBox="0 0 436 338" fill="none" xmlns="http://www.w3.org/2000/svg">
<mask id="mask0" mask-type="alpha" maskUnits="userSpaceOnUse" x="64" y="0" width="266" height="267">
<path d="M197.258 266.435C270.569 266.435 330 206.905 330 133.472C330 60.0387 270.569 0.509277 197.258 0.509277C123.947 0.509277 64.5166 60.0387 64.5166 133.472C64.5166 206.905 123.947 266.435 197.258 266.435Z" fill="#D8EEFF"/>
</mask>
<g mask="url(#mask0)">
<rect x="64.5166" y="-0.142578" width="264.62" height="266.857" fill="#114CA8"/>
<path d="M286.124 265.561H108.616V203.764C108.616 191.494 118.638 181.455 130.888 181.455H263.629C275.879 181.455 285.901 191.494 285.901 203.764V265.561H286.124Z" fill="#B0DDFF"/>
<path d="M174.319 181.678L177.214 266.23H216.858L220.422 181.678H174.319Z" fill="#6CB8FF"/>
<path d="M213.739 143.976C213.517 146.653 203.494 148.884 197.258 148.884C191.022 148.884 182.113 146.207 181.89 143.306C181.89 141.968 191.467 143.752 197.704 143.752C204.162 143.976 213.962 142.86 213.739 143.976Z" fill="white"/>
<path d="M242.025 98.2416C242.025 98.0185 242.025 97.7954 242.025 97.5723C242.025 67.678 222.203 43.5841 197.927 43.5841C173.65 43.5841 153.828 67.678 153.828 97.5723C153.828 97.7954 153.828 98.0185 153.828 98.2416C148.706 100.026 144.697 106.496 144.697 114.304C144.697 122.782 149.151 129.698 155.164 130.59C158.951 145.537 168.528 157.361 181.223 163.161L174.318 181.678C174.318 181.678 179.218 197.964 196.813 197.964C216.19 197.964 220.422 181.678 220.422 181.678L213.517 163.161C226.212 157.584 236.235 145.537 239.798 130.59C246.034 130.367 251.157 123.228 251.157 114.304C251.157 106.496 247.371 100.026 242.025 98.2416Z" fill="#FFEFEF"/>
<path d="M248.261 76.3788C248.038 72.8094 247.593 48.0462 229.998 48.2692C229.775 39.1225 211.512 32.4297 197.481 31.9836C176.991 31.3143 145.81 43.1381 148.037 86.8642C148.037 86.8642 149.15 100.919 149.373 101.142C150.71 99.8035 152.046 98.688 153.828 98.2419C153.828 98.0188 154.273 88.872 156.946 81.733C160.955 63.6626 182.336 65.2242 203.272 65.2242C215.967 65.2242 236.234 66.1166 238.684 81.733C240.911 88.4258 241.58 98.0188 241.58 98.2419C243.139 98.688 244.698 99.8035 246.034 101.142C246.257 101.142 247.37 86.8642 247.37 86.8642L248.261 76.3788Z" fill="#25416D"/>
<path d="M234.007 68.7937C230.221 74.371 213.294 79.9483 194.363 79.9483C175.209 79.9483 159.841 67.9013 159.841 66.5627C159.841 65.2242 167.637 60.093 173.205 58.3083C178.773 56.5236 193.918 48.2692 201.713 50.0539C209.508 52.0617 234.007 68.7937 234.007 68.7937Z" fill="#25416D"/>
</g>
<mask id="mask1" mask-type="alpha" maskUnits="userSpaceOnUse" x="0" y="183" width="138" height="138">
<path d="M68.6522 320.533C106.568 320.533 137.304 289.745 137.304 251.767C137.304 213.788 106.568 183 68.6522 183C30.7367 183 0 213.788 0 251.767C0 289.745 30.7367 320.533 68.6522 320.533Z" fill="#D8EEFF"/>
</mask>
<g mask="url(#mask1)">
<rect x="-10.9009" y="180.011" width="148.206" height="143.036" fill="#D8EEFF"/>
<path d="M93.8783 236.911C93.1871 236.219 92.496 235.642 91.5745 235.411C91.5745 235.296 91.2289 232.18 89.8467 228.488L91.9201 227.219L94.4542 229.642C94.6846 229.642 93.9935 236.911 93.8783 236.911Z" fill="#25416D"/>
<path d="M114.497 321.946H22.8071V289.986C22.8071 283.64 27.9906 278.448 34.326 278.448H102.978C109.314 278.448 114.497 283.64 114.497 289.986V321.946Z" fill="#6CB8FF"/>
<path d="M91.8051 235.411C91.8051 235.296 91.8051 235.18 91.8051 235.065C91.8051 219.604 81.5533 207.143 68.9978 207.143C56.3271 207.143 46.1905 219.604 46.1905 235.065C46.1905 235.18 46.1905 235.296 46.1905 235.411C43.5412 236.334 41.4678 239.68 41.4678 243.718C41.4678 248.103 43.7716 251.68 46.8816 252.141C48.8398 259.872 53.7929 265.987 60.3587 268.987L56.7878 278.563L68.4218 288.14H68.9978L80.6318 278.563L77.061 268.987C83.6267 266.102 88.8102 259.872 90.6532 252.141C93.8785 252.026 96.5278 248.334 96.5278 243.718C96.5278 239.68 94.4544 236.334 91.8051 235.411Z" fill="#FFEFEF"/>
<path d="M43.8868 236.911C44.5779 236.219 45.269 235.642 46.1906 235.411C46.1906 235.296 46.5361 232.18 47.9184 228.488L45.845 227.219L43.3108 229.642C43.0805 229.642 43.7716 236.911 43.8868 236.911Z" fill="#25416D"/>
<path d="M94.5696 228.834C94.5696 213.604 82.9356 201.143 68.6522 201.143C54.3689 201.143 42.7349 213.489 42.7349 228.834C42.7349 229.18 42.7349 229.411 42.7349 229.757H45.9601C46.5361 236.449 56.4423 238.872 68.6522 238.872C80.8622 238.872 90.7684 236.565 91.3443 229.757H94.5696C94.5696 229.411 94.5696 229.065 94.5696 228.834Z" fill="#B0DDFF"/>
<path d="M92.0354 229.642C92.0354 229.642 90.6531 239.796 68.9977 239.796C45.7297 239.796 45.96 229.642 45.96 229.642C45.96 229.642 56.6726 227.565 69.3433 227.565C82.014 227.565 92.0354 229.642 92.0354 229.642Z" fill="#6CB8FF"/>
<path d="M47.1119 252.487C46.1904 248.564 45.2689 234.373 45.9601 235.411C47.3423 237.719 46.3056 246.718 52.8713 255.257C55.1751 258.256 65.4269 253.987 68.0762 254.103C72.6837 254.333 77.752 256.756 80.2862 257.449C89.386 259.641 90.9987 238.642 91.805 234.719C92.2658 232.296 92.7265 237.026 90.9987 251.449C90.5379 255.372 83.7418 270.948 68.7673 270.833C52.1802 270.602 47.1119 252.487 47.1119 252.487Z" fill="#25416D"/>
<path d="M77.176 259.064C77.0609 260.449 71.8774 261.602 68.6521 261.602C65.4268 261.602 60.8193 260.218 60.7041 258.718C60.7041 258.026 65.6572 258.949 68.8825 258.949C72.1077 258.949 77.176 258.487 77.176 259.064Z" fill="white"/>
</g>
<path d="M171.728 251.933H109.431V329.611H171.728V251.933Z" fill="#B0DDFF"/>
<path d="M147.842 265.108H117.984C117.419 265.108 116.935 264.623 116.935 264.057V263.249C116.935 262.683 117.419 262.198 117.984 262.198H147.842C148.407 262.198 148.891 262.683 148.891 263.249V264.057C148.891 264.623 148.407 265.108 147.842 265.108Z" fill="white"/>
<path d="M162.287 265.108H153.33C152.765 265.108 152.281 264.623 152.281 264.057V263.249C152.281 262.683 152.765 262.198 153.33 262.198H162.287C162.852 262.198 163.336 262.683 163.336 263.249V264.057C163.336 264.623 162.852 265.108 162.287 265.108Z" fill="white"/>
<path d="M147.842 273.11H117.984C117.419 273.11 116.935 272.625 116.935 272.06V271.251C116.935 270.685 117.419 270.2 117.984 270.2H147.842C148.407 270.2 148.891 270.685 148.891 271.251V272.06C148.891 272.625 148.407 273.11 147.842 273.11Z" fill="white"/>
<path d="M162.287 273.11H153.33C152.765 273.11 152.281 272.625 152.281 272.06V271.251C152.281 270.685 152.765 270.2 153.33 270.2H162.287C162.852 270.2 163.336 270.685 163.336 271.251V272.06C163.336 272.625 162.852 273.11 162.287 273.11Z" fill="white"/>
<path d="M147.842 281.032H117.984C117.419 281.032 116.935 280.547 116.935 279.981V279.173C116.935 278.607 117.419 278.122 117.984 278.122H147.842C148.407 278.122 148.891 278.607 148.891 279.173V279.981C148.891 280.547 148.407 281.032 147.842 281.032Z" fill="white"/>
<path d="M162.287 281.032H153.33C152.765 281.032 152.281 280.547 152.281 279.981V279.173C152.281 278.607 152.765 278.122 153.33 278.122H162.287C162.852 278.122 163.336 278.607 163.336 279.173V279.981C163.336 280.547 162.852 281.032 162.287 281.032Z" fill="white"/>
<path d="M147.842 288.953H117.984C117.419 288.953 116.935 288.468 116.935 287.903V287.094C116.935 286.528 117.419 286.043 117.984 286.043H147.842C148.407 286.043 148.891 286.528 148.891 287.094V287.903C148.891 288.468 148.407 288.953 147.842 288.953Z" fill="white"/>
<path d="M162.287 288.953H153.33C152.765 288.953 152.281 288.468 152.281 287.903V287.094C152.281 286.528 152.765 286.043 153.33 286.043H162.287C162.852 286.043 163.336 286.528 163.336 287.094V287.903C163.336 288.468 162.852 288.953 162.287 288.953Z" fill="white"/>
<path d="M147.842 296.875H117.984C117.419 296.875 116.935 296.39 116.935 295.824V295.015C116.935 294.45 117.419 293.965 117.984 293.965H147.842C148.407 293.965 148.891 294.45 148.891 295.015V295.824C148.891 296.47 148.407 296.875 147.842 296.875Z" fill="white"/>
<path d="M162.287 296.875H153.33C152.765 296.875 152.281 296.39 152.281 295.824V295.015C152.281 294.45 152.765 293.965 153.33 293.965H162.287C162.852 293.965 163.336 294.45 163.336 295.015V295.824C163.336 296.47 162.852 296.875 162.287 296.875Z" fill="white"/>
<path d="M147.842 304.877H117.984C117.419 304.877 116.935 304.392 116.935 303.826V303.018C116.935 302.452 117.419 301.967 117.984 301.967H147.842C148.407 301.967 148.891 302.452 148.891 303.018V303.826C148.891 304.392 148.407 304.877 147.842 304.877Z" fill="white"/>
<path d="M162.287 304.877H153.33C152.765 304.877 152.281 304.392 152.281 303.826V303.018C152.281 302.452 152.765 301.967 153.33 301.967H162.287C162.852 301.967 163.336 302.452 163.336 303.018V303.826C163.336 304.392 162.852 304.877 162.287 304.877Z" fill="white"/>
<path d="M147.842 313.202H117.984C117.419 313.202 116.935 312.717 116.935 312.152V311.343C116.935 310.777 117.419 310.292 117.984 310.292H147.842C148.407 310.292 148.891 310.777 148.891 311.343V312.152C148.891 312.717 148.407 313.202 147.842 313.202Z" fill="white"/>
<path d="M162.287 313.202H153.33C152.765 313.202 152.281 312.717 152.281 312.152V311.343C152.281 310.777 152.765 310.292 153.33 310.292H162.287C162.852 310.292 163.336 310.777 163.336 311.343V312.152C163.336 312.717 162.852 313.202 162.287 313.202Z" fill="white"/>
<path d="M162.287 325.974H153.41C152.845 325.974 152.361 325.489 152.361 324.923V324.115C152.361 323.549 152.845 323.064 153.41 323.064H162.287C162.852 323.064 163.336 323.549 163.336 324.115V324.923C163.336 325.489 162.852 325.974 162.287 325.974Z" fill="white"/>
<path d="M135.173 325.974H117.904C117.339 325.974 116.854 325.489 116.854 324.923V324.115C116.854 323.549 117.339 323.064 117.904 323.064H135.173C135.737 323.064 136.222 323.549 136.222 324.115V324.923C136.222 325.489 135.737 325.974 135.173 325.974Z" fill="white"/>
<path d="M171.728 329.692C171.728 329.611 171.728 329.53 171.728 329.45H109.431V330.258C109.673 334.057 112.659 337.129 116.451 337.533H178.83C174.795 337.048 171.728 333.734 171.728 329.692Z" fill="#B0DDFF"/>
<path d="M171.97 331.794C172.939 335.108 175.925 337.452 179.475 337.452C183.026 337.452 186.092 335.027 186.98 331.794H171.97Z" fill="#6CB8FF"/>
<mask id="mask2" mask-type="alpha" maskUnits="userSpaceOnUse" x="249" y="183" width="138" height="138">
<path d="M317.672 320.533C355.588 320.533 386.324 289.745 386.324 251.767C386.324 213.788 355.588 183 317.672 183C279.756 183 249.02 213.788 249.02 251.767C249.02 289.745 279.756 320.533 317.672 320.533Z" fill="#D8EEFF"/>
</mask>
<g mask="url(#mask2)">
<rect x="238.119" y="180.011" width="148.206" height="143.036" fill="#D8EEFF"/>
<path d="M342.898 236.911C342.207 236.219 341.516 235.642 340.594 235.411C340.594 235.296 340.249 232.18 338.866 228.488L340.94 227.219L343.474 229.642C343.704 229.642 343.013 236.911 342.898 236.911Z" fill="#25416D"/>
<path d="M363.517 321.946H271.827V289.986C271.827 283.64 277.011 278.448 283.346 278.448H351.998C358.334 278.448 363.517 283.64 363.517 289.986V321.946Z" fill="#6CB8FF"/>
<path d="M340.825 235.411C340.825 235.296 340.825 235.18 340.825 235.065C340.825 219.604 330.573 207.143 318.018 207.143C305.347 207.143 295.21 219.604 295.21 235.065C295.21 235.18 295.21 235.296 295.21 235.411C292.561 236.334 290.488 239.68 290.488 243.718C290.488 248.103 292.791 251.68 295.901 252.141C297.86 259.872 302.813 265.987 309.378 268.987L305.808 278.563L317.442 288.14H318.018L329.652 278.563L326.081 268.987C332.646 266.102 337.83 259.872 339.673 252.141C342.898 252.026 345.548 248.334 345.548 243.718C345.548 239.68 343.474 236.334 340.825 235.411Z" fill="#FFEFEF"/>
<path d="M292.907 236.911C293.598 236.219 294.289 235.642 295.21 235.411C295.21 235.296 295.556 232.18 296.938 228.488L294.865 227.219L292.331 229.642C292.1 229.642 292.791 236.911 292.907 236.911Z" fill="#25416D"/>
<path d="M343.589 228.834C343.589 213.604 331.955 201.143 317.672 201.143C303.389 201.143 291.755 213.489 291.755 228.834C291.755 229.18 291.755 229.411 291.755 229.757H294.98C295.556 236.449 305.462 238.872 317.672 238.872C329.882 238.872 339.788 236.565 340.364 229.757H343.589C343.589 229.411 343.589 229.065 343.589 228.834Z" fill="#B0DDFF"/>
<path d="M341.055 229.642C341.055 229.642 339.673 239.796 318.018 239.796C294.749 239.796 294.98 229.642 294.98 229.642C294.98 229.642 305.692 227.565 318.363 227.565C331.034 227.565 341.055 229.642 341.055 229.642Z" fill="#6CB8FF"/>
<path d="M296.132 252.487C295.21 248.564 294.289 234.373 294.98 235.411C296.362 237.719 295.326 246.718 301.891 255.257C304.195 258.256 314.447 253.987 317.096 254.103C321.704 254.333 326.772 256.756 329.306 257.449C338.406 259.641 340.019 238.642 340.825 234.719C341.286 232.296 341.747 237.026 340.019 251.449C339.558 255.372 332.762 270.948 317.787 270.833C301.2 270.602 296.132 252.487 296.132 252.487Z" fill="#25416D"/>
<path d="M326.196 259.064C326.081 260.449 320.897 261.602 317.672 261.602C314.447 261.602 309.839 260.218 309.724 258.718C309.724 258.026 314.677 258.949 317.902 258.949C321.128 258.949 326.196 258.487 326.196 259.064Z" fill="white"/>
</g>
<path d="M420.748 251.933H358.451V329.611H420.748V251.933Z" fill="#B0DDFF"/>
<path d="M396.862 265.108H367.004C366.44 265.108 365.955 264.623 365.955 264.057V263.249C365.955 262.683 366.44 262.198 367.004 262.198H396.862C397.427 262.198 397.911 262.683 397.911 263.249V264.057C397.911 264.623 397.427 265.108 396.862 265.108Z" fill="white"/>
<path d="M411.307 265.108H402.35C401.785 265.108 401.301 264.623 401.301 264.057V263.249C401.301 262.683 401.785 262.198 402.35 262.198H411.307C411.872 262.198 412.356 262.683 412.356 263.249V264.057C412.356 264.623 411.872 265.108 411.307 265.108Z" fill="white"/>
<path d="M396.862 273.11H367.004C366.44 273.11 365.955 272.625 365.955 272.06V271.251C365.955 270.685 366.44 270.2 367.004 270.2H396.862C397.427 270.2 397.911 270.685 397.911 271.251V272.06C397.911 272.625 397.427 273.11 396.862 273.11Z" fill="white"/>
<path d="M411.307 273.11H402.35C401.785 273.11 401.301 272.625 401.301 272.06V271.251C401.301 270.685 401.785 270.2 402.35 270.2H411.307C411.872 270.2 412.356 270.685 412.356 271.251V272.06C412.356 272.625 411.872 273.11 411.307 273.11Z" fill="white"/>
<path d="M396.862 281.032H367.004C366.44 281.032 365.955 280.547 365.955 279.981V279.173C365.955 278.607 366.44 278.122 367.004 278.122H396.862C397.427 278.122 397.911 278.607 397.911 279.173V279.981C397.911 280.547 397.427 281.032 396.862 281.032Z" fill="white"/>
<path d="M411.307 281.032H402.35C401.785 281.032 401.301 280.547 401.301 279.981V279.173C401.301 278.607 401.785 278.122 402.35 278.122H411.307C411.872 278.122 412.356 278.607 412.356 279.173V279.981C412.356 280.547 411.872 281.032 411.307 281.032Z" fill="white"/>
<path d="M396.862 288.953H367.004C366.44 288.953 365.955 288.468 365.955 287.903V287.094C365.955 286.528 366.44 286.043 367.004 286.043H396.862C397.427 286.043 397.911 286.528 397.911 287.094V287.903C397.911 288.468 397.427 288.953 396.862 288.953Z" fill="white"/>
<path d="M411.307 288.953H402.35C401.785 288.953 401.301 288.468 401.301 287.903V287.094C401.301 286.528 401.785 286.043 402.35 286.043H411.307C411.872 286.043 412.356 286.528 412.356 287.094V287.903C412.356 288.468 411.872 288.953 411.307 288.953Z" fill="white"/>
<path d="M396.862 296.875H367.004C366.44 296.875 365.955 296.39 365.955 295.824V295.015C365.955 294.45 366.44 293.965 367.004 293.965H396.862C397.427 293.965 397.911 294.45 397.911 295.015V295.824C397.911 296.47 397.427 296.875 396.862 296.875Z" fill="white"/>
<path d="M411.307 296.875H402.35C401.785 296.875 401.301 296.39 401.301 295.824V295.015C401.301 294.45 401.785 293.965 402.35 293.965H411.307C411.872 293.965 412.356 294.45 412.356 295.015V295.824C412.356 296.47 411.872 296.875 411.307 296.875Z" fill="white"/>
<path d="M396.862 304.877H367.004C366.44 304.877 365.955 304.392 365.955 303.826V303.018C365.955 302.452 366.44 301.967 367.004 301.967H396.862C397.427 301.967 397.911 302.452 397.911 303.018V303.826C397.911 304.392 397.427 304.877 396.862 304.877Z" fill="white"/>
<path d="M411.307 304.877H402.35C401.785 304.877 401.301 304.392 401.301 303.826V303.018C401.301 302.452 401.785 301.967 402.35 301.967H411.307C411.872 301.967 412.356 302.452 412.356 303.018V303.826C412.356 304.392 411.872 304.877 411.307 304.877Z" fill="white"/>
<path d="M396.862 313.202H367.004C366.44 313.202 365.955 312.717 365.955 312.152V311.343C365.955 310.777 366.44 310.292 367.004 310.292H396.862C397.427 310.292 397.911 310.777 397.911 311.343V312.152C397.911 312.717 397.427 313.202 396.862 313.202Z" fill="white"/>
<path d="M411.307 313.202H402.35C401.785 313.202 401.301 312.717 401.301 312.152V311.343C401.301 310.777 401.785 310.292 402.35 310.292H411.307C411.872 310.292 412.356 310.777 412.356 311.343V312.152C412.356 312.717 411.872 313.202 411.307 313.202Z" fill="white"/>
<path d="M411.307 325.974H402.43C401.865 325.974 401.381 325.489 401.381 324.923V324.115C401.381 323.549 401.865 323.064 402.43 323.064H411.307C411.872 323.064 412.356 323.549 412.356 324.115V324.923C412.356 325.489 411.872 325.974 411.307 325.974Z" fill="white"/>
<path d="M384.193 325.974H366.924C366.359 325.974 365.875 325.489 365.875 324.923V324.115C365.875 323.549 366.359 323.064 366.924 323.064H384.193C384.758 323.064 385.242 323.549 385.242 324.115V324.923C385.242 325.489 384.758 325.974 384.193 325.974Z" fill="white"/>
<path d="M420.748 329.692C420.748 329.611 420.748 329.53 420.748 329.45H358.451V330.258C358.693 334.057 361.679 337.129 365.471 337.533H427.85C423.815 337.048 420.748 333.734 420.748 329.692Z" fill="#B0DDFF"/>
<path d="M420.99 331.794C421.959 335.108 424.945 337.452 428.495 337.452C432.046 337.452 435.112 335.027 436 331.794H420.99Z" fill="#6CB8FF"/>
</svg>
