<svg width="125" height="50" viewBox="0 0 125 50" fill="none" xmlns="http://www.w3.org/2000/svg">
<path d="M2.1 44.0999V49.9H1.7V44.0999H0V43.7H3.9V44.0999H2.1Z" fill="white"/>
<path d="M9.4002 49.9V46.9H6.2002V49.9H5.7002V43.7H6.2002V46.5H9.4002V43.7H9.9002V49.9H9.4002Z" fill="white"/>
<path d="M12.1001 49.9V43.7H15.5001V44.0999H12.6001V46.4H14.6001V46.7999H12.6001V49.2999H15.7001V49.7H12.1001V49.9Z" fill="white"/>
<path d="M21.7998 49.9999C21.2998 49.9999 20.8998 49.8999 20.5998 49.5999C20.1998 49.3999 19.9998 48.9999 19.7998 48.6999L20.2998 48.4999C20.3998 48.7999 20.5998 49.0999 20.8998 49.1999C21.1998 49.3999 21.4998 49.4999 21.7998 49.4999C22.1998 49.4999 22.5998 49.3999 22.7998 49.1999C22.9998 48.9999 23.1998 48.6999 23.1998 48.2999C23.1998 47.5999 22.6998 47.0999 21.7998 46.7999C21.4998 46.6999 21.2998 46.5999 21.1998 46.4999C20.9998 46.3999 20.7998 46.2999 20.6998 46.1999C20.4998 46.0999 20.3998 45.8999 20.2998 45.6999C20.1998 45.4999 20.1998 45.2999 20.1998 44.9999C20.1998 44.5999 20.3998 44.2999 20.6998 43.9999C20.9998 43.6999 21.3998 43.5999 21.9998 43.5999C22.3998 43.5999 22.7998 43.6999 23.0998 43.8999C23.3998 44.0999 23.5998 44.2999 23.6998 44.5999L23.2998 44.6999C23.0998 44.1999 22.6998 43.9999 22.0998 43.9999C21.6998 43.9999 21.3998 44.0999 21.1998 44.2999C20.9998 44.4999 20.8998 44.6999 20.8998 44.9999C20.8998 45.1999 20.8998 45.2999 20.9998 45.4999C21.0998 45.5999 21.1998 45.7999 21.3998 45.8999C21.5998 45.9999 21.6998 46.0999 21.7998 46.1999C21.8998 46.2999 22.0998 46.2999 22.3998 46.3999C22.5998 46.4999 22.7998 46.5999 22.9998 46.6999C23.1998 46.7999 23.3998 46.8999 23.4998 47.0999C23.6998 47.2999 23.7998 47.3999 23.8998 47.6999C23.9998 47.8999 23.9998 48.1999 23.9998 48.3999C23.9998 48.8999 23.7998 49.2999 23.4998 49.5999C22.7998 49.8999 22.2998 49.9999 21.7998 49.9999Z" fill="white"/>
<path d="M25.7002 49.9V43.7H27.8002C28.5002 43.7 29.0002 43.9 29.3002 44.2C29.6002 44.6 29.8002 45 29.8002 45.5C29.8002 46 29.6002 46.3999 29.3002 46.7999C29.0002 47.1999 28.5002 47.2999 27.8002 47.2999H26.2002V49.9H25.7002ZM27.8002 46.9C28.3002 46.9 28.7002 46.8 28.9002 46.5C29.1002 46.2 29.3002 45.9 29.3002 45.5C29.3002 45.1 29.2002 44.8 29.0002 44.5C28.8002 44.2 28.4002 44.0999 27.9002 44.0999H26.3002V46.9H27.8002Z" fill="white"/>
<path d="M34.4999 49.7999C34.1999 49.8999 33.8999 49.9999 33.4999 49.9999C33.0999 49.9999 32.7999 49.8999 32.4999 49.7999C32.1999 49.6999 31.9999 49.4999 31.7999 49.2999C31.5999 49.0999 31.4999 48.7999 31.2999 48.5999C31.1999 48.2999 31.0999 47.9999 30.9999 47.6999C30.8999 47.3999 30.8999 47.0999 30.8999 46.7999C30.8999 46.4999 30.8999 46.1999 30.9999 45.8999C31.0999 45.5999 31.0999 45.2999 31.2999 44.9999C31.3999 44.6999 31.5999 44.4999 31.7999 44.2999C31.9999 44.0999 32.1999 43.8999 32.4999 43.7999C32.7999 43.6999 33.0999 43.5999 33.4999 43.5999C33.8999 43.5999 34.1999 43.6999 34.4999 43.7999C34.7999 43.8999 34.9999 44.0999 35.1999 44.2999C35.3999 44.4999 35.4999 44.7999 35.6999 44.9999C35.7999 45.2999 35.8999 45.5999 35.9999 45.8999C36.0999 46.1999 36.0999 46.4999 36.0999 46.7999C36.0999 47.0999 36.0999 47.3999 35.9999 47.6999C35.8999 47.9999 35.8999 48.2999 35.6999 48.5999C35.5999 48.8999 35.3999 49.0999 35.1999 49.2999C35.0999 49.4999 34.7999 49.6999 34.4999 49.7999ZM32.6999 49.2999C32.9999 49.4999 33.2999 49.4999 33.5999 49.4999C33.8999 49.4999 34.2999 49.3999 34.4999 49.2999C34.7999 49.0999 34.9999 48.8999 35.0999 48.5999C35.1999 48.2999 35.3999 47.9999 35.3999 47.6999C35.4999 47.3999 35.4999 47.0999 35.4999 46.6999C35.4999 46.2999 35.4999 45.9999 35.3999 45.6999C35.2999 45.3999 35.1999 45.0999 35.0999 44.7999C34.9999 44.4999 34.6999 44.2999 34.4999 44.1999C34.1999 44.0999 33.8999 43.9999 33.5999 43.9999C33.1999 43.9999 32.8999 44.0999 32.6999 44.1999C32.3999 44.3999 32.1999 44.5999 32.0999 44.8999C31.9999 45.1999 31.7999 45.4999 31.7999 45.7999C31.6999 46.0999 31.6999 46.3999 31.6999 46.7999C31.6999 47.1999 31.6999 47.4999 31.7999 47.7999C31.8999 48.0999 31.9999 48.3999 32.0999 48.6999C32.1999 48.9999 32.3999 49.1999 32.6999 49.2999Z" fill="white"/>
<path d="M39.4002 44.0999V49.9H38.9002V44.0999H37.2002V43.7H41.1002V44.0999H39.4002Z" fill="white"/>
<path d="M50.2001 49.8999H49.7001V45.3999V44.9999C49.7001 44.9999 49.7001 45.0999 49.6001 45.1999C49.6001 45.2999 49.5001 45.3999 49.5001 45.3999L47.6001 49.9999L45.7001 45.2999C45.6001 45.0999 45.6001 44.9999 45.6001 44.8999V45.2999V49.7999H45.1001V43.5999H45.5001L47.5001 48.3999C47.5001 48.4999 47.6001 48.5999 47.7001 48.7999C47.7001 48.6999 47.8001 48.5999 47.9001 48.3999L49.9001 43.5999H50.3001V49.8999H50.2001Z" fill="white"/>
<path d="M55.9998 49.9L55.3998 48.2H52.8998L52.2998 49.9H51.7998L53.8998 43.7H54.2998L56.3998 49.9H55.9998ZM55.2998 47.7999L54.3998 45.2C54.2998 44.8 54.1998 44.6 54.1998 44.4C54.1998 44.5 54.0998 44.8 53.9998 45.2L53.0998 47.7999H55.2998Z" fill="white"/>
<path d="M58.2998 49.9V43.7H60.4998C61.0998 43.7 61.5998 43.9 61.8998 44.2C62.1998 44.5 62.2998 44.9 62.2998 45.4C62.2998 45.8 62.1998 46.2 61.8998 46.5C61.5998 46.8 61.1998 46.9999 60.6998 47.0999L62.0998 50H61.5998L60.1998 47.2H58.6998V50H58.2998V49.9ZM58.7998 46.5999H60.4998C60.9998 46.5999 61.2998 46.5 61.4998 46.2C61.6998 46 61.7998 45.6999 61.7998 45.2999C61.7998 45.1999 61.7998 45 61.6998 44.9C61.6998 44.8 61.5998 44.6 61.4998 44.5C61.3998 44.4 61.2998 44.3 61.0998 44.2C60.8998 44.1 60.6998 44.0999 60.3998 44.0999H58.6998V46.5999H58.7998Z" fill="white"/>
<path d="M67.9999 49.9L65.9999 46.2L64.8999 47.5999V49.9H64.3999V43.7H64.8999V46.9L67.4999 43.7H67.9999L66.2999 45.7999L68.4999 49.9H67.9999Z" fill="white"/>
<path d="M70.3999 49.9V43.7H73.7999V44.0999H70.8999V46.4H72.8999V46.7999H70.8999V49.2999H73.9999V49.7H70.3999V49.9Z" fill="white"/>
<path d="M77.8001 44.0999V49.9H77.3001V44.0999H75.6001V43.7H79.5001V44.0999H77.8001Z" fill="white"/>
<path d="M86.7001 49.9L86.1001 48.2H83.6001L83.0001 49.9H82.6001L84.7001 43.7H85.1001L87.2001 49.9H86.7001ZM86.0001 47.7999L85.1001 45.2C85.0001 44.8 84.9001 44.6 84.9001 44.4C84.9001 44.5 84.8001 44.8 84.7001 45.2L83.8001 47.7999H86.0001Z" fill="white"/>
<path d="M91.0001 50C90.6001 50 90.2001 49.9 89.9001 49.7C89.6001 49.5 89.3001 49.3 89.1001 49C88.9001 48.7 88.8001 48.4 88.7001 48C88.6001 47.6 88.6001 47.2 88.6001 46.8C88.6001 46.2 88.7001 45.7 88.9001 45.2C89.1001 44.7 89.3001 44.3 89.7001 44C90.1001 43.7 90.5001 43.5 91.1001 43.5C91.9001 43.5 92.5001 43.8 92.9001 44.4L92.5001 44.7C92.2001 44.2 91.7001 44 91.1001 44C90.7001 44 90.4001 44.1 90.2001 44.2C89.9001 44.4 89.7001 44.6 89.6001 44.9C89.5001 45.2 89.3001 45.5 89.3001 45.8C89.2001 46.1 89.2001 46.4 89.2001 46.8C89.2001 47.3 89.3001 47.8 89.4001 48.2C89.5001 48.6 89.7001 48.9 90.1001 49.2C90.4001 49.5 90.8001 49.6 91.2001 49.6C91.7001 49.6 92.1001 49.4 92.3001 49.1C92.5001 48.8 92.7001 48.3 92.7001 47.7V47.5H91.5001V47H93.2001V47.5C93.2001 48.3 93.0001 48.9 92.6001 49.3C92.1001 49.8 91.6001 50 91.0001 50Z" fill="white"/>
<path d="M95.2002 49.9V43.7H98.6002V44.0999H95.6002V46.4H97.6002V46.7999H95.6002V49.2999H98.7002V49.7H95.2002V49.9Z" fill="white"/>
<path d="M105 49.9H104.5L101.5 45C101.3 44.7 101.3 44.5999 101.2 44.5999V45V49.9H100.7V43.7H101.2L104.2 48.5999C104.3 48.6999 104.3 48.8 104.5 49V48.5999V43.7H105V49.9Z" fill="white"/>
<path d="M109.5 49.9999C108.9 49.9999 108.5 49.7999 108.1 49.4999C107.7 49.1999 107.4 48.7999 107.3 48.2999C107.1 47.7999 107.1 47.2999 107.1 46.6999C107.1 46.3999 107.1 45.9999 107.2 45.6999C107.3 45.3999 107.4 45.0999 107.5 44.7999C107.6 44.4999 107.8 44.2999 108 44.0999C108.2 43.8999 108.4 43.6999 108.7 43.5999C109 43.4999 109.3 43.3999 109.6 43.3999C110.1 43.3999 110.5 43.4999 110.7 43.6999C111 43.8999 111.2 44.0999 111.4 44.3999L111 44.5999C110.8 44.3999 110.7 44.1999 110.4 43.9999C110.2 43.8999 109.9 43.7999 109.5 43.7999C109.1 43.7999 108.7 43.8999 108.4 44.1999C108.1 44.4999 107.9 44.7999 107.7 45.1999C107.6 45.5999 107.5 45.9999 107.5 46.4999C107.5 47.2999 107.7 47.8999 108 48.4999C108.3 48.9999 108.8 49.2999 109.5 49.2999C110.2 49.2999 110.7 48.9999 111 48.3999L111.4 48.5999C111.2 48.8999 111 49.1999 110.7 49.3999C110.4 49.8999 110 49.9999 109.5 49.9999Z" fill="white"/>
<path d="M114.8 49.9V47.5L112.8 43.7H113.3L115 47L116.8 43.7H117.3L115.3 47.4V49.9H114.8Z" fill="white"/>
<path d="M119.5 47.3999V43.9999H118.5V43.5999H121V43.9999H120V47.3999H119.5ZM124.2 47.3999H123.8V44.9999L123.7 45.2999L122.8 47.4999L121.9 45.2999L121.8 44.9999V47.3999H121.4V43.6999H121.7L122.8 46.2999L122.9 46.4999L123 46.2999L124.1 43.6999H124.4V47.3999H124.2Z" fill="white"/>
<path d="M49.8 16H47.1V7.60005C47.1 6.90005 47.1 6.30005 47.2 5.70005C47 6.20005 46.8 6.90005 46.5 7.60005L42.7 16.2L38.9 7.60005C38.6 7.00005 38.3 6.40005 38.1 5.70005C38.2 6.30005 38.2 6.90005 38.2 7.60005V16H35.5V0.300049H38.2L42.2 9.50005C42.4 9.90005 42.5 10.3 42.6 10.7C42.7 10.3 42.9 10 43 9.50005L47.1 0.300049H49.7V16H49.8Z" fill="white"/>
<path d="M52.2002 16V0.300049H62.4002V2.80005H54.9002V6.60005H59.5002V9.10005H54.9002V13.4H62.9002V16H52.2002Z" fill="white"/>
<path d="M64.7002 16V0.300049H71.6002C73.4002 0.300049 74.7002 0.700049 75.5002 1.60005C76.3002 2.50005 76.7002 3.60005 76.7002 5.00005C76.7002 6.00005 76.4002 6.90005 75.9002 7.70005C75.4002 8.60005 74.6002 9.20005 73.6002 9.50005L76.7002 15.9H73.7002L70.7002 9.80005H67.4002V16H64.7002ZM67.4002 7.30005H71.7002C72.5002 7.30005 73.1002 7.10005 73.5002 6.70005C73.9002 6.30005 74.1002 5.80005 74.1002 5.10005C74.1002 4.50005 73.9002 3.90005 73.6002 3.50005C73.2002 3.10005 72.6002 2.90005 71.8002 2.90005H67.5002V7.30005H67.4002Z" fill="white"/>
<path d="M84.9 16.2C83.7 16.2 82.7 16 81.8 15.5C80.9 15 80.2 14.4 79.6 13.7C79.1 12.9 78.7 12.1 78.4 11.1C78.1 10.2 78 9.2 78 8.1C78 7.3 78.1 6.6 78.3 5.8C78.5 5 78.7 4.3 79.1 3.6C79.5 2.9 79.9 2.3 80.4 1.8C80.9 1.3 81.6 0.8 82.3 0.5C83.2 0.2 84 0 84.9 0C86.3 0 87.4 0.3 88.2 0.8C89 1.4 89.8 2.1 90.4 3.1L88 4.5C87.1 3.2 86.1 2.6 84.9 2.6C84.2 2.6 83.5 2.8 82.9 3.1C82.3 3.4 81.9 3.9 81.6 4.4C81.3 5 81.1 5.5 81 6.2C80.9 6.8 80.8 7.4 80.8 8.1C80.8 9.7 81.1 11 81.8 12C82.5 13.1 83.5 13.6 84.9 13.6C85.8 13.6 86.5 13.3 87.1 12.7C87.7 12.1 88 11.4 88 10.6V10.4H85.2V7.9H90.7V10.1C90.7 12 90.2 13.5 89.1 14.6C88 15.7 86.6 16.2 84.9 16.2Z" fill="white"/>
<path d="M92.7002 16V0.300049H102.9V2.80005H95.4002V6.60005H100V9.10005H95.4002V13.4H103.4V16H92.7002Z" fill="white"/>
<path d="M41.8 21.2999V35.0999H39.9V21.2999H35.5V19.3999H46.2V21.2999H41.8Z" fill="white"/>
<path d="M49.6001 35.0999V19.3999H55.8001C57.5001 19.3999 58.8001 19.7999 59.6001 20.6999C60.4001 21.5999 60.8001 22.5999 60.8001 23.8999C60.8001 24.8999 60.5001 25.8999 59.9001 26.6999C59.3001 27.4999 58.4001 27.9999 57.2001 28.2999L60.6001 35.1999H58.4001L55.2001 28.4999H51.7001V35.1999H49.6001V35.0999ZM51.5001 26.5999H55.8001C56.8001 26.5999 57.6001 26.2999 58.0001 25.7999C58.5001 25.2999 58.7001 24.6999 58.7001 23.8999C58.7001 23.1999 58.5001 22.5999 58.0001 21.9999C57.5001 21.4999 56.8001 21.1999 55.7001 21.1999H51.4001V26.5999H51.5001Z" fill="white"/>
<path d="M73.8 35.0999L72.5 31.2999H66.3L65 35.0999H63L68.6 19.3999H70.4L76 35.0999H73.8ZM71.9 29.4999L69.9 23.6999C69.6 22.9999 69.5 22.3999 69.4 22.0999C69.2 22.6999 69.1 23.1999 68.9 23.6999L66.9 29.4999H71.9Z" fill="white"/>
<path d="M90.2002 35.0999H88.3002L81.2002 23.8999C80.9002 23.4999 80.7002 23.0999 80.6002 22.7999C80.6002 23.1999 80.6002 23.5999 80.6002 23.8999V35.0999H78.7002V19.3999H80.7002L87.6002 30.5999C87.8002 30.9999 88.1002 31.3999 88.2002 31.7999C88.2002 31.2999 88.2002 30.8999 88.2002 30.6999V19.3999H90.1002V35.0999H90.2002Z" fill="white"/>
<path d="M98.8999 35.4001C97.5999 35.4001 96.3999 35.1001 95.3999 34.4001C94.3999 33.8001 93.7999 32.9001 93.3999 31.9001L95.1999 31.2001C95.4999 31.9001 95.9999 32.5001 96.6999 32.9001C97.2999 33.3001 98.0999 33.5001 98.8999 33.5001C99.8999 33.5001 100.6 33.3001 101.2 32.8001C101.8 32.3001 102 31.7001 102 30.8001C102 30.0001 101.7 29.3001 101.1 28.8001C100.5 28.3001 99.5999 27.9001 98.4999 27.5001C97.9999 27.3001 97.4999 27.1001 97.1999 27.0001C96.7999 26.9001 96.3999 26.6001 95.9999 26.4001C95.4999 26.1001 95.1999 25.8001 94.8999 25.5001C94.5999 25.2001 94.3999 24.8001 94.1999 24.4001C93.9999 24.0001 93.8999 23.5001 93.8999 23.0001C93.8999 21.9001 94.2999 21.0001 95.1999 20.2001C96.0999 19.5001 97.1999 19.1001 98.6999 19.1001C99.8999 19.1001 100.9 19.4001 101.7 19.9001C102.5 20.4001 103 21.1001 103.3 21.9001L101.5 22.5001C101.3 22.0001 100.9 21.7001 100.4 21.4001C99.8999 21.1001 99.2999 21.0001 98.4999 21.0001C97.6999 21.0001 96.9999 21.2001 96.5999 21.5001C96.0999 21.9001 95.8999 22.4001 95.8999 23.0001C95.8999 23.3001 95.9999 23.7001 96.1999 23.9001C96.3999 24.2001 96.5999 24.4001 96.9999 24.7001C97.3999 24.9001 97.6999 25.1001 97.9999 25.2001C98.2999 25.3001 98.6999 25.5001 99.2999 25.7001C99.9999 26.0001 100.6 26.2001 101 26.4001C101.4 26.6001 101.9 26.9001 102.5 27.3001C103 27.7001 103.4 28.2001 103.7 28.7001C104 29.3001 104.1 29.9001 104.1 30.7001C104.1 32.1001 103.6 33.2001 102.7 34.0001C101.7 35.0001 100.5 35.4001 98.8999 35.4001Z" fill="white"/>
<path d="M109.8 19.3999H107.9V35.0999H109.8V19.3999Z" fill="white"/>
<path d="M119.8 21.2999V35.0999H117.8V21.2999H113.4V19.3999H124.1V21.2999H119.8Z" fill="white"/>
<path d="M4 19L0 20.8V35.2L4 33.4V19Z" fill="white"/>
<path d="M16 0.300049L19.7 3.20005L0 11.9V16.3V16.4L21.3 6.90005V11.3L30.1 0.300049H16Z" fill="white"/>
<path d="M21.3002 11.3L17.2002 13.1V35.2001L21.3002 33.5V11.3Z" fill="white"/>
<path d="M12.7002 15.1001L10.7002 19.7001L8.7002 16.9001V35.2001L12.7002 33.4001V15.1001Z" fill="white"/>
</svg>
