<svg width="480" height="439" viewBox="0 0 480 439" fill="none" xmlns="http://www.w3.org/2000/svg">
<path d="M456 392C456 395.866 452.866 399 449 399C445.134 399 442 395.866 442 392C442 388.134 445.134 385 449 385C452.866 385 456 388.134 456 392Z" fill="white"/>
<path d="M413.492 39.3763V40.6448C413.492 43.9429 412.476 46.2262 410.19 47.241C412.984 48.2558 414 50.7928 414 54.3446V57.1353C414 62.2093 411.206 65 406.127 65H398V32.019H405.873C411.206 31.7653 413.492 34.0486 413.492 39.3763ZM403.079 36.3319V44.9577H405.111C407.143 44.9577 408.159 44.1966 408.159 41.4059V39.63C408.159 37.3467 407.397 36.3319 405.619 36.3319H403.079ZM403.079 49.778V59.926H406.127C407.905 59.926 408.921 59.1649 408.921 56.6279V53.8372C408.921 50.7928 407.905 49.778 405.619 49.778H403.079Z" fill="white"/>
<path d="M81.4921 280.376V281.645C81.4921 284.943 80.4762 287.226 78.1905 288.241C80.9841 289.256 82 291.793 82 295.345V298.135C82 303.209 79.2064 306 74.127 306H66V273.019H73.873C79.2064 272.765 81.4921 275.049 81.4921 280.376ZM71.0794 277.332V285.958H73.1111C75.1428 285.958 76.1587 285.197 76.1587 282.406V280.63C76.1587 278.347 75.3968 277.332 73.6191 277.332H71.0794ZM71.0794 290.778V300.926H74.127C75.9048 300.926 76.9206 300.165 76.9206 297.628V294.837C76.9206 291.793 75.9048 290.778 73.6191 290.778H71.0794Z" fill="white"/>
<path d="M42.9997 414C39.333 393.5 -36.5169 258.629 30.9998 246.5C114.5 231.5 23.4996 72.5 281 140.5C349.237 158.52 306 73 382.5 48.5" stroke="white" stroke-width="6"/>
<path d="M99 294.002C153.116 279.502 235 478.499 453 390.5" stroke="white" stroke-width="6"/>
<path d="M32 439H25.5833L24.4375 432.966H16.875L15.7292 439H10L16.4167 406H25.5833L32 439ZM17.7916 428.629H23.75L20.7708 412.034L17.7916 428.629Z" fill="white"/>
<path d="M479.707 391H474.543L473.62 384.966H467.534L466.611 391H462L467.165 358H474.543L479.707 391ZM468.271 380.629H473.067L470.669 364.034L468.271 380.629Z" fill="white"/>
<circle cx="42" cy="413" r="7" fill="white"/>
<circle cx="99" cy="293" r="7" fill="white"/>
<path d="M210 123C210 126.866 206.866 130 203 130C199.134 130 196 126.866 196 123C196 119.134 199.134 116 203 116C206.866 116 210 119.134 210 123Z" fill="#FF5757"/>
<path d="M373 413C373 416.866 369.866 420 366 420C362.134 420 359 416.866 359 413C359 409.134 362.134 406 366 406C369.866 406 373 409.134 373 413Z" fill="#FF5757"/>
<circle cx="382" cy="49" r="7" fill="white"/>
<path d="M269.101 0H136.083C131.739 0 128.185 3.54913 128.185 7.88695V90.4633C128.185 94.8011 131.739 98.3503 136.083 98.3503H191.376L196.905 103.713L202.592 109.234L208.279 103.713L213.809 98.3503H269.101C273.445 98.3503 277 94.8011 277 90.4633V7.88695C277 3.54913 273.445 0 269.101 0Z" fill="#E7F5FF"/>
<path d="M134.899 0H181.423V98.3503H134.899C130.555 98.3503 127 94.8011 127 90.4633V7.88695C127 3.54913 130.476 0 134.899 0Z" fill="#B0DDFF"/>
<path d="M263.177 20.2694H196.037C194.773 20.2694 193.667 19.2441 193.667 17.9033C193.667 16.5625 194.773 15.5372 196.037 15.5372H263.177C264.441 15.5372 265.547 16.5625 265.547 17.9033C265.547 19.2441 264.441 20.2694 263.177 20.2694Z" fill="#B0DDFF"/>
<path d="M263.177 71.298H196.037C194.773 71.298 193.667 70.1938 193.667 68.9319C193.667 67.67 194.773 66.5658 196.037 66.5658H263.177C264.441 66.5658 265.547 67.5911 265.547 68.9319C265.547 70.2727 264.441 71.298 263.177 71.298Z" fill="white"/>
<path d="M239.797 31.469H196.037C194.773 31.469 193.667 30.4437 193.667 29.1029C193.667 27.841 194.773 26.7368 196.037 26.7368H239.797C241.06 26.7368 242.166 27.7621 242.166 29.1029C242.166 30.4437 241.139 31.469 239.797 31.469Z" fill="#B0DDFF"/>
<path d="M167.995 64.1998H142.718C141.454 64.1998 140.349 63.1745 140.349 61.8337C140.349 60.5718 141.454 59.4677 142.718 59.4677H167.995C169.338 59.4677 170.364 60.5718 170.364 61.8337C170.364 63.0957 169.338 64.1998 167.995 64.1998Z" fill="#E7F5FF"/>
<path d="M170.365 72.0866H140.349C139.006 72.0866 137.979 71.0613 137.979 69.7206C137.979 68.4587 139.006 67.3545 140.349 67.3545H170.365C171.629 67.3545 172.735 68.4587 172.735 69.7206C172.735 71.0613 171.708 72.0866 170.365 72.0866Z" fill="#E7F5FF"/>
<path d="M235.057 41.8016V44.01L231.266 58.1276H228.659L232.451 44.0888H227.316V41.7227H235.057V41.8016Z" fill="#25416D"/>
<path d="M236.559 45.7443C236.559 43.1416 237.98 41.6431 240.508 41.6431C243.036 41.6431 244.458 43.1416 244.458 45.7443V54.2622C244.458 56.8649 243.036 58.3634 240.508 58.3634C237.98 58.3634 236.559 56.8649 236.559 54.2622V45.7443ZM239.086 54.42C239.086 55.603 239.639 55.9973 240.429 55.9973C241.219 55.9973 241.772 55.5241 241.772 54.42V45.5866C241.772 44.4035 241.219 44.0092 240.429 44.0092C239.639 44.0092 239.086 44.4824 239.086 45.5866V54.42Z" fill="#25416D"/>
<path d="M245.879 44.3246C245.879 42.6684 246.748 41.7219 248.328 41.7219C249.907 41.7219 250.776 42.6684 250.776 44.3246V49.6877C250.776 51.344 249.907 52.2904 248.328 52.2904C246.748 52.2904 245.879 51.344 245.879 49.6877V44.3246ZM247.538 49.8455C247.538 50.5553 247.854 50.8708 248.407 50.8708C248.959 50.8708 249.275 50.5553 249.275 49.8455V44.2457C249.275 43.5359 248.959 43.2204 248.407 43.2204C247.854 43.2204 247.538 43.5359 247.538 44.2457V49.8455ZM254.884 41.8008H256.384L249.907 58.2057H248.407L254.884 41.8008ZM254.015 50.3187C254.015 48.6624 254.884 47.716 256.463 47.716C258.043 47.716 258.912 48.6624 258.912 50.3187V55.6818C258.912 57.3381 258.043 58.2845 256.463 58.2845C254.884 58.2845 254.015 57.3381 254.015 55.6818V50.3187ZM255.674 55.8396C255.674 56.5494 255.989 56.8649 256.542 56.8649C257.095 56.8649 257.411 56.5494 257.411 55.8396V50.2398C257.411 49.53 257.095 49.2145 256.542 49.2145C255.989 49.2145 255.674 49.53 255.674 50.2398V55.8396Z" fill="#25416D"/>
<path d="M242.64 71.298H195.958C194.694 71.298 193.588 70.1938 193.588 68.9319C193.588 67.67 194.694 66.5658 195.958 66.5658H242.64C243.904 66.5658 245.01 67.5911 245.01 68.9319C245.01 70.2727 243.983 71.298 242.64 71.298Z" fill="#6CB8FF"/>
<path d="M198.801 85.81H197.143L196.827 83.9171H194.852L194.536 85.81H193.035L194.694 75.5569H197.064L198.801 85.81ZM195.089 82.4975H196.669L195.879 77.2921L195.089 82.4975Z" fill="#25416D"/>
<path d="M266.1 77.9231V78.3174C266.1 79.3427 265.784 80.0525 265.073 80.368C265.942 80.6835 266.258 81.4722 266.258 82.5764V83.4439C266.258 85.0213 265.389 85.8889 263.809 85.8889H261.281V75.6358H263.73C265.389 75.557 266.1 76.2668 266.1 77.9231ZM262.94 76.9766V79.6582H263.572C264.204 79.6582 264.52 79.4216 264.52 78.554V78.0019C264.52 77.2921 264.283 76.9766 263.73 76.9766H262.94ZM262.94 81.1567V84.3115H263.888C264.441 84.3115 264.757 84.0749 264.757 83.2862V82.4186C264.757 81.4722 264.441 81.1567 263.73 81.1567H262.94Z" fill="#25416D"/>
<path d="M196.195 72.8753C198.376 72.8753 200.144 71.1098 200.144 68.9318C200.144 66.7539 198.376 64.9884 196.195 64.9884C194.013 64.9884 192.245 66.7539 192.245 68.9318C192.245 71.1098 194.013 72.8753 196.195 72.8753Z" fill="#6CB8FF" stroke="#D8EEFF" stroke-miterlimit="10"/>
<path d="M262.703 72.8753C264.885 72.8753 266.653 71.1098 266.653 68.9318C266.653 66.7539 264.885 64.9884 262.703 64.9884C260.522 64.9884 258.754 66.7539 258.754 68.9318C258.754 71.1098 260.522 72.8753 262.703 72.8753Z" fill="white" stroke="#D8EEFF" stroke-miterlimit="10"/>
<path d="M243.509 74.2161C246.432 74.2161 248.801 71.8503 248.801 68.9319C248.801 66.0135 246.432 63.6476 243.509 63.6476C240.586 63.6476 238.217 66.0135 238.217 68.9319C238.217 71.8503 240.586 74.2161 243.509 74.2161Z" fill="#6CB8FF"/>
<path d="M174.946 31.2323C174.946 36.4377 172.893 41.091 169.654 44.6401C166.099 48.4258 161.044 50.7919 155.436 50.7919C149.828 50.7919 144.772 48.4258 141.218 44.6401C137.9 41.1699 135.847 36.4377 135.847 31.2323C135.847 20.4272 144.614 11.7515 155.357 11.7515C166.178 11.6727 174.946 20.4272 174.946 31.2323Z" fill="white"/>
<path d="M163.809 26.8155C163.572 26.5789 163.335 26.4212 163.019 26.3423C163.019 26.3423 162.94 25.2381 162.466 24.0551L163.177 23.6607L164.046 24.4494C164.046 24.3706 163.809 26.8155 163.809 26.8155Z" fill="#25416D"/>
<path d="M169.575 44.5611C166.02 48.3469 160.965 50.713 155.357 50.713C149.748 50.713 144.693 48.3469 141.139 44.5611C142.481 42.1162 145.088 40.4599 148.09 40.4599H162.624C165.704 40.4599 168.232 42.1162 169.575 44.5611Z" fill="#6CB8FF"/>
<path d="M163.097 26.2633V26.1845C163.097 21.0579 159.701 16.9567 155.514 16.9567C151.328 16.9567 147.931 21.0579 147.931 26.1845V26.2633C147.062 26.5788 146.352 27.683 146.352 29.0238C146.352 30.4434 147.141 31.6264 148.168 31.7842C148.8 34.308 150.459 36.3586 152.592 37.3051L151.407 40.4598L155.277 43.6146H155.435L159.306 40.4598L158.121 37.3051C160.333 36.3586 161.991 34.308 162.623 31.7842C163.729 31.7053 164.598 30.5223 164.598 29.0238C164.598 27.683 163.966 26.5788 163.097 26.2633Z" fill="#FFEFEF"/>
<path d="M147.22 26.8155C147.457 26.5789 147.694 26.4212 148.01 26.3423C148.01 26.3423 148.089 25.2381 148.563 24.0551L147.852 23.6607L146.983 24.4494C146.983 24.3706 147.141 26.8155 147.22 26.8155Z" fill="#25416D"/>
<path d="M163.967 24.1339C163.967 19.0863 160.096 14.985 155.357 14.985C150.618 14.985 146.747 19.0863 146.747 24.1339C146.747 24.2128 146.747 24.2916 146.747 24.4494H147.774C147.932 26.6577 151.249 27.4464 155.278 27.4464C159.306 27.4464 162.624 26.6577 162.782 24.4494H163.809C163.967 24.2916 163.967 24.2128 163.967 24.1339Z" fill="#B0DDFF"/>
<path d="M163.097 24.3706C163.097 24.3706 162.623 27.762 155.435 27.762C147.694 27.762 147.773 24.3706 147.773 24.3706C147.773 24.3706 151.328 23.6607 155.514 23.6607C159.701 23.6607 163.097 24.3706 163.097 24.3706Z" fill="#6CB8FF"/>
<path d="M148.248 31.942C147.932 30.6012 147.616 25.9479 147.853 26.3422C148.327 27.0521 147.932 30.0491 150.144 32.8884C150.934 33.8348 154.251 32.4941 155.199 32.4941C156.779 32.5729 158.359 33.3616 159.228 33.5982C162.229 34.3081 162.782 27.3675 163.019 26.1056C163.177 25.3169 163.335 26.8943 162.782 31.6265C162.624 32.8884 160.412 38.0938 155.436 38.0149C149.907 37.9361 148.248 31.942 148.248 31.942Z" fill="#25416D"/>
<path d="M158.2 34.1504C158.121 34.6236 156.462 35.018 155.357 35.018C154.251 35.018 152.75 34.5447 152.75 34.0715C152.75 33.8349 154.409 34.1504 155.436 34.1504C156.541 34.1504 158.2 33.9138 158.2 34.1504Z" fill="white"/>
<path d="M437.56 282H295.439C290.798 282 287 285.574 287 289.942V373.097C287 377.466 290.798 381.04 295.439 381.04H354.516L360.424 386.44L366.5 392L372.576 386.44L378.484 381.04H437.56C442.202 381.04 446 377.466 446 373.097V289.942C446 285.574 442.202 282 437.56 282Z" fill="#E7F5FF"/>
<path d="M294.962 282H341.857V381.133H294.962C290.583 381.133 287 377.556 287 373.184V289.95C287 285.577 290.583 282 294.962 282Z" fill="#B0DDFF"/>
<path d="M422.988 302.431H355.312C354.038 302.431 352.924 301.397 352.924 300.046C352.924 298.694 353.959 297.661 355.312 297.661H422.988C424.261 297.661 425.376 298.694 425.376 300.046C425.376 301.397 424.341 302.431 422.988 302.431Z" fill="#B0DDFF"/>
<path d="M422.988 353.866H355.312C354.038 353.866 352.924 352.753 352.924 351.481C352.924 350.209 353.959 349.096 355.312 349.096H422.988C424.261 349.096 425.376 350.129 425.376 351.481C425.376 352.832 424.341 353.866 422.988 353.866Z" fill="white"/>
<path d="M399.5 313.719H355.312C354.038 313.719 352.924 312.686 352.924 311.334C352.924 310.062 353.959 308.95 355.312 308.95H399.421C400.774 308.95 401.809 309.983 401.809 311.334C401.889 312.686 400.774 313.719 399.5 313.719Z" fill="#B0DDFF"/>
<path d="M327.127 346.711H301.649C300.375 346.711 299.261 345.677 299.261 344.326C299.261 343.054 300.296 341.941 301.649 341.941H327.127C328.401 341.941 329.516 343.054 329.516 344.326C329.516 345.598 328.48 346.711 327.127 346.711Z" fill="#E7F5FF"/>
<path d="M329.516 354.661H299.262C297.988 354.661 296.873 353.627 296.873 352.276C296.873 351.004 297.908 349.891 299.262 349.891H329.516C330.79 349.891 331.905 351.004 331.905 352.276C331.905 353.627 330.87 354.661 329.516 354.661Z" fill="#E7F5FF"/>
<path d="M378.003 353.866H354.675C353.72 353.866 352.924 353.071 352.924 352.117V350.765C352.924 349.811 353.72 349.016 354.675 349.016H378.003C378.959 349.016 379.755 349.811 379.755 350.765V352.117C379.675 353.15 378.959 353.866 378.003 353.866Z" fill="#6CB8FF"/>
<path d="M358.178 368.493H356.506L356.188 366.585H354.197L353.879 368.493H352.366L354.038 358.158H356.427L358.178 368.493ZM354.436 365.154H356.029L355.232 359.907L354.436 365.154Z" fill="#25416D"/>
<path d="M434.054 360.543V360.941C434.054 361.974 433.735 362.69 433.019 363.008C433.895 363.326 434.213 364.121 434.213 365.234V366.108C434.213 367.698 433.337 368.573 431.745 368.573H429.197V358.238H431.665C433.337 358.159 434.054 358.874 434.054 360.543ZM430.79 359.589V362.292H431.427C432.063 362.292 432.382 362.054 432.382 361.179V360.623C432.382 359.907 432.143 359.589 431.586 359.589H430.79ZM430.79 363.803V366.983H431.745C432.302 366.983 432.621 366.744 432.621 365.949V365.075C432.621 364.121 432.302 363.803 431.586 363.803H430.79Z" fill="#25416D"/>
<path d="M355.551 355.456C357.75 355.456 359.532 353.676 359.532 351.481C359.532 349.285 357.75 347.506 355.551 347.506C353.353 347.506 351.57 349.285 351.57 351.481C351.57 353.676 353.353 355.456 355.551 355.456Z" fill="#6CB8FF" stroke="#D8EEFF" stroke-miterlimit="10"/>
<path d="M430.551 355.456C432.75 355.456 434.532 353.676 434.532 351.481C434.532 349.285 432.75 347.506 430.551 347.506C428.353 347.506 426.57 349.285 426.57 351.481C426.57 353.676 428.353 355.456 430.551 355.456Z" fill="white" stroke="#D8EEFF" stroke-miterlimit="10"/>
<path d="M377.367 356.807C380.313 356.807 382.701 354.422 382.701 351.481C382.701 348.539 380.313 346.154 377.367 346.154C374.421 346.154 372.032 348.539 372.032 351.481C372.032 354.422 374.421 356.807 377.367 356.807Z" fill="#6CB8FF"/>
<path d="M365.185 326.28C364.389 326.28 363.831 326.757 363.831 327.87V329.619H361.363V328.029C361.363 325.406 362.717 323.895 365.265 323.895C367.812 323.895 369.166 325.406 369.166 328.029C369.166 333.196 363.991 335.184 363.991 337.887C363.991 337.966 363.991 338.125 363.991 338.205H368.927V340.59H361.443V338.523C361.443 333.673 366.618 332.878 366.618 328.108C366.538 326.677 365.981 326.28 365.185 326.28Z" fill="#25416D"/>
<path d="M370.52 328.108C370.52 325.485 371.953 323.975 374.5 323.975C377.048 323.975 378.481 325.485 378.481 328.108V336.694C378.481 339.318 377.048 340.828 374.5 340.828C371.953 340.828 370.52 339.318 370.52 336.694V328.108ZM373.147 336.853C373.147 338.046 373.704 338.443 374.5 338.443C375.297 338.443 375.854 337.966 375.854 336.853V327.949C375.854 326.757 375.297 326.359 374.5 326.359C373.704 326.359 373.147 326.836 373.147 327.949V336.853Z" fill="#25416D"/>
<path d="M379.914 326.678C379.914 325.008 380.79 324.054 382.382 324.054C383.975 324.054 384.85 325.008 384.85 326.678V332.083C384.85 333.753 383.975 334.707 382.382 334.707C380.79 334.707 379.914 333.753 379.914 332.083V326.678ZM381.586 332.242C381.586 332.958 381.905 333.276 382.462 333.276C383.019 333.276 383.338 332.958 383.338 332.242V326.598C383.338 325.883 383.019 325.565 382.462 325.565C381.905 325.565 381.586 325.883 381.586 326.598V332.242ZM388.991 324.134H390.503L383.975 340.669H382.462L388.991 324.134ZM388.115 332.719C388.115 331.05 388.991 330.096 390.583 330.096C392.175 330.096 393.051 331.05 393.051 332.719V338.125C393.051 339.795 392.175 340.749 390.583 340.749C388.991 340.749 388.115 339.795 388.115 338.125V332.719ZM389.787 338.284C389.787 339 390.105 339.318 390.662 339.318C391.22 339.318 391.538 339 391.538 338.284V332.64C391.538 331.924 391.22 331.606 390.662 331.606C390.105 331.606 389.787 331.924 389.787 332.64V338.284Z" fill="#25416D"/>
<path d="M333.895 313.481C333.895 318.728 331.825 323.418 328.561 326.996C324.978 330.811 319.882 333.196 314.23 333.196C308.577 333.196 303.481 330.811 299.898 326.996C296.554 323.498 294.484 318.728 294.484 313.481C294.484 302.59 303.322 293.845 314.15 293.845C325.137 293.766 333.895 302.59 333.895 313.481Z" fill="white"/>
<path d="M322.669 309.029C322.43 308.791 322.191 308.632 321.873 308.552C321.873 308.552 321.793 307.439 321.315 306.247L322.032 305.77L322.908 306.565C322.908 306.565 322.749 309.029 322.669 309.029Z" fill="#25416D"/>
<path d="M328.561 326.916C324.978 330.732 319.883 333.117 314.23 333.117C308.577 333.117 303.481 330.732 299.898 326.916C301.252 324.452 303.879 322.782 306.905 322.782H321.554C324.58 322.782 327.207 324.452 328.561 326.916Z" fill="#6CB8FF"/>
<path d="M321.952 308.473V308.393C321.952 303.226 318.529 299.092 314.309 299.092C310.089 299.092 306.666 303.226 306.666 308.393V308.473C305.79 308.791 305.073 309.904 305.073 311.255C305.073 312.686 305.869 313.878 306.904 314.037C307.541 316.581 309.213 318.648 311.363 319.602L310.169 322.782L314.07 325.962H314.229L318.131 322.782L316.936 319.602C319.166 318.648 320.838 316.581 321.475 314.037C322.589 313.958 323.465 312.765 323.465 311.255C323.545 309.904 322.908 308.791 321.952 308.473Z" fill="#FFEFEF"/>
<path d="M305.95 309.029C306.189 308.791 306.427 308.632 306.746 308.552C306.746 308.552 306.826 307.439 307.303 306.247L306.587 305.77L305.711 306.565L305.95 309.029Z" fill="#25416D"/>
<path d="M322.908 306.326C322.908 301.238 319.007 297.104 314.23 297.104C309.453 297.104 305.552 301.238 305.552 306.326C305.552 306.406 305.552 306.485 305.552 306.644H306.587C306.746 308.87 310.09 309.665 314.15 309.665C318.211 309.665 321.555 308.87 321.714 306.644H322.749C322.908 306.485 322.908 306.406 322.908 306.326Z" fill="#B0DDFF"/>
<path d="M322.032 306.565C322.032 306.565 321.554 309.983 314.309 309.983C306.506 309.983 306.586 306.565 306.586 306.565C306.586 306.565 310.169 305.849 314.389 305.849C318.608 305.849 322.032 306.565 322.032 306.565Z" fill="#6CB8FF"/>
<path d="M307.064 314.196C306.746 312.845 306.428 308.155 306.666 308.552C307.144 309.268 306.746 312.288 308.975 315.15C309.771 316.104 313.115 314.753 314.071 314.753C315.663 314.832 317.256 315.627 318.131 315.866C321.157 316.581 321.714 309.586 321.953 308.314C322.112 307.519 322.271 309.109 321.714 313.878C321.555 315.15 319.326 320.397 314.31 320.318C308.736 320.238 307.064 314.196 307.064 314.196Z" fill="#25416D"/>
<path d="M317.096 316.422C317.017 316.899 315.345 317.297 314.23 317.297C313.115 317.297 311.603 316.82 311.603 316.343C311.603 316.104 313.275 316.422 314.31 316.422C315.424 316.422 317.096 316.184 317.096 316.422Z" fill="white"/>
</svg>
