<svg width="537" height="500" viewBox="0 0 537 500" fill="none" xmlns="http://www.w3.org/2000/svg">
<g clip-path="url(#clip0)">
<path d="M431.124 351.768C421.633 367.167 410.136 381.093 397.035 393.278C362.813 424.88 317.361 444.296 267.498 444.296C160.953 444.296 74.4609 356.053 74.4609 247.322C74.4609 138.591 160.819 50.3482 267.364 50.3482C318.163 50.3482 364.283 70.3 398.773 102.973C411.339 114.89 422.301 128.415 431.391 143.278" stroke="#D8EEFF" stroke-width="6" stroke-miterlimit="10" stroke-linecap="round"/>
<path d="M437 343L406 353.196L436.727 376L437 343Z" fill="#D8EEFF"/>
<path d="M437 148L435.521 116L406 139.23L437 148Z" fill="#D8EEFF"/>
<path d="M325.114 164.569H211.485C209.346 164.569 207.474 162.828 207.474 160.552C207.474 158.409 209.346 156.535 211.485 156.535H325.114C327.253 156.535 329.125 158.275 329.125 160.552C329.125 162.828 327.387 164.569 325.114 164.569Z" fill="#D8EEFF"/>
<path d="M265.492 164.569H210.415C208.811 164.569 207.474 163.23 207.474 161.623V159.347C207.474 157.74 208.811 156.401 210.415 156.401H265.492C267.096 156.401 268.433 157.74 268.433 159.347V161.623C268.299 163.364 266.963 164.569 265.492 164.569Z" fill="#6CB8FF"/>
<path d="M267.096 169.523C272.043 169.523 276.053 165.507 276.053 160.552C276.053 155.597 272.043 151.58 267.096 151.58C262.15 151.58 258.14 155.597 258.14 160.552C258.14 165.507 262.15 169.523 267.096 169.523Z" fill="#6CB8FF"/>
<path d="M319.366 0H216.164V128.682H319.366V0Z" fill="#B0DDFF"/>
<path d="M279.796 21.9604H230.334C229.398 21.9604 228.596 21.1569 228.596 20.2196V18.8806C228.596 17.9432 229.398 17.1398 230.334 17.1398H279.796C280.732 17.1398 281.534 17.9432 281.534 18.8806V20.2196C281.534 21.1569 280.732 21.9604 279.796 21.9604Z" fill="white"/>
<path d="M303.725 21.9604H288.887C287.951 21.9604 287.149 21.1569 287.149 20.2196V18.8806C287.149 17.9432 287.951 17.1398 288.887 17.1398H303.725C304.661 17.1398 305.463 17.9432 305.463 18.8806V20.2196C305.463 21.1569 304.661 21.9604 303.725 21.9604Z" fill="white"/>
<path d="M279.796 35.0831H230.334C229.398 35.0831 228.596 34.2796 228.596 33.3423V32.0032C228.596 31.0659 229.398 30.2625 230.334 30.2625H279.796C280.732 30.2625 281.534 31.0659 281.534 32.0032V33.3423C281.534 34.2796 280.732 35.0831 279.796 35.0831Z" fill="white"/>
<path d="M303.725 35.0831H288.887C287.951 35.0831 287.149 34.2796 287.149 33.3423V32.0032C287.149 31.0659 287.951 30.2625 288.887 30.2625H303.725C304.661 30.2625 305.463 31.0659 305.463 32.0032V33.3423C305.463 34.2796 304.661 35.0831 303.725 35.0831Z" fill="white"/>
<path d="M279.796 48.2057H230.334C229.398 48.2057 228.596 47.4022 228.596 46.4649V45.1259C228.596 44.1885 229.398 43.3851 230.334 43.3851H279.796C280.732 43.3851 281.534 44.1885 281.534 45.1259V46.4649C281.534 47.4022 280.732 48.2057 279.796 48.2057Z" fill="white"/>
<path d="M303.725 48.2057H288.887C287.951 48.2057 287.149 47.4022 287.149 46.4649V45.1259C287.149 44.1885 287.951 43.3851 288.887 43.3851H303.725C304.661 43.3851 305.463 44.1885 305.463 45.1259V46.4649C305.463 47.4022 304.661 48.2057 303.725 48.2057Z" fill="white"/>
<path d="M279.796 61.3283H230.334C229.398 61.3283 228.596 60.5249 228.596 59.5876V58.2485C228.596 57.3112 229.398 56.5078 230.334 56.5078H279.796C280.732 56.5078 281.534 57.3112 281.534 58.2485V59.5876C281.534 60.6588 280.732 61.3283 279.796 61.3283Z" fill="white"/>
<path d="M303.725 61.3283H288.887C287.951 61.3283 287.149 60.5249 287.149 59.5876V58.2485C287.149 57.3112 287.951 56.5078 288.887 56.5078H303.725C304.661 56.5078 305.463 57.3112 305.463 58.2485V59.5876C305.463 60.6588 304.661 61.3283 303.725 61.3283Z" fill="white"/>
<path d="M279.796 74.5849H230.334C229.398 74.5849 228.596 73.7815 228.596 72.8442V71.5051C228.596 70.5678 229.398 69.7643 230.334 69.7643H279.796C280.732 69.7643 281.534 70.5678 281.534 71.5051V72.8442C281.534 73.7815 280.732 74.5849 279.796 74.5849Z" fill="white"/>
<path d="M303.725 74.5849H288.887C287.951 74.5849 287.149 73.7815 287.149 72.8442V71.5051C287.149 70.5678 287.951 69.7643 288.887 69.7643H303.725C304.661 69.7643 305.463 70.5678 305.463 71.5051V72.8442C305.463 73.7815 304.661 74.5849 303.725 74.5849Z" fill="white"/>
<path d="M279.796 87.7076H230.334C229.398 87.7076 228.596 86.9041 228.596 85.9668V84.6277C228.596 83.6904 229.398 82.887 230.334 82.887H279.796C280.732 82.887 281.534 83.6904 281.534 84.6277V85.9668C281.534 86.9041 280.732 87.7076 279.796 87.7076Z" fill="white"/>
<path d="M303.725 87.7076H288.887C287.951 87.7076 287.149 86.9041 287.149 85.9668V84.6277C287.149 83.6904 287.951 82.887 288.887 82.887H303.725C304.661 82.887 305.463 83.6904 305.463 84.6277V85.9668C305.463 86.9041 304.661 87.7076 303.725 87.7076Z" fill="white"/>
<path d="M279.796 101.5H230.334C229.398 101.5 228.596 100.696 228.596 99.7589V98.4199C228.596 97.4826 229.398 96.6791 230.334 96.6791H279.796C280.732 96.6791 281.534 97.4826 281.534 98.4199V99.7589C281.534 100.83 280.732 101.5 279.796 101.5Z" fill="white"/>
<path d="M303.725 101.5H288.887C287.951 101.5 287.149 100.696 287.149 99.7589V98.4199C287.149 97.4826 287.951 96.6791 288.887 96.6791H303.725C304.661 96.6791 305.463 97.4826 305.463 98.4199V99.7589C305.463 100.83 304.661 101.5 303.725 101.5Z" fill="white"/>
<path d="M303.725 122.657H289.02C288.084 122.657 287.282 121.853 287.282 120.916V119.577C287.282 118.64 288.084 117.836 289.02 117.836H303.725C304.661 117.836 305.463 118.64 305.463 119.577V120.916C305.463 121.853 304.661 122.657 303.725 122.657Z" fill="white"/>
<path d="M258.808 122.657H230.2C229.264 122.657 228.462 121.853 228.462 120.916V119.577C228.462 118.64 229.264 117.836 230.2 117.836H258.808C259.744 117.836 260.546 118.64 260.546 119.577V120.916C260.546 121.853 259.744 122.657 258.808 122.657Z" fill="white"/>
<path d="M319.366 128.816C319.366 128.682 319.366 128.548 319.366 128.415H216.164V129.754C216.565 136.047 221.511 141.135 227.794 141.805H331.13C324.446 141.135 319.366 135.511 319.366 128.816Z" fill="#B0DDFF"/>
<path d="M319.767 132.432C321.371 137.922 326.318 141.805 332.2 141.805C338.082 141.805 343.161 137.788 344.632 132.432H319.767Z" fill="#6CB8FF"/>
<path d="M319.366 358.195H216.164V486.877H319.366V358.195Z" fill="#B0DDFF"/>
<path d="M279.796 380.021H230.334C229.398 380.021 228.596 379.218 228.596 378.281V376.942C228.596 376.004 229.398 375.201 230.334 375.201H279.796C280.732 375.201 281.534 376.004 281.534 376.942V378.281C281.534 379.218 280.732 380.021 279.796 380.021Z" fill="white"/>
<path d="M303.725 380.021H288.887C287.951 380.021 287.149 379.218 287.149 378.281V376.942C287.149 376.004 287.951 375.201 288.887 375.201H303.725C304.661 375.201 305.463 376.004 305.463 376.942V378.281C305.463 379.218 304.661 380.021 303.725 380.021Z" fill="white"/>
<path d="M279.796 393.278H230.334C229.398 393.278 228.596 392.475 228.596 391.537V390.198C228.596 389.261 229.398 388.458 230.334 388.458H279.796C280.732 388.458 281.534 389.261 281.534 390.198V391.537C281.534 392.475 280.732 393.278 279.796 393.278Z" fill="white"/>
<path d="M303.725 393.278H288.887C287.951 393.278 287.149 392.475 287.149 391.537V390.198C287.149 389.261 287.951 388.458 288.887 388.458H303.725C304.661 388.458 305.463 389.261 305.463 390.198V391.537C305.463 392.475 304.661 393.278 303.725 393.278Z" fill="white"/>
<path d="M279.796 406.401H230.334C229.398 406.401 228.596 405.597 228.596 404.66V403.321C228.596 402.384 229.398 401.58 230.334 401.58H279.796C280.732 401.58 281.534 402.384 281.534 403.321V404.66C281.534 405.597 280.732 406.401 279.796 406.401Z" fill="white"/>
<path d="M303.725 406.401H288.887C287.951 406.401 287.149 405.597 287.149 404.66V403.321C287.149 402.384 287.951 401.58 288.887 401.58H303.725C304.661 401.58 305.463 402.384 305.463 403.321V404.66C305.463 405.597 304.661 406.401 303.725 406.401Z" fill="white"/>
<path d="M279.796 419.523H230.334C229.398 419.523 228.596 418.72 228.596 417.783V416.444C228.596 415.506 229.398 414.703 230.334 414.703H279.796C280.732 414.703 281.534 415.506 281.534 416.444V417.783C281.534 418.72 280.732 419.523 279.796 419.523Z" fill="white"/>
<path d="M303.725 419.523H288.887C287.951 419.523 287.149 418.72 287.149 417.783V416.444C287.149 415.506 287.951 414.703 288.887 414.703H303.725C304.661 414.703 305.463 415.506 305.463 416.444V417.783C305.463 418.72 304.661 419.523 303.725 419.523Z" fill="white"/>
<path d="M279.796 432.646H230.334C229.398 432.646 228.596 431.843 228.596 430.905V429.566C228.596 428.629 229.398 427.825 230.334 427.825H279.796C280.732 427.825 281.534 428.629 281.534 429.566V430.905C281.534 431.976 280.732 432.646 279.796 432.646Z" fill="white"/>
<path d="M303.725 432.646H288.887C287.951 432.646 287.149 431.843 287.149 430.905V429.566C287.149 428.629 287.951 427.825 288.887 427.825H303.725C304.661 427.825 305.463 428.629 305.463 429.566V430.905C305.463 431.976 304.661 432.646 303.725 432.646Z" fill="white"/>
<path d="M279.796 445.903H230.334C229.398 445.903 228.596 445.099 228.596 444.162V442.823C228.596 441.885 229.398 441.082 230.334 441.082H279.796C280.732 441.082 281.534 441.885 281.534 442.823V444.162C281.534 445.099 280.732 445.903 279.796 445.903Z" fill="white"/>
<path d="M303.725 445.903H288.887C287.951 445.903 287.149 445.099 287.149 444.162V442.823C287.149 441.885 287.951 441.082 288.887 441.082H303.725C304.661 441.082 305.463 441.885 305.463 442.823V444.162C305.463 445.099 304.661 445.903 303.725 445.903Z" fill="white"/>
<path d="M279.796 459.695H230.334C229.398 459.695 228.596 458.891 228.596 457.954V456.615C228.596 455.678 229.398 454.874 230.334 454.874H279.796C280.732 454.874 281.534 455.678 281.534 456.615V457.954C281.534 458.891 280.732 459.695 279.796 459.695Z" fill="white"/>
<path d="M303.725 459.695H288.887C287.951 459.695 287.149 458.891 287.149 457.954V456.615C287.149 455.678 287.951 454.874 288.887 454.874H303.725C304.661 454.874 305.463 455.678 305.463 456.615V457.954C305.463 458.891 304.661 459.695 303.725 459.695Z" fill="white"/>
<path d="M303.725 480.852H289.02C288.084 480.852 287.282 480.048 287.282 479.111V477.772C287.282 476.834 288.084 476.031 289.02 476.031H303.725C304.661 476.031 305.463 476.834 305.463 477.772V479.111C305.463 480.048 304.661 480.852 303.725 480.852Z" fill="white"/>
<path d="M258.808 480.852H230.2C229.264 480.852 228.462 480.048 228.462 479.111V477.772C228.462 476.834 229.264 476.031 230.2 476.031H258.808C259.744 476.031 260.546 476.834 260.546 477.772V479.111C260.546 480.048 259.744 480.852 258.808 480.852Z" fill="white"/>
<path d="M319.366 487.011C319.366 486.877 319.366 486.743 319.366 486.609H216.164V487.949C216.565 494.242 221.511 499.33 227.794 500H331.13C324.446 499.197 319.366 493.706 319.366 487.011Z" fill="#B0DDFF"/>
<path d="M319.767 490.493C321.371 495.983 326.318 499.866 332.2 499.866C338.082 499.866 343.161 495.849 344.632 490.493H319.767Z" fill="#6CB8FF"/>
<mask id="mask0" mask-type="alpha" maskUnits="userSpaceOnUse" x="377" y="172" width="161" height="161">
<path d="M457.326 332.084C501.329 332.084 537 296.353 537 252.276C537 208.2 501.329 172.469 457.326 172.469C413.323 172.469 377.651 208.2 377.651 252.276C377.651 296.353 413.323 332.084 457.326 332.084Z" fill="#D8EEFF"/>
</mask>
<g mask="url(#mask0)">
<rect x="365" y="169" width="172" height="166" fill="#D8EEFF"/>
<path d="M486.602 235.036C485.8 234.232 484.998 233.563 483.929 233.295C483.929 233.161 483.528 229.546 481.923 225.261L484.33 223.788L487.271 226.6C487.538 226.6 486.736 235.036 486.602 235.036Z" fill="#25416D"/>
<path d="M510.531 333.723H404.121V296.632C404.121 289.267 410.136 283.241 417.489 283.241H497.163C504.516 283.241 510.531 289.267 510.531 296.632V333.723Z" fill="#6CB8FF"/>
<path d="M484.196 233.295C484.196 233.161 484.196 233.027 484.196 232.893C484.196 214.95 472.298 200.488 457.727 200.488C443.022 200.488 431.258 214.95 431.258 232.893C431.258 233.027 431.258 233.161 431.258 233.295C428.183 234.366 425.777 238.249 425.777 242.936C425.777 248.024 428.451 252.176 432.06 252.711C434.333 261.683 440.081 268.78 447.701 272.261L443.557 283.375L457.058 294.489H457.727L471.229 283.375L467.085 272.261C474.704 268.914 480.72 261.683 482.859 252.711C486.602 252.577 489.677 248.292 489.677 242.936C489.677 238.249 487.271 234.366 484.196 233.295Z" fill="#FFEFEF"/>
<path d="M428.584 235.036C429.386 234.232 430.189 233.563 431.258 233.295C431.258 233.161 431.659 229.546 433.263 225.261L430.857 223.788L427.916 226.6C427.649 226.6 428.451 235.036 428.584 235.036Z" fill="#25416D"/>
<path d="M487.404 225.662C487.404 207.987 473.903 193.525 457.326 193.525C440.749 193.525 427.248 207.853 427.248 225.662C427.248 226.064 427.248 226.332 427.248 226.734H430.991C431.659 234.5 443.156 237.312 457.326 237.312C471.496 237.312 482.993 234.634 483.661 226.734H487.404C487.404 226.332 487.404 225.93 487.404 225.662Z" fill="#B0DDFF"/>
<path d="M484.464 226.6C484.464 226.6 482.859 238.383 457.727 238.383C430.723 238.383 430.991 226.6 430.991 226.6C430.991 226.6 443.423 224.19 458.128 224.19C472.833 224.19 484.464 226.6 484.464 226.6Z" fill="#6CB8FF"/>
<path d="M432.327 253.113C431.258 248.56 430.188 232.09 430.99 233.295C432.595 235.973 431.392 246.418 439.011 256.327C441.685 259.808 453.583 254.854 456.657 254.988C462.005 255.255 467.887 258.067 470.828 258.871C481.389 261.415 483.26 237.044 484.196 232.492C484.731 229.68 485.265 235.17 483.26 251.908C482.725 256.46 474.838 274.538 457.46 274.404C438.209 274.136 432.327 253.113 432.327 253.113Z" fill="#25416D"/>
<path d="M467.219 260.745C467.085 262.352 461.069 263.691 457.326 263.691C453.583 263.691 448.236 262.084 448.102 260.344C448.102 259.54 453.85 260.611 457.593 260.611C461.337 260.611 467.219 260.076 467.219 260.745Z" fill="white"/>
</g>
<path d="M179.401 191.618C179.401 189.475 178.733 188.939 177.529 188.939C176.326 188.939 175.658 189.609 175.658 191.216V192.689H172.182V191.35C172.182 187.6 174.054 185.458 177.663 185.458C181.272 185.458 183.144 187.6 183.144 191.35V192.019C183.144 194.563 182.342 196.036 180.604 196.84C182.476 197.643 183.144 199.384 183.144 201.794V203.669C183.144 207.418 181.272 209.561 177.663 209.561C174.054 209.561 172.182 207.418 172.182 203.669V201.794H175.658V203.937C175.658 205.544 176.326 206.213 177.529 206.213C178.733 206.213 179.401 205.678 179.401 203.535V201.66C179.401 199.518 178.733 198.714 176.995 198.714H175.792V195.367H177.262C178.599 195.367 179.401 194.697 179.401 192.957V191.618Z" fill="#25416D"/>
<path d="M190.764 185.86H196.512C200.121 185.86 201.993 187.868 201.993 191.618V203.401C201.993 207.151 200.255 209.159 196.512 209.159H190.764V185.86ZM194.507 189.207V205.945H196.512C197.715 205.945 198.384 205.276 198.384 203.669V191.484C198.384 189.877 197.715 189.207 196.512 189.207H194.507Z" fill="#25416D"/>
<path d="M216.297 209.293H212.554L211.886 205.008H207.341L206.672 209.293H203.33L207.073 185.86H212.42L216.297 209.293ZM207.875 201.928H211.351L209.613 190.145L207.875 201.928Z" fill="#25416D"/>
<path d="M219.773 201.527L215.094 185.86H218.971L221.778 196.572L224.586 185.86H228.061L223.383 201.527V209.293H219.773V201.527Z" fill="#25416D"/>
<path d="M234.344 185.592C237.954 185.592 239.691 187.734 239.691 191.484V192.153H236.216V191.216C236.216 189.609 235.547 188.939 234.344 188.939C233.141 188.939 232.473 189.609 232.473 191.216C232.473 196.036 239.691 196.974 239.691 203.669C239.691 207.418 237.82 209.561 234.21 209.561C230.601 209.561 228.729 207.418 228.729 203.669V202.196H232.205V203.937C232.205 205.544 232.874 206.213 234.077 206.213C235.28 206.213 235.948 205.544 235.948 203.937C235.948 199.116 228.729 198.179 228.729 191.484C228.863 187.734 230.735 185.592 234.344 185.592Z" fill="#25416D"/>
<path d="M247.044 185.86H250.653V205.945H256.669V209.293H246.91V185.86H247.044Z" fill="#25416D"/>
<path d="M262.017 195.769H267.096V199.116H262.017V205.945H268.3V209.293H258.273V185.86H268.3V189.207H262.017V195.769Z" fill="#25416D"/>
<path d="M274.315 196.304H278.994V199.652H274.315V209.293H270.706V185.86H280.464V189.207H274.449V196.304H274.315Z" fill="#25416D"/>
<path d="M281.133 185.86H292.496V189.207H288.619V209.293H285.01V189.207H281.133V185.86Z" fill="#25416D"/>
<path d="M298.11 185.86H309.473V189.207H305.597V209.293H301.987V189.207H298.11V185.86Z" fill="#25416D"/>
<path d="M310.81 191.484C310.81 187.734 312.815 185.592 316.425 185.592C320.034 185.592 322.039 187.734 322.039 191.484V203.669C322.039 207.418 320.034 209.561 316.425 209.561C312.815 209.561 310.81 207.418 310.81 203.669V191.484ZM314.553 203.937C314.553 205.544 315.222 206.213 316.425 206.213C317.628 206.213 318.296 205.544 318.296 203.937V191.35C318.296 189.743 317.628 189.073 316.425 189.073C315.222 189.073 314.553 189.743 314.553 191.35V203.937Z" fill="#25416D"/>
<path d="M340.487 191.618V194.697C340.487 198.447 338.749 200.455 335.006 200.455H333.268V209.293H329.525V185.86H334.873C338.616 185.86 340.487 187.868 340.487 191.618ZM333.268 189.207V197.108H335.006C336.21 197.108 336.744 196.572 336.744 194.965V191.484C336.744 189.743 336.076 189.341 335.006 189.341H333.268V189.207Z" fill="#25416D"/>
<path d="M353.588 209.293H349.845L349.177 205.008H344.632L343.963 209.293H340.621L344.364 185.86H349.711L353.588 209.293ZM345.166 201.928H348.642L346.904 190.145L345.166 201.928Z" fill="#25416D"/>
<path d="M357.064 201.527L352.385 185.86H356.262L359.069 196.572L361.877 185.86H365.352L360.674 201.527V209.293H357.064V201.527Z" fill="#25416D"/>
<path d="M323.51 342.93H209.881C207.608 342.93 205.87 341.055 205.87 338.913C205.87 336.77 207.608 334.896 209.881 334.896H323.51C325.783 334.896 327.521 336.77 327.521 338.913C327.521 341.055 325.649 342.93 323.51 342.93Z" fill="#D8EEFF"/>
<path d="M315.489 342.93H208.677C207.073 342.93 205.736 341.591 205.736 339.984V337.708C205.736 336.101 207.073 334.762 208.677 334.762H315.489C317.093 334.762 318.43 336.101 318.43 337.708V339.984C318.43 341.591 317.093 342.93 315.489 342.93Z" fill="#FF5757"/>
<path d="M321.906 347.884C326.853 347.884 330.863 343.868 330.863 338.913C330.863 333.958 326.853 329.941 321.906 329.941C316.959 329.941 312.949 333.958 312.949 338.913C312.949 343.868 316.959 347.884 321.906 347.884Z" fill="#FF5757"/>
<path d="M210.683 297.804H216.431C220.174 297.804 221.912 299.812 221.912 303.562V315.345C221.912 319.095 220.174 321.103 216.431 321.103H210.683V297.804ZM214.292 301.152V317.89H216.297C217.5 317.89 218.169 317.354 218.169 315.613V303.428C218.169 301.687 217.5 301.152 216.297 301.152H214.292Z" fill="#25416D"/>
<path d="M236.082 321.237H232.339L231.67 316.952H227.259L226.591 321.237H223.249L226.992 297.804H232.339L236.082 321.237ZM227.794 313.872H231.269L229.532 302.089L227.794 313.872Z" fill="#25416D"/>
<path d="M239.692 313.471L235.013 297.804H238.889L241.697 308.516L244.504 297.804H247.98L243.301 313.471V321.237H239.692V313.471Z" fill="#25416D"/>
<path d="M253.595 297.804H264.958V301.152H261.081V321.237H257.472V301.152H253.595V297.804Z" fill="#25416D"/>
<path d="M266.161 303.428C266.161 299.679 268.166 297.536 271.775 297.536C275.385 297.536 277.39 299.679 277.39 303.428V315.613C277.39 319.363 275.385 321.505 271.775 321.505C268.166 321.505 266.161 319.363 266.161 315.613V303.428ZM269.904 315.881C269.904 317.622 270.706 318.157 271.775 318.157C272.978 318.157 273.647 317.488 273.647 315.881V303.294C273.647 301.553 272.978 301.018 271.775 301.018C270.572 301.018 269.904 301.687 269.904 303.294V315.881Z" fill="#25416D"/>
<path d="M295.838 303.696V306.776C295.838 310.525 294.1 312.533 290.357 312.533H288.619V321.371H285.01V297.938H290.357C293.966 297.804 295.838 299.946 295.838 303.696ZM288.619 301.152V309.052H290.357C291.56 309.052 292.095 308.516 292.095 306.909V303.428C292.095 301.687 291.426 301.285 290.357 301.285H288.619V301.152Z" fill="#25416D"/>
<path d="M308.939 321.237H305.196L304.527 316.952H299.982L299.314 321.237H295.972L299.715 297.804H305.062L308.939 321.237ZM300.651 313.872H304.126L302.388 302.089L300.651 313.872Z" fill="#25416D"/>
<path d="M312.548 313.471L307.869 297.804H311.746L314.553 308.516L317.361 297.804H320.836L316.157 313.471V321.237H312.548V313.471Z" fill="#25416D"/>
<path d="M322.841 316.149L322.44 307.713V297.938H326.05V307.713L325.649 316.149H322.841ZM325.916 317.756V321.237H322.44V317.756H325.916Z" fill="#25416D"/>
<mask id="mask1" mask-type="alpha" maskUnits="userSpaceOnUse" x="0" y="172" width="160" height="160">
<path d="M79.6744 331.692C123.677 331.692 159.349 295.961 159.349 251.885C159.349 207.809 123.677 172.078 79.6744 172.078C35.6714 172.078 0 207.809 0 251.885C0 295.961 35.6714 331.692 79.6744 331.692Z" fill="#D8EEFF"/>
</mask>
<g mask="url(#mask1)">
<rect y="171.687" width="158.831" height="160.173" fill="#D8EEFF"/>
<path d="M133.014 331.168H26.4692V294.076C26.4692 286.711 32.4849 280.686 39.8374 280.686H119.512C126.864 280.686 132.88 286.711 132.88 294.076V331.168H133.014Z" fill="#B0DDFF"/>
<path d="M65.9053 280.819L67.6431 331.569H91.4385L93.5774 280.819H65.9053Z" fill="#6CB8FF"/>
<path d="M89.5672 258.19C89.4335 259.796 83.4178 261.136 79.6747 261.136C75.9316 261.136 70.5844 259.529 70.4507 257.788C70.4507 256.984 76.199 258.056 79.9421 258.056C83.8189 258.19 89.7009 257.52 89.5672 258.19Z" fill="white"/>
<path d="M106.544 230.739C106.544 230.605 106.544 230.471 106.544 230.337C106.544 212.394 94.6468 197.933 80.0755 197.933C65.5041 197.933 53.6064 212.394 53.6064 230.337C53.6064 230.471 53.6064 230.605 53.6064 230.739C50.5318 231.81 48.1255 235.694 48.1255 240.38C48.1255 245.469 50.7991 249.62 54.4085 250.155C56.6811 259.127 62.4294 266.224 70.0493 269.705L65.9052 280.82C65.9052 280.82 68.8462 290.595 79.407 290.595C91.0374 290.595 93.5773 280.82 93.5773 280.82L89.4332 269.705C97.0531 266.358 103.069 259.127 105.208 250.155C108.951 250.021 112.025 245.736 112.025 240.38C112.025 235.694 109.753 231.81 106.544 230.739Z" fill="#FFEFEF"/>
<path d="M110.288 217.617C110.154 215.474 109.887 200.611 99.3258 200.745C99.1921 195.254 88.2302 191.237 79.8082 190.97C67.5095 190.568 48.794 197.665 50.1308 223.91C50.1308 223.91 50.7993 232.346 50.9329 232.48C51.735 231.677 52.5371 231.007 53.6066 230.739C53.6066 230.605 53.8739 225.115 55.4781 220.83C57.8844 209.984 70.7178 210.921 83.2839 210.921C90.9038 210.921 103.069 211.457 104.539 220.83C105.876 224.847 106.277 230.605 106.277 230.739C107.213 231.007 108.149 231.677 108.951 232.48C109.085 232.48 109.753 223.91 109.753 223.91L110.288 217.617Z" fill="#25416D"/>
<path d="M101.732 213.064C99.4598 216.411 89.2999 219.759 77.937 219.759C66.4404 219.759 57.2163 212.528 57.2163 211.725C57.2163 210.921 61.8952 207.841 65.2372 206.77C68.5793 205.699 77.6696 200.744 82.3485 201.816C87.0274 203.021 101.732 213.064 101.732 213.064Z" fill="#25416D"/>
</g>
</g>
<defs>
<clipPath id="clip0">
<rect width="537" height="500" fill="white"/>
</clipPath>
</defs>
</svg>
