<svg width="166" height="54" viewBox="0 0 166 54" fill="none" xmlns="http://www.w3.org/2000/svg">
<g clip-path="url(#clip0)">
<path d="M165.599 46.6924C165.599 50.71 162.341 54 158.292 54H7.87006C3.82085 54 0.5625 50.71 0.5625 46.6924V7.30756C0.5625 3.25835 3.82085 0 7.87006 0H158.324C162.341 0 165.631 3.25835 165.631 7.30756V46.6924H165.599Z" fill="black"/>
<path d="M43.5852 35.6837C42.6994 37.6134 42.2882 38.4991 41.181 40.2074C39.5993 42.6116 37.3849 45.5853 34.6643 45.5853C32.2284 45.6169 31.5957 44.0035 28.3058 44.0035C25.0158 44.0352 24.3198 45.5853 21.884 45.5853C19.1318 45.5536 17.0123 42.8963 15.4622 40.4921C11.065 33.8172 10.6221 25.9719 13.311 21.7962C15.2407 18.8225 18.2776 17.1143 21.1247 17.1143C24.0351 17.1143 25.8699 18.696 28.2741 18.696C30.6151 18.696 32.0386 17.1143 35.3919 17.1143C37.9226 17.1143 40.6116 18.5062 42.5413 20.8788C36.246 24.3269 37.2583 33.2795 43.5852 35.6837Z" fill="white"/>
<path d="M32.8296 14.4254C34.0633 12.8436 34.9807 10.6609 34.6328 8.38318C32.6398 8.50972 30.2988 9.7751 28.9385 11.4517C27.7048 12.9385 26.6925 15.1846 27.0721 17.3357C29.2549 17.399 31.5009 16.102 32.8296 14.4254Z" fill="white"/>
<path d="M56.9671 21.7012L50.6719 40.2073H53.5506L55.417 34.5131H61.4909L63.4206 40.2073H66.3942L60.0673 21.7012H56.9671ZM58.4539 24.7381C58.6754 25.5606 58.8968 26.4147 59.1815 27.3637L60.8898 32.2671H56.0814L57.758 27.3321C58.0111 26.5096 58.2325 25.6555 58.4539 24.7381Z" fill="white"/>
<path d="M74.5556 26.5096C72.6576 26.5096 71.1075 27.2372 70.0952 28.6608L69.9686 26.826H67.4062V27.0474C67.4695 28.1863 67.5012 29.4516 67.5012 31.2548V45.5219H70.3166V38.8787C71.1708 39.9226 72.5627 40.5237 74.1444 40.5237C75.7894 40.5237 77.2762 39.891 78.3834 38.7205C79.6172 37.4235 80.2498 35.5571 80.2498 33.3427C80.2498 31.3813 79.6804 29.6731 78.6365 28.4393C77.6242 27.174 76.169 26.5096 74.5556 26.5096ZM73.8597 28.819C76.3588 28.819 77.466 31.1283 77.466 33.4376C77.466 36.3796 76.0425 38.2144 73.7331 38.2144C72.1514 38.2144 70.8228 37.1388 70.4432 35.6204C70.3799 35.3673 70.3483 35.0826 70.3483 34.703V32.4569C70.3483 32.2671 70.3799 32.014 70.4432 31.761C70.4432 31.6977 70.4748 31.6028 70.4748 31.5395C70.886 29.9262 72.278 28.819 73.8597 28.819Z" fill="white"/>
<path d="M88.981 26.5096C87.083 26.5096 85.5329 27.2372 84.5206 28.6608L84.394 26.826H81.8633V27.0474C81.9266 28.1863 81.9582 29.4516 81.9582 31.2548V45.5219H84.7737V38.8787C85.6278 39.9226 87.0197 40.5237 88.6014 40.5237C90.2464 40.5237 91.7332 39.891 92.8404 38.7205C94.0742 37.4235 94.7069 35.5571 94.7069 33.3427C94.7069 31.3813 94.1374 29.6731 93.0935 28.4393C92.0496 27.174 90.5944 26.5096 88.981 26.5096ZM88.2851 28.819C90.7842 28.819 91.8914 31.1283 91.8914 33.4376C91.8914 36.3796 90.4678 38.2144 88.1585 38.2144C86.6084 38.2144 85.2482 37.1388 84.8686 35.6204C84.8053 35.3673 84.7737 35.0826 84.7737 34.703V32.4569C84.7737 32.2671 84.8053 32.014 84.8686 31.761C84.8686 31.6977 84.9002 31.6028 84.9002 31.5395C85.3114 29.9262 86.7033 28.819 88.2851 28.819Z" fill="white"/>
<path d="M107.044 29.5466C104.419 28.5343 103.596 27.7434 103.596 26.2566C103.596 25.0228 104.577 23.7575 106.791 23.7575C108.594 23.7575 109.765 24.3902 110.081 24.58L110.334 24.7381L111.125 22.3972L110.967 22.3023C110.493 22.0176 109.164 21.3849 106.886 21.3849C103.312 21.3849 100.812 23.5044 100.812 26.5097C100.812 28.9455 102.362 30.6538 105.716 31.8559C108.088 32.7417 108.974 33.6591 108.974 35.2091C108.974 36.9807 107.614 38.0562 105.399 38.0562C103.976 38.0562 102.489 37.645 101.35 36.9174L101.097 36.7592L100.338 39.1634L100.464 39.2583C101.508 39.9543 103.501 40.4605 105.21 40.4605C110.018 40.4605 111.726 37.5185 111.726 35.0193C111.758 32.4569 110.398 30.8752 107.044 29.5466Z" fill="white"/>
<path d="M116.788 23.5992L114.035 24.4534V26.7943H112.011V29.0404H114.035V35.905C114.035 37.55 114.352 38.7205 115.016 39.4481C115.649 40.1441 116.598 40.5237 117.737 40.5237C118.781 40.5237 119.54 40.3022 119.888 40.1757L120.046 40.1124L119.919 37.8664L119.666 37.9613C119.318 38.0562 118.939 38.1195 118.369 38.1195C117.294 38.1195 116.819 37.4235 116.819 35.8101V29.0404H120.204V26.7943H116.819V23.5992H116.788Z" fill="white"/>
<path d="M127.132 26.5096C123.21 26.5096 120.489 29.42 120.489 33.6274C120.489 37.6766 123.147 40.5237 126.943 40.5237H126.974C130.169 40.5237 133.618 38.2777 133.618 33.3743C133.618 31.3813 133.016 29.6731 131.846 28.4077C130.612 27.174 128.999 26.5096 127.132 26.5096ZM127.038 28.6924C129.568 28.6924 130.707 31.1599 130.707 33.4376C130.707 36.2531 129.157 38.2777 126.974 38.2777H126.943C124.823 38.2777 123.273 36.2847 123.273 33.5009C123.305 31.1283 124.444 28.6924 127.038 28.6924Z" fill="white"/>
<path d="M142.159 26.6362L142.001 26.6045C141.748 26.5413 141.558 26.5096 141.305 26.5096C139.849 26.5096 138.521 27.3638 137.793 28.7557L137.698 26.7944H135.199L135.231 27.0158C135.294 28.123 135.326 29.3567 135.326 31.0334L135.294 40.1757H138.11V33.0263C138.11 32.6467 138.141 32.2671 138.173 31.9508C138.489 30.2425 139.66 29.1353 141.115 29.1353C141.4 29.1353 141.621 29.1669 141.874 29.1669L142.159 29.1986V26.6362Z" fill="white"/>
<path d="M148.454 26.478C144.721 26.478 142.127 29.4517 142.127 33.7223C142.127 37.8348 144.721 40.4921 148.739 40.4921C150.858 40.4921 152.313 40.0176 153.167 39.638L153.326 39.5747L152.788 37.4868L152.566 37.5817C151.807 37.8981 150.795 38.2144 149.055 38.2144C147.853 38.2144 145.037 37.8032 144.848 34.1652L153.895 34.1968L153.927 34.007C153.99 33.7223 154.021 33.3427 154.021 32.8366C154.021 29.8945 152.566 26.478 148.454 26.478ZM148.264 28.5975C149.118 28.5975 149.814 28.8506 150.32 29.3884C151.111 30.2109 151.269 31.413 151.269 31.9824H144.879C145.164 30.3691 146.176 28.5975 148.264 28.5975Z" fill="white"/>
<path d="M50.6719 9.04747C51.4627 8.95257 52.3485 8.85767 53.3608 8.85767C55.164 8.85767 56.461 9.23728 57.3151 9.93324C58.2009 10.6608 58.707 11.6731 58.707 13.0967C58.707 14.5202 58.2009 15.6907 57.3151 16.5132C56.3977 17.3357 54.8793 17.7786 53.0128 17.7786C52.0954 17.7786 51.3678 17.7469 50.7035 17.6837V9.04747H50.6719ZM51.9689 16.8295C52.2852 16.8928 52.7598 16.8928 53.2343 16.8928C55.9232 16.8928 57.3784 15.5325 57.3784 13.1916C57.3784 11.1037 56.0814 9.8067 53.4241 9.8067C52.7598 9.8067 52.2852 9.86997 51.9373 9.93324V16.8295H51.9689Z" fill="white"/>
<path d="M63.199 17.8418C61.3325 17.8418 59.8457 16.6081 59.8457 14.6151C59.8457 12.4956 61.3958 11.2618 63.3255 11.2618C65.3185 11.2618 66.6788 12.5589 66.6788 14.4886C66.6788 16.8295 64.8756 17.8418 63.199 17.8418ZM63.2306 16.9877C64.4327 16.9877 65.3501 15.9754 65.3501 14.5202C65.3501 13.4446 64.749 12.116 63.2622 12.116C61.7754 12.116 61.1111 13.3497 61.1111 14.5518C61.1427 15.9437 61.9969 16.9877 63.2306 16.9877Z" fill="white"/>
<path d="M68.7031 11.4201L69.6521 14.6151C69.8419 15.3111 70.0317 15.9754 70.1582 16.6397H70.1899C70.348 16.0071 70.5695 15.3427 70.8226 14.6468L71.9614 11.4517H73.037L74.1126 14.5835C74.3656 15.3111 74.5871 16.0071 74.7452 16.6397H74.7769C74.9034 16.0071 75.0932 15.3427 75.3147 14.5835L76.2953 11.4201H77.5607L75.3147 17.7153H74.1442L73.0686 14.71C72.8155 13.9825 72.6257 13.3814 72.4359 12.6222H72.4043C72.2461 13.3814 72.0247 14.0457 71.7716 14.71L70.6328 17.6837H69.4623L67.3428 11.3884H68.7031V11.4201Z" fill="white"/>
<path d="M78.8269 13.0967C78.8269 12.4323 78.8269 11.9262 78.7637 11.3884H79.9025L79.9658 12.4007H79.9974C80.3454 11.8313 81.1679 11.2302 82.3067 11.2302C83.2874 11.2302 84.7742 11.7364 84.7742 13.9192V17.6837H83.5089V14.0773C83.5089 13.065 83.0976 12.2109 81.8955 12.2109C81.073 12.2109 80.4087 12.7487 80.1872 13.3814C80.124 13.5395 80.0923 13.7293 80.0923 13.9192V17.7153H78.8269V13.0967Z" fill="white"/>
<path d="M86.8301 8.47803H88.0955V17.7153H86.8301V8.47803Z" fill="white"/>
<path d="M93.0622 17.8418C91.1958 17.8418 89.709 16.6081 89.709 14.6151C89.709 12.4956 91.2591 11.2618 93.1888 11.2618C95.1817 11.2618 96.542 12.5589 96.542 14.4886C96.542 16.8295 94.7389 17.8418 93.0622 17.8418ZM93.0939 16.9877C94.296 16.9877 95.2134 15.9754 95.2134 14.5202C95.2134 13.4446 94.6123 12.116 93.1255 12.116C91.6387 12.116 90.9744 13.3497 90.9744 14.5518C91.006 15.9437 91.8601 16.9877 93.0939 16.9877Z" fill="white"/>
<path d="M103.058 16.1968C103.058 16.7346 103.09 17.2724 103.153 17.7152H102.014L101.888 16.9244H101.856C101.476 17.4305 100.717 17.8734 99.7048 17.8734C98.2813 17.8734 97.5537 16.9876 97.5537 16.0702C97.5537 14.5518 99.0405 13.7293 101.761 13.7293V13.6028C101.761 13.0966 101.603 12.1476 100.179 12.1476C99.515 12.1476 98.8507 12.3057 98.3446 12.6221L98.0599 11.8629C98.6293 11.5465 99.4834 11.3251 100.369 11.3251C102.52 11.3251 103.026 12.6221 103.026 13.8875V16.1968H103.058ZM101.824 14.4885C100.432 14.4569 98.8507 14.6783 98.8507 15.9121C98.8507 16.6713 99.3885 17.0193 100.021 17.0193C100.939 17.0193 101.54 16.5131 101.729 15.9753C101.761 15.8488 101.793 15.7223 101.793 15.5957V14.4885H101.824Z" fill="white"/>
<path d="M111.125 8.47803V16.0703C111.125 16.6397 111.125 17.2724 111.189 17.6837H110.05L109.987 16.5764H109.955C109.575 17.2724 108.721 17.8102 107.582 17.8102C105.906 17.8102 104.577 16.5132 104.577 14.6151C104.577 12.4956 106.032 11.2302 107.709 11.2302C108.785 11.2302 109.512 11.6731 109.828 12.1793H109.86V8.47803H111.125ZM109.86 13.9824C109.86 13.8243 109.86 13.6344 109.797 13.4763C109.607 12.7487 108.911 12.1793 107.962 12.1793C106.633 12.1793 105.874 13.2232 105.874 14.5835C105.874 15.8805 106.57 16.9244 107.93 16.9244C108.785 16.9244 109.575 16.4183 109.797 15.5641C109.828 15.406 109.86 15.2478 109.86 15.058V13.9824Z" fill="white"/>
<path d="M119.161 17.8418C117.294 17.8418 115.808 16.6081 115.808 14.6151C115.808 12.4956 117.358 11.2618 119.287 11.2618C121.28 11.2618 122.641 12.5589 122.641 14.4886C122.641 16.8295 120.837 17.8418 119.161 17.8418ZM119.193 16.9877C120.395 16.9877 121.312 15.9754 121.312 14.5202C121.312 13.4446 120.711 12.116 119.224 12.116C117.737 12.116 117.073 13.3497 117.073 14.5518C117.073 15.9437 117.959 16.9877 119.193 16.9877Z" fill="white"/>
<path d="M124.222 13.0967C124.222 12.4323 124.222 11.9262 124.159 11.3884H125.298L125.361 12.4007H125.393C125.741 11.8313 126.563 11.2302 127.702 11.2302C128.683 11.2302 130.17 11.7364 130.17 13.9192V17.6837H128.904V14.0773C128.904 13.065 128.493 12.2109 127.291 12.2109C126.468 12.2109 125.804 12.7487 125.583 13.3814C125.519 13.5395 125.488 13.7293 125.488 13.9192V17.7153H124.222V13.0967Z" fill="white"/>
<path d="M136.844 9.90161V11.4201H138.679V12.3058H136.844V15.6907C136.844 16.4816 137.097 16.9245 137.793 16.9245C138.141 16.9245 138.331 16.8928 138.521 16.8612L138.584 17.747C138.331 17.8102 137.951 17.9051 137.445 17.9051C136.844 17.9051 136.369 17.7153 136.085 17.4306C135.737 17.0826 135.578 16.5132 135.578 15.7856V12.2742H134.503V11.3884H135.578V10.218L136.844 9.90161Z" fill="white"/>
<path d="M140.103 8.47803H141.368V12.4007H141.4C141.589 12.0844 141.906 11.768 142.317 11.6098C142.697 11.3884 143.139 11.2935 143.614 11.2935C144.563 11.2935 146.05 11.7996 146.05 13.9824V17.7153H144.784V14.0773C144.784 13.065 144.373 12.2109 143.171 12.2109C142.349 12.2109 141.716 12.717 141.463 13.3497C141.4 13.5079 141.368 13.6661 141.368 13.8875V17.6837H140.103V8.47803Z" fill="white"/>
<path d="M148.834 14.7416C148.865 16.2917 149.941 16.9244 151.206 16.9244C152.124 16.9244 152.693 16.7663 153.136 16.6081L153.357 17.3989C152.915 17.5888 152.124 17.8102 151.017 17.8102C148.865 17.8102 147.568 16.5132 147.568 14.6467C147.568 12.7487 148.834 11.2302 150.858 11.2302C153.136 11.2302 153.737 13.0334 153.737 14.2039C153.737 14.4253 153.737 14.6151 153.705 14.7416H148.834ZM152.535 13.9192C152.535 13.1916 152.187 12.0527 150.795 12.0527C149.498 12.0527 148.96 13.1283 148.834 13.9192H152.535Z" fill="white"/>
</g>
<defs>
<clipPath id="clip0">
<rect width="165.037" height="54" fill="white" transform="translate(0.5625)"/>
</clipPath>
</defs>
</svg>
