<svg width="436" height="338" viewBox="0 0 436 338" fill="none" xmlns="http://www.w3.org/2000/svg">
<mask id="mask0" mask-type="alpha" maskUnits="userSpaceOnUse" x="64" y="0" width="266" height="267">
<path d="M197.258 266.414C270.569 266.414 330 206.884 330 133.451C330 60.0177 270.569 0.488281 197.258 0.488281C123.947 0.488281 64.5166 60.0177 64.5166 133.451C64.5166 206.884 123.947 266.414 197.258 266.414Z" fill="#D8EEFF"/>
</mask>
<g mask="url(#mask0)">
<rect x="64.9482" y="-0.163574" width="264.62" height="266.857" fill="#114CA8"/>
<path d="M286.125 266.54H108.616V204.743C108.616 192.473 118.639 182.434 130.888 182.434H263.63C275.88 182.434 285.902 192.473 285.902 204.743V266.54H286.125Z" fill="#B0DDFF"/>
<path d="M174.319 182.657L177.215 267.209H216.859L220.423 182.657H174.319Z" fill="#B0DDFF"/>
<path d="M213.74 144.955C213.517 147.632 203.495 149.863 197.258 149.863C191.022 149.863 182.113 147.186 181.891 144.285C181.891 142.947 191.468 144.731 197.704 144.731C204.163 144.955 213.962 143.839 213.74 144.955Z" fill="white"/>
<path d="M242.026 99.2206C242.026 98.9975 242.026 98.7744 242.026 98.5513C242.026 68.657 222.204 44.5631 197.928 44.5631C173.651 44.5631 153.829 68.657 153.829 98.5513C153.829 98.7744 153.829 98.9975 153.829 99.2206C148.706 101.005 144.697 107.475 144.697 115.283C144.697 123.761 149.152 130.677 155.165 131.569C158.951 146.516 168.528 158.34 181.223 164.14L174.319 182.657C174.319 182.657 179.219 198.943 196.814 198.943C216.191 198.943 220.422 182.657 220.422 182.657L213.518 164.14C226.213 158.563 236.235 146.516 239.799 131.569C246.035 131.346 251.158 124.207 251.158 115.283C251.158 107.475 247.372 101.005 242.026 99.2206Z" fill="#FFEFEF"/>
<path d="M248.262 77.3579C248.039 73.7884 247.594 49.0252 229.999 49.2482C229.776 40.1015 211.513 33.4087 197.482 32.9626C176.992 32.2933 145.811 44.1171 148.038 87.8432C148.038 87.8432 149.151 101.898 149.374 102.121C150.711 100.783 152.047 99.6671 153.829 99.2209C153.829 98.9978 154.274 89.851 156.947 82.712C160.956 64.6416 182.337 66.2033 203.273 66.2033C215.968 66.2033 236.235 67.0956 238.685 82.712C240.912 89.4048 241.581 98.9978 241.581 99.2209C243.14 99.6671 244.699 100.783 246.035 102.121C246.258 102.121 247.371 87.8432 247.371 87.8432L248.262 77.3579Z" fill="#25416D"/>
<path d="M234.008 69.7727C230.222 75.35 213.295 80.9273 194.364 80.9273C175.21 80.9273 159.842 68.8803 159.842 67.5417C159.842 66.2032 167.637 61.0721 173.205 59.2873C178.773 57.5026 193.918 49.2482 201.713 51.0329C209.509 53.0407 234.008 69.7727 234.008 69.7727Z" fill="#25416D"/>
</g>
<circle cx="231.295" cy="219.615" r="17.7247" fill="#6CB8FF"/>
<path d="M226.687 220.321L224.425 221.339V229.483L226.687 228.465V220.321Z" fill="white"/>
<path d="M233.474 209.746L235.567 211.386L224.426 216.306V218.794V218.851L236.472 213.478V215.967L241.448 209.746H233.474Z" fill="white"/>
<path d="M236.471 215.967L234.152 216.985V229.483L236.471 228.522V215.967Z" fill="white"/>
<path d="M231.607 218.116L230.476 220.717L229.345 219.134V229.483L231.607 228.465V218.116Z" fill="white"/>
<mask id="mask1" mask-type="alpha" maskUnits="userSpaceOnUse" x="0" y="182" width="138" height="139">
<path d="M68.6522 320.512C106.568 320.512 137.304 289.724 137.304 251.746C137.304 213.767 106.568 182.979 68.6522 182.979C30.7367 182.979 0 213.767 0 251.746C0 289.724 30.7367 320.512 68.6522 320.512Z" fill="#D8EEFF"/>
</mask>
<g mask="url(#mask1)">
<rect x="-10.9014" y="179.99" width="148.206" height="143.036" fill="#D8EEFF"/>
<path d="M93.8783 236.89C93.1871 236.198 92.496 235.621 91.5745 235.39C91.5745 235.275 91.2289 232.159 89.8467 228.467L91.9201 227.198L94.4542 229.621C94.6846 229.621 93.9935 236.89 93.8783 236.89Z" fill="#25416D"/>
<path d="M114.497 321.925H22.8066V289.965C22.8066 283.619 27.9901 278.427 34.3255 278.427H102.978C109.313 278.427 114.497 283.619 114.497 289.965V321.925Z" fill="#6CB8FF"/>
<path d="M91.8051 235.39C91.8051 235.275 91.8051 235.159 91.8051 235.044C91.8051 219.583 81.5533 207.122 68.9978 207.122C56.3271 207.122 46.1905 219.583 46.1905 235.044C46.1905 235.159 46.1905 235.275 46.1905 235.39C43.5412 236.313 41.4678 239.659 41.4678 243.697C41.4678 248.082 43.7716 251.659 46.8816 252.12C48.8398 259.851 53.7929 265.966 60.3586 268.966L56.7878 278.542L68.4218 288.119H68.9978L80.6318 278.542L77.061 268.966C83.6267 266.081 88.8102 259.851 90.6532 252.12C93.8785 252.005 96.5278 248.313 96.5278 243.697C96.5278 239.659 94.4544 236.313 91.8051 235.39Z" fill="#FFEFEF"/>
<path d="M43.8863 236.89C44.5774 236.198 45.2686 235.621 46.1901 235.39C46.1901 235.275 46.5356 232.159 47.9179 228.467L45.8445 227.198L43.3104 229.621C43.08 229.621 43.7711 236.89 43.8863 236.89Z" fill="#25416D"/>
<path d="M94.5691 228.813C94.5691 213.583 82.9351 201.122 68.6517 201.122C54.3684 201.122 42.7344 213.468 42.7344 228.813C42.7344 229.159 42.7344 229.39 42.7344 229.736H45.9596C46.5356 236.428 56.4418 238.851 68.6517 238.851C80.8617 238.851 90.7679 236.544 91.3438 229.736H94.5691C94.5691 229.39 94.5691 229.044 94.5691 228.813Z" fill="#B0DDFF"/>
<path d="M92.0344 229.621C92.0344 229.621 90.6522 239.775 68.9967 239.775C45.7287 239.775 45.9591 229.621 45.9591 229.621C45.9591 229.621 56.6716 227.544 69.3423 227.544C82.0131 227.544 92.0344 229.621 92.0344 229.621Z" fill="#6CB8FF"/>
<path d="M47.1119 252.466C46.1904 248.543 45.2689 234.352 45.9601 235.39C47.3423 237.698 46.3056 246.697 52.8713 255.236C55.1751 258.235 65.4269 253.966 68.0762 254.082C72.6837 254.312 77.752 256.735 80.2862 257.428C89.386 259.62 90.9987 238.621 91.805 234.698C92.2658 232.275 92.7265 237.005 90.9987 251.428C90.5379 255.351 83.7418 270.927 68.7673 270.812C52.1802 270.581 47.1119 252.466 47.1119 252.466Z" fill="#25416D"/>
<path d="M77.1751 259.043C77.0599 260.428 71.8764 261.581 68.6511 261.581C65.4258 261.581 60.8183 260.197 60.7031 258.697C60.7031 258.005 65.6562 258.928 68.8815 258.928C72.1068 258.928 77.1751 258.466 77.1751 259.043Z" fill="white"/>
</g>
<path d="M171.728 251.912H109.431V329.59H171.728V251.912Z" fill="#B0DDFF"/>
<path d="M147.842 265.087H117.985C117.42 265.087 116.936 264.602 116.936 264.036V263.228C116.936 262.662 117.42 262.177 117.985 262.177H147.842C148.407 262.177 148.891 262.662 148.891 263.228V264.036C148.891 264.602 148.407 265.087 147.842 265.087Z" fill="white"/>
<path d="M162.287 265.087H153.329C152.764 265.087 152.28 264.602 152.28 264.036V263.228C152.28 262.662 152.764 262.177 153.329 262.177H162.287C162.852 262.177 163.336 262.662 163.336 263.228V264.036C163.336 264.602 162.852 265.087 162.287 265.087Z" fill="white"/>
<path d="M147.842 273.089H117.985C117.42 273.089 116.936 272.604 116.936 272.039V271.23C116.936 270.664 117.42 270.179 117.985 270.179H147.842C148.407 270.179 148.891 270.664 148.891 271.23V272.039C148.891 272.604 148.407 273.089 147.842 273.089Z" fill="white"/>
<path d="M162.287 273.089H153.329C152.764 273.089 152.28 272.604 152.28 272.039V271.23C152.28 270.664 152.764 270.179 153.329 270.179H162.287C162.852 270.179 163.336 270.664 163.336 271.23V272.039C163.336 272.604 162.852 273.089 162.287 273.089Z" fill="white"/>
<path d="M147.842 281.011H117.985C117.42 281.011 116.936 280.526 116.936 279.96V279.152C116.936 278.586 117.42 278.101 117.985 278.101H147.842C148.407 278.101 148.891 278.586 148.891 279.152V279.96C148.891 280.526 148.407 281.011 147.842 281.011Z" fill="white"/>
<path d="M162.287 281.011H153.329C152.764 281.011 152.28 280.526 152.28 279.96V279.152C152.28 278.586 152.764 278.101 153.329 278.101H162.287C162.852 278.101 163.336 278.586 163.336 279.152V279.96C163.336 280.526 162.852 281.011 162.287 281.011Z" fill="white"/>
<path d="M147.842 288.932H117.985C117.42 288.932 116.936 288.447 116.936 287.882V287.073C116.936 286.507 117.42 286.022 117.985 286.022H147.842C148.407 286.022 148.891 286.507 148.891 287.073V287.882C148.891 288.447 148.407 288.932 147.842 288.932Z" fill="white"/>
<path d="M162.287 288.932H153.329C152.764 288.932 152.28 288.447 152.28 287.882V287.073C152.28 286.507 152.764 286.022 153.329 286.022H162.287C162.852 286.022 163.336 286.507 163.336 287.073V287.882C163.336 288.447 162.852 288.932 162.287 288.932Z" fill="white"/>
<path d="M147.842 296.854H117.985C117.42 296.854 116.936 296.369 116.936 295.803V294.994C116.936 294.429 117.42 293.944 117.985 293.944H147.842C148.407 293.944 148.891 294.429 148.891 294.994V295.803C148.891 296.449 148.407 296.854 147.842 296.854Z" fill="white"/>
<path d="M162.287 296.854H153.329C152.764 296.854 152.28 296.369 152.28 295.803V294.994C152.28 294.429 152.764 293.944 153.329 293.944H162.287C162.852 293.944 163.336 294.429 163.336 294.994V295.803C163.336 296.449 162.852 296.854 162.287 296.854Z" fill="white"/>
<path d="M147.842 304.856H117.985C117.42 304.856 116.936 304.371 116.936 303.805V302.997C116.936 302.431 117.42 301.946 117.985 301.946H147.842C148.407 301.946 148.891 302.431 148.891 302.997V303.805C148.891 304.371 148.407 304.856 147.842 304.856Z" fill="white"/>
<path d="M162.287 304.856H153.329C152.764 304.856 152.28 304.371 152.28 303.805V302.997C152.28 302.431 152.764 301.946 153.329 301.946H162.287C162.852 301.946 163.336 302.431 163.336 302.997V303.805C163.336 304.371 162.852 304.856 162.287 304.856Z" fill="white"/>
<path d="M147.842 313.181H117.985C117.42 313.181 116.936 312.696 116.936 312.131V311.322C116.936 310.756 117.42 310.271 117.985 310.271H147.842C148.407 310.271 148.891 310.756 148.891 311.322V312.131C148.891 312.696 148.407 313.181 147.842 313.181Z" fill="white"/>
<path d="M162.287 313.181H153.329C152.764 313.181 152.28 312.696 152.28 312.131V311.322C152.28 310.756 152.764 310.271 153.329 310.271H162.287C162.852 310.271 163.336 310.756 163.336 311.322V312.131C163.336 312.696 162.852 313.181 162.287 313.181Z" fill="white"/>
<path d="M162.287 325.953H153.41C152.846 325.953 152.361 325.468 152.361 324.902V324.094C152.361 323.528 152.846 323.043 153.41 323.043H162.287C162.852 323.043 163.336 323.528 163.336 324.094V324.902C163.336 325.468 162.852 325.953 162.287 325.953Z" fill="white"/>
<path d="M135.173 325.953H117.904C117.339 325.953 116.854 325.468 116.854 324.902V324.094C116.854 323.528 117.339 323.043 117.904 323.043H135.173C135.737 323.043 136.222 323.528 136.222 324.094V324.902C136.222 325.468 135.737 325.953 135.173 325.953Z" fill="white"/>
<path d="M171.728 329.671C171.728 329.59 171.728 329.509 171.728 329.429H109.431V330.237C109.673 334.036 112.659 337.108 116.451 337.512H178.83C174.795 337.027 171.728 333.713 171.728 329.671Z" fill="#B0DDFF"/>
<path d="M171.971 331.773C172.939 335.087 175.925 337.431 179.475 337.431C183.026 337.431 186.093 335.006 186.98 331.773H171.971Z" fill="#6CB8FF"/>
<mask id="mask2" mask-type="alpha" maskUnits="userSpaceOnUse" x="249" y="182" width="138" height="139">
<path d="M317.672 320.512C355.587 320.512 386.324 289.724 386.324 251.746C386.324 213.767 355.587 182.979 317.672 182.979C279.756 182.979 249.02 213.767 249.02 251.746C249.02 289.724 279.756 320.512 317.672 320.512Z" fill="#D8EEFF"/>
</mask>
<g mask="url(#mask2)">
<rect x="238.119" y="180" width="148.206" height="143.036" fill="#D8EEFF"/>
<path d="M342.898 236.89C342.207 236.198 341.516 235.621 340.594 235.39C340.594 235.275 340.248 232.159 338.866 228.467L340.94 227.198L343.474 229.621C343.704 229.621 343.013 236.89 342.898 236.89Z" fill="#25416D"/>
<path d="M363.517 321.925H271.827V289.965C271.827 283.619 277.011 278.427 283.346 278.427H351.998C358.334 278.427 363.517 283.619 363.517 289.965V321.925Z" fill="#6CB8FF"/>
<path d="M340.825 235.39C340.825 235.275 340.825 235.159 340.825 235.044C340.825 219.583 330.573 207.122 318.017 207.122C305.347 207.122 295.21 219.583 295.21 235.044C295.21 235.159 295.21 235.275 295.21 235.39C292.561 236.313 290.487 239.659 290.487 243.697C290.487 248.082 292.791 251.659 295.901 252.12C297.859 259.851 302.812 265.966 309.378 268.966L305.807 278.542L317.441 288.119H318.017L329.651 278.542L326.08 268.966C332.646 266.081 337.83 259.851 339.673 252.12C342.898 252.005 345.547 248.313 345.547 243.697C345.547 239.659 343.474 236.313 340.825 235.39Z" fill="#FFEFEF"/>
<path d="M292.907 236.89C293.598 236.198 294.289 235.621 295.211 235.39C295.211 235.275 295.556 232.159 296.938 228.467L294.865 227.198L292.331 229.621C292.1 229.621 292.792 236.89 292.907 236.89Z" fill="#25416D"/>
<path d="M343.59 228.813C343.59 213.583 331.956 201.122 317.672 201.122C303.389 201.122 291.755 213.468 291.755 228.813C291.755 229.159 291.755 229.39 291.755 229.736H294.98C295.556 236.428 305.462 238.851 317.672 238.851C329.882 238.851 339.788 236.544 340.364 229.736H343.59C343.59 229.39 343.59 229.044 343.59 228.813Z" fill="#B0DDFF"/>
<path d="M341.055 229.621C341.055 229.621 339.673 239.775 318.017 239.775C294.749 239.775 294.98 229.621 294.98 229.621C294.98 229.621 305.692 227.544 318.363 227.544C331.034 227.544 341.055 229.621 341.055 229.621Z" fill="#6CB8FF"/>
<path d="M296.131 252.466C295.21 248.543 294.288 234.352 294.98 235.39C296.362 237.698 295.325 246.697 301.891 255.236C304.195 258.235 314.446 253.966 317.096 254.082C321.703 254.312 326.772 256.735 329.306 257.428C338.406 259.62 340.018 238.621 340.825 234.698C341.285 232.275 341.746 237.005 340.018 251.428C339.557 255.351 332.761 270.927 317.787 270.812C301.2 270.581 296.131 252.466 296.131 252.466Z" fill="#25416D"/>
<path d="M326.196 259.043C326.08 260.428 320.897 261.581 317.672 261.581C314.446 261.581 309.839 260.197 309.724 258.697C309.724 258.005 314.677 258.928 317.902 258.928C321.127 258.928 326.196 258.466 326.196 259.043Z" fill="white"/>
</g>
<path d="M420.749 251.912H358.451V329.59H420.749V251.912Z" fill="#B0DDFF"/>
<path d="M396.863 265.087H367.005C366.44 265.087 365.956 264.602 365.956 264.036V263.228C365.956 262.662 366.44 262.177 367.005 262.177H396.863C397.428 262.177 397.912 262.662 397.912 263.228V264.036C397.912 264.602 397.428 265.087 396.863 265.087Z" fill="white"/>
<path d="M411.307 265.087H402.35C401.785 265.087 401.301 264.602 401.301 264.036V263.228C401.301 262.662 401.785 262.177 402.35 262.177H411.307C411.872 262.177 412.356 262.662 412.356 263.228V264.036C412.356 264.602 411.872 265.087 411.307 265.087Z" fill="white"/>
<path d="M396.863 273.089H367.005C366.44 273.089 365.956 272.604 365.956 272.039V271.23C365.956 270.664 366.44 270.179 367.005 270.179H396.863C397.428 270.179 397.912 270.664 397.912 271.23V272.039C397.912 272.604 397.428 273.089 396.863 273.089Z" fill="white"/>
<path d="M411.307 273.089H402.35C401.785 273.089 401.301 272.604 401.301 272.039V271.23C401.301 270.664 401.785 270.179 402.35 270.179H411.307C411.872 270.179 412.356 270.664 412.356 271.23V272.039C412.356 272.604 411.872 273.089 411.307 273.089Z" fill="white"/>
<path d="M396.863 281.011H367.005C366.44 281.011 365.956 280.526 365.956 279.96V279.152C365.956 278.586 366.44 278.101 367.005 278.101H396.863C397.428 278.101 397.912 278.586 397.912 279.152V279.96C397.912 280.526 397.428 281.011 396.863 281.011Z" fill="white"/>
<path d="M411.307 281.011H402.35C401.785 281.011 401.301 280.526 401.301 279.96V279.152C401.301 278.586 401.785 278.101 402.35 278.101H411.307C411.872 278.101 412.356 278.586 412.356 279.152V279.96C412.356 280.526 411.872 281.011 411.307 281.011Z" fill="white"/>
<path d="M396.863 288.932H367.005C366.44 288.932 365.956 288.447 365.956 287.882V287.073C365.956 286.507 366.44 286.022 367.005 286.022H396.863C397.428 286.022 397.912 286.507 397.912 287.073V287.882C397.912 288.447 397.428 288.932 396.863 288.932Z" fill="white"/>
<path d="M411.307 288.932H402.35C401.785 288.932 401.301 288.447 401.301 287.882V287.073C401.301 286.507 401.785 286.022 402.35 286.022H411.307C411.872 286.022 412.356 286.507 412.356 287.073V287.882C412.356 288.447 411.872 288.932 411.307 288.932Z" fill="white"/>
<path d="M396.863 296.854H367.005C366.44 296.854 365.956 296.369 365.956 295.803V294.994C365.956 294.429 366.44 293.944 367.005 293.944H396.863C397.428 293.944 397.912 294.429 397.912 294.994V295.803C397.912 296.449 397.428 296.854 396.863 296.854Z" fill="white"/>
<path d="M411.307 296.854H402.35C401.785 296.854 401.301 296.369 401.301 295.803V294.994C401.301 294.429 401.785 293.944 402.35 293.944H411.307C411.872 293.944 412.356 294.429 412.356 294.994V295.803C412.356 296.449 411.872 296.854 411.307 296.854Z" fill="white"/>
<path d="M396.863 304.856H367.005C366.44 304.856 365.956 304.371 365.956 303.805V302.997C365.956 302.431 366.44 301.946 367.005 301.946H396.863C397.428 301.946 397.912 302.431 397.912 302.997V303.805C397.912 304.371 397.428 304.856 396.863 304.856Z" fill="white"/>
<path d="M411.307 304.856H402.35C401.785 304.856 401.301 304.371 401.301 303.805V302.997C401.301 302.431 401.785 301.946 402.35 301.946H411.307C411.872 301.946 412.356 302.431 412.356 302.997V303.805C412.356 304.371 411.872 304.856 411.307 304.856Z" fill="white"/>
<path d="M396.863 313.181H367.005C366.44 313.181 365.956 312.696 365.956 312.131V311.322C365.956 310.756 366.44 310.271 367.005 310.271H396.863C397.428 310.271 397.912 310.756 397.912 311.322V312.131C397.912 312.696 397.428 313.181 396.863 313.181Z" fill="white"/>
<path d="M411.307 313.181H402.35C401.785 313.181 401.301 312.696 401.301 312.131V311.322C401.301 310.756 401.785 310.271 402.35 310.271H411.307C411.872 310.271 412.356 310.756 412.356 311.322V312.131C412.356 312.696 411.872 313.181 411.307 313.181Z" fill="white"/>
<path d="M411.308 325.953H402.431C401.866 325.953 401.382 325.468 401.382 324.902V324.094C401.382 323.528 401.866 323.043 402.431 323.043H411.308C411.872 323.043 412.357 323.528 412.357 324.094V324.902C412.357 325.468 411.872 325.953 411.308 325.953Z" fill="white"/>
<path d="M384.193 325.953H366.924C366.359 325.953 365.875 325.468 365.875 324.902V324.094C365.875 323.528 366.359 323.043 366.924 323.043H384.193C384.758 323.043 385.242 323.528 385.242 324.094V324.902C385.242 325.468 384.758 325.953 384.193 325.953Z" fill="white"/>
<path d="M420.749 329.671C420.749 329.59 420.749 329.509 420.749 329.429H358.451V330.237C358.693 334.036 361.679 337.108 365.472 337.512H427.85C423.815 337.027 420.749 333.713 420.749 329.671Z" fill="#B0DDFF"/>
<path d="M420.991 331.773C421.96 335.087 424.945 337.431 428.496 337.431C432.047 337.431 435.113 335.006 436.001 331.773H420.991Z" fill="#6CB8FF"/>
</svg>
