<svg width="475" height="349" viewBox="0 0 475 349" fill="none" xmlns="http://www.w3.org/2000/svg">
<path d="M134.555 295.999L148.684 338.84L104.463 329.607L134.555 295.999Z" fill="#D8EEFF"/>
<path d="M452.842 295.999L466.971 338.84L422.75 329.607L452.842 295.999Z" fill="#D8EEFF"/>
<path d="M329.796 132.857L348.121 188.422L290.767 176.446L329.796 132.857Z" fill="#114CA8"/>
<mask id="mask0" mask-type="alpha" maskUnits="userSpaceOnUse" x="130" y="0" width="206" height="205">
<path d="M233.258 204.902C289.746 204.902 335.539 159.033 335.539 102.451C335.539 45.8689 289.746 0 233.258 0C176.77 0 130.978 45.8689 130.978 102.451C130.978 159.033 176.77 204.902 233.258 204.902Z" fill="#D8EEFF"/>
</mask>
<g mask="url(#mask0)">
<rect x="131.31" y="-0.502197" width="205.823" height="205.62" fill="#114CA8"/>
<path d="M301.732 206.229H164.957V158.613C164.957 149.158 172.68 141.423 182.118 141.423H284.399C293.837 141.423 301.56 149.158 301.56 158.613V206.229H301.732Z" fill="#B0DDFF"/>
<path d="M215.583 141.595L217.813 206.745H248.36L251.106 141.595H215.583Z" fill="#B0DDFF"/>
<path d="M245.957 112.544C245.786 114.607 238.063 116.326 233.258 116.326C228.453 116.326 221.589 114.263 221.417 112.029C221.417 110.997 228.796 112.372 233.601 112.372C238.578 112.544 246.129 111.685 245.957 112.544Z" fill="white"/>
<path d="M267.752 77.3051C267.752 77.1332 267.752 76.9613 267.752 76.7894C267.752 53.7551 252.479 35.1902 233.773 35.1902C215.067 35.1902 199.794 53.7551 199.794 76.7894C199.794 76.9613 199.794 77.1332 199.794 77.3051C195.847 78.6803 192.758 83.6653 192.758 89.6818C192.758 96.2139 196.19 101.543 200.824 102.23C203.741 113.747 211.12 122.858 220.902 127.327L215.582 141.595C215.582 141.595 219.358 154.143 232.915 154.143C247.845 154.143 251.106 141.595 251.106 141.595L245.786 127.327C255.568 123.03 263.29 113.747 266.036 102.23C270.841 102.058 274.788 96.5577 274.788 89.6818C274.788 83.6653 271.871 78.6803 267.752 77.3051Z" fill="#FFEFEF"/>
<path d="M272.557 60.4593C272.385 57.7089 272.042 38.6283 258.485 38.8002C258.313 31.7524 244.241 26.5954 233.43 26.2516C217.641 25.7359 193.616 34.8465 195.332 68.5385C195.332 68.5385 196.19 79.3681 196.361 79.54C197.391 78.5086 198.421 77.6491 199.794 77.3053C199.794 77.1334 200.137 70.0856 202.196 64.5848C205.285 50.6611 221.76 51.8644 237.891 51.8644C247.673 51.8644 263.29 52.552 265.178 64.5848C266.894 69.7418 267.409 77.1334 267.409 77.3053C268.61 77.6491 269.811 78.5086 270.841 79.54C271.013 79.54 271.871 68.5385 271.871 68.5385L272.557 60.4593Z" fill="#25416D"/>
<path d="M261.574 54.6148C258.657 58.9123 245.615 63.2097 231.028 63.2097C216.269 63.2097 204.428 53.9272 204.428 52.8958C204.428 51.8644 210.434 47.9108 214.724 46.5356C219.015 45.1604 230.684 38.8002 236.691 40.1754C242.697 41.7225 261.574 54.6148 261.574 54.6148Z" fill="#25416D"/>
</g>
<circle cx="259.484" cy="168.842" r="13.6573" fill="#6CB8FF"/>
<path d="M255.934 169.387L254.191 170.171V176.446L255.934 175.662V169.387Z" fill="white"/>
<path d="M261.165 161.238L262.777 162.502L254.193 166.293V168.21V168.254L263.474 164.114V166.031L267.309 161.238H261.165Z" fill="white"/>
<path d="M263.473 166.031L261.687 166.816V176.446L263.473 175.705V166.031Z" fill="white"/>
<path d="M259.725 167.687L258.854 169.692L257.982 168.472V176.446L259.725 175.662V167.687Z" fill="white"/>
<mask id="mask1" mask-type="alpha" maskUnits="userSpaceOnUse" x="0" y="211" width="138" height="138">
<path d="M69.1254 348.767C107.041 348.767 137.778 317.979 137.778 280C137.778 242.021 107.041 211.233 69.1254 211.233C31.2098 211.233 0.473145 242.021 0.473145 280C0.473145 317.979 31.2098 348.767 69.1254 348.767Z" fill="#D8EEFF"/>
</mask>
<g mask="url(#mask1)">
<rect x="-10.4282" y="208.48" width="148.206" height="143.036" fill="#D8EEFF"/>
<path d="M94.3514 265.144C93.6603 264.452 92.9692 263.875 92.0477 263.644C92.0477 263.529 91.7021 260.414 90.3198 256.721L92.3932 255.452L94.9274 257.875C95.1577 257.875 94.4666 265.144 94.3514 265.144Z" fill="#25416D"/>
<path d="M114.97 350.18H23.2803V318.219C23.2803 311.874 28.4637 306.681 34.7991 306.681H103.451C109.787 306.681 114.97 311.874 114.97 318.219V350.18Z" fill="#6CB8FF"/>
<path d="M92.2777 263.644C92.2777 263.529 92.2777 263.413 92.2777 263.298C92.2777 247.837 82.026 235.376 69.4704 235.376C56.7997 235.376 46.6632 247.837 46.6632 263.298C46.6632 263.413 46.6632 263.529 46.6632 263.644C44.0138 264.567 41.9404 267.913 41.9404 271.952C41.9404 276.336 44.2442 279.913 47.3543 280.374C49.3125 288.105 54.2656 294.22 60.8313 297.22L57.2605 306.796L68.8945 316.373H69.4704L81.1045 306.796L77.5336 297.22C84.0993 294.335 89.2828 288.105 91.1259 280.374C94.3511 280.259 97.0004 276.567 97.0004 271.952C97.0004 267.913 94.9271 264.567 92.2777 263.644Z" fill="#FFEFEF"/>
<path d="M44.3594 265.144C45.0506 264.452 45.7417 263.875 46.6632 263.644C46.6632 263.529 47.0088 260.414 48.391 256.721L46.3176 255.452L43.7835 257.875C43.5531 257.875 44.2443 265.144 44.3594 265.144Z" fill="#25416D"/>
<path d="M95.0423 257.068C95.0423 241.838 83.4082 229.376 69.1249 229.376C54.8415 229.376 43.2075 241.722 43.2075 257.068C43.2075 257.414 43.2075 257.645 43.2075 257.991H46.4328C47.0087 264.683 56.9149 267.106 69.1249 267.106C81.3349 267.106 91.241 264.798 91.817 257.991H95.0423C95.0423 257.645 95.0423 257.299 95.0423 257.068Z" fill="#B0DDFF"/>
<path d="M92.5081 257.875C92.5081 257.875 91.1258 268.029 69.4704 268.029C46.2023 268.029 46.4327 257.875 46.4327 257.875C46.4327 257.875 57.1452 255.798 69.816 255.798C82.4867 255.798 92.5081 257.875 92.5081 257.875Z" fill="#6CB8FF"/>
<path d="M47.5851 280.721C46.6636 276.798 45.7421 262.606 46.4332 263.644C47.8155 265.952 46.7788 274.952 53.3445 283.49C55.6483 286.49 65.9 282.221 68.5494 282.336C73.1569 282.567 78.2252 284.99 80.7593 285.682C89.8592 287.874 91.4718 266.875 92.2781 262.952C92.7389 260.529 93.1996 265.26 91.4718 279.682C91.0111 283.605 84.215 299.182 69.2405 299.066C52.6534 298.835 47.5851 280.721 47.5851 280.721Z" fill="#25416D"/>
<path d="M77.6487 287.297C77.5335 288.682 72.35 289.836 69.1248 289.836C65.8995 289.836 61.2919 288.451 61.1768 286.951C61.1768 286.259 66.1298 287.182 69.3551 287.182C72.5804 287.182 77.6487 286.72 77.6487 287.297Z" fill="white"/>
</g>
<mask id="mask2" mask-type="alpha" maskUnits="userSpaceOnUse" x="319" y="211" width="138" height="138">
<path d="M387.984 348.763C425.898 348.763 456.634 317.976 456.634 279.998C456.634 242.021 425.898 211.233 387.984 211.233C350.069 211.233 319.333 242.021 319.333 279.998C319.333 317.976 350.069 348.763 387.984 348.763Z" fill="#D8EEFF"/>
</mask>
<g mask="url(#mask2)">
<rect x="319.333" y="210.896" width="136.855" height="138.012" fill="#D8EEFF"/>
<path d="M433.943 348.311H342.14V316.352C342.14 310.006 347.323 304.814 353.659 304.814H422.309C428.644 304.814 433.828 310.006 433.828 316.352V348.311H433.943Z" fill="#B0DDFF"/>
<path d="M376.12 304.929L377.617 348.657H398.12L399.963 304.929H376.12Z" fill="#6CB8FF"/>
<path d="M396.508 285.431C396.392 286.815 391.209 287.969 387.984 287.969C384.759 287.969 380.151 286.584 380.036 285.084C380.036 284.392 384.989 285.315 388.214 285.315C391.555 285.43 396.623 284.854 396.508 285.431Z" fill="white"/>
<path d="M411.136 261.778C411.136 261.663 411.136 261.547 411.136 261.432C411.136 245.972 400.884 233.511 388.329 233.511C375.774 233.511 365.522 245.972 365.522 261.432C365.522 261.547 365.522 261.663 365.522 261.778C362.873 262.701 360.8 266.047 360.8 270.085C360.8 274.47 363.104 278.046 366.214 278.508C368.172 286.238 373.125 292.353 379.69 295.353L376.119 304.929C376.119 304.929 378.654 313.352 387.753 313.352C397.774 313.352 399.963 304.929 399.963 304.929L396.392 295.353C402.958 292.469 408.141 286.238 409.984 278.508C413.209 278.393 415.859 274.701 415.859 270.085C415.859 266.047 413.9 262.701 411.136 261.778Z" fill="#FFEFEF"/>
<path d="M414.361 250.471C414.246 248.625 414.016 235.818 404.916 235.934C404.801 231.203 395.356 227.742 388.099 227.511C377.502 227.165 361.376 233.28 362.528 255.894C362.528 255.894 363.104 263.163 363.219 263.278C363.91 262.586 364.601 262.009 365.523 261.778C365.523 261.663 365.753 256.933 367.135 253.24C369.208 243.895 380.266 244.703 391.094 244.703C397.659 244.703 408.141 245.164 409.408 253.24C410.56 256.702 410.906 261.663 410.906 261.778C411.712 262.009 412.518 262.586 413.209 263.278C413.325 263.278 413.9 255.894 413.9 255.894L414.361 250.471Z" fill="#25416D"/>
<path d="M406.99 246.548C405.031 249.433 396.277 252.317 386.487 252.317C376.581 252.317 368.633 246.087 368.633 245.395C368.633 244.702 372.664 242.049 375.544 241.126C378.424 240.203 386.256 235.934 390.288 236.857C394.319 237.895 406.99 246.548 406.99 246.548Z" fill="#25416D"/>
</g>
<circle cx="98.3052" cy="156.34" r="19.1627" fill="#D8EEFF"/>
<circle cx="65.0235" cy="188.255" r="11.0753" fill="#D8EEFF"/>
<circle r="19.1627" transform="matrix(-1 0 0 1 368.211 156.34)" fill="#D8EEFF"/>
<circle r="11.0753" transform="matrix(-1 0 0 1 401.493 188.255)" fill="#D8EEFF"/>
</svg>
