<svg width="517" height="357" viewBox="0 0 517 357" fill="none" xmlns="http://www.w3.org/2000/svg">
<path opacity="0.8" d="M382.517 323.748C371.592 322.76 363.176 284.838 351.994 279.624C340.812 274.409 348.301 304.722 327.3 299.752C310.893 295.869 307.205 242.921 296.085 252.949C284.965 262.977 271.002 269.997 254.985 266.186C238.968 262.375 245.934 292.579 232.017 263.779C218.1 234.98 213.28 269.395 199.378 269.395C185.477 269.395 192.596 321.429 175.504 309.508C158.412 297.587 149.21 316.679 135.31 317.731C123.799 318.602 120.5 293.69 105.947 298.991C91.3937 304.292 90.4637 293.864 75.1705 293.864C61.6736 293.864 53.8348 328.758 35.5811 326.355C17.3274 323.952 0.222656 316.728 0.222656 316.728V356.44H517V274.008C517 274.008 511.612 283.656 501.89 283.234C492.167 282.812 495.531 303.29 478.922 304.694C462.312 306.098 458.887 271.676 439.937 263.779C420.986 255.882 417.727 299.877 403.974 296.672C390.22 293.466 393.442 324.735 382.517 323.748Z" fill="#FFEFEF" fill-opacity="0.6"/>
<path d="M367.78 275.571C373.378 256.242 380.699 199.589 409.337 207.809C437.975 216.03 438.836 289.789 478.241 292.455C515.768 294.994 516.969 285.327 516.999 284.4V284.329C516.999 284.329 517 284.354 516.999 284.4V356.44H0.222656V273.571C0.222656 273.571 0.677316 299.787 24.2432 303.342C47.8091 306.896 50.6186 326.541 64.1737 326.541C79.7203 326.541 80.2236 307.933 100.779 314.827C121.334 321.721 118.757 304.29 130.063 303.342C144.614 302.122 147.201 248.979 177.618 258.464C208.035 267.948 201.765 234.692 217.269 234.692C232.772 234.692 219.196 265.835 248.486 268.239C277.776 270.644 265.289 319.782 291.555 319.782C310.841 319.782 318.718 304.496 338.065 309.205C357.412 313.914 364.492 286.922 367.78 275.571Z" fill="#EDF6FE"/>
<path d="M68.6865 264.869L79.3694 275.552" stroke="#FFEFEF" stroke-width="3.42974" stroke-miterlimit="10" stroke-linecap="round"/>
<path d="M79.3694 264.869L68.6865 275.552" stroke="#FFEFEF" stroke-width="3.42974" stroke-miterlimit="10" stroke-linecap="round"/>
<path d="M240.01 93.1129C240.01 97.1395 236.746 100.403 232.721 100.403C228.697 100.403 225.433 97.1395 225.433 93.1129C225.433 89.0863 228.697 85.8228 232.721 85.8228C236.746 85.8228 240.01 89.0863 240.01 93.1129Z" fill="#F9F9F9"/>
<path d="M240.01 93.1129C240.01 97.1395 236.746 100.403 232.721 100.403C228.697 100.403 225.433 97.1395 225.433 93.1129C225.433 89.0863 228.697 85.8228 232.721 85.8228C236.746 85.8228 240.01 89.0863 240.01 93.1129Z" stroke="#25416D" stroke-width="3.42974"/>
<path d="M240.01 93.1129C240.01 97.1395 236.746 100.403 232.721 100.403C228.697 100.403 225.433 97.1395 225.433 93.1129C225.433 89.0863 228.697 85.8228 232.721 85.8228C236.746 85.8228 240.01 89.0863 240.01 93.1129Z" stroke="#FFC6C0" stroke-width="3.42974"/>
<path d="M240.01 93.1129C240.01 97.1395 236.746 100.403 232.721 100.403C228.697 100.403 225.433 97.1395 225.433 93.1129C225.433 89.0863 228.697 85.8228 232.721 85.8228C236.746 85.8228 240.01 89.0863 240.01 93.1129Z" stroke="#FF5757" stroke-width="3.42974"/>
<path d="M70.7607 268.717C100.262 276.092 233.837 327.718 255.553 250.688C277.422 133.487 229.53 141.355 233.837 93.3484C250.739 65.0689 324.095 67.3414 374.575 111.593C425.055 155.845 431.195 179.121 433.79 185.13" stroke="#FFEFEF" stroke-width="4"/>
<path d="M420.473 146.531C420.473 153.859 414.534 159.799 407.209 159.799C399.883 159.799 393.944 153.859 393.944 146.531C393.944 139.203 399.883 133.263 407.209 133.263C414.534 133.263 420.473 139.203 420.473 146.531Z" fill="white" stroke="#FFEFEF" stroke-width="3.42974"/>
<path d="M152.972 285.193C152.972 292.522 147.033 298.461 139.708 298.461C132.382 298.461 126.443 292.522 126.443 285.193C126.443 277.865 132.382 271.926 139.708 271.926C147.033 271.926 152.972 277.865 152.972 285.193Z" fill="white" stroke="#FFEFEF" stroke-width="3.42974"/>
<path d="M66.8076 273.601C74.7497 257.67 77.397 225.808 125.049 219.17C172.701 212.533 233.59 180.671 223 127.568C212.411 74.4646 270.652 90.3956 294.478 138.188C318.304 185.981 258.333 215.433 254.768 237.757C249.044 273.601 329.705 312.717 430.36 186.927" stroke="#114CA8" stroke-width="4" stroke-linecap="round"/>
<path d="M61.2681 282.3H56.6313L53.4057 302.46H56.3145L56.8617 298.803H60.7497L61.2969 302.46H64.4937L61.2681 282.3ZM58.7913 285.872L60.3177 296.067H57.2649L58.7913 285.872Z" fill="#25416D"/>
<path d="M212.503 54.2227H207.722V74.3828H212.704C215.872 74.3828 217.514 72.7124 217.514 69.602V67.9604C217.514 65.8292 216.851 64.3028 215.152 63.6404C216.563 62.978 217.197 61.6532 217.197 59.5796V58.8595C217.197 55.7491 215.786 54.2227 212.503 54.2227ZM212.301 65.3108C213.741 65.3108 214.346 65.8868 214.346 67.7588V69.5156C214.346 71.0132 213.77 71.5028 212.704 71.5028H210.89V65.3108H212.301ZM212.416 57.1027C213.539 57.1027 214.029 57.7363 214.029 59.1763V60.2996C214.029 61.9124 213.309 62.4308 212.128 62.4308H210.89V57.1027H212.416Z" fill="#25416D"/>
<path d="M232.778 259.789V262.669C232.778 264.109 232.144 264.627 231.136 264.627C230.128 264.627 229.494 264.109 229.494 262.669V251.782C229.494 250.342 230.128 249.795 231.136 249.795C232.144 249.795 232.778 250.342 232.778 251.782V253.942H235.773V251.984C235.773 248.758 234.16 246.915 231.05 246.915C227.939 246.915 226.326 248.758 226.326 251.984V262.467C226.326 265.693 227.939 267.536 231.05 267.536C234.16 267.536 235.773 265.693 235.773 262.467V259.789H232.778Z" fill="#25416D"/>
<path d="M448.661 182.42H453.672C456.84 182.42 458.395 180.663 458.395 177.437V167.242C458.395 164.016 456.84 162.26 453.672 162.26H448.661V182.42ZM453.614 165.14C454.622 165.14 455.227 165.658 455.227 167.098V177.581C455.227 179.021 454.622 179.54 453.614 179.54H451.829V165.14H453.614Z" fill="#25416D"/>
<path d="M77.9544 268.456C77.9544 272.647 74.3801 276.173 69.8087 276.173C65.2374 276.173 61.6631 272.647 61.6631 268.456C61.6631 264.266 65.2374 260.74 69.8087 260.74C74.3801 260.74 77.9544 264.266 77.9544 268.456Z" fill="#F9F9F9"/>
<path d="M77.9544 268.456C77.9544 272.647 74.3801 276.173 69.8087 276.173C65.2374 276.173 61.6631 272.647 61.6631 268.456C61.6631 264.266 65.2374 260.74 69.8087 260.74C74.3801 260.74 77.9544 264.266 77.9544 268.456Z" stroke="#25416D" stroke-width="3.42974"/>
<path d="M77.9544 268.456C77.9544 272.647 74.3801 276.173 69.8087 276.173C65.2374 276.173 61.6631 272.647 61.6631 268.456C61.6631 264.266 65.2374 260.74 69.8087 260.74C74.3801 260.74 77.9544 264.266 77.9544 268.456Z" stroke="#FFC6C0" stroke-width="3.42974"/>
<path d="M77.9544 268.456C77.9544 272.647 74.3801 276.173 69.8087 276.173C65.2374 276.173 61.6631 272.647 61.6631 268.456C61.6631 264.266 65.2374 260.74 69.8087 260.74C74.3801 260.74 77.9544 264.266 77.9544 268.456Z" stroke="#FF5757" stroke-width="3.42974"/>
<path d="M263.16 248.735C263.16 252.997 259.705 256.452 255.444 256.452C251.182 256.452 247.727 252.997 247.727 248.735C247.727 244.474 251.182 241.019 255.444 241.019C259.705 241.019 263.16 244.474 263.16 248.735Z" fill="#F9F9F9"/>
<path d="M263.16 248.735C263.16 252.997 259.705 256.452 255.444 256.452C251.182 256.452 247.727 252.997 247.727 248.735C247.727 244.474 251.182 241.019 255.444 241.019C259.705 241.019 263.16 244.474 263.16 248.735Z" stroke="#25416D" stroke-width="3.42974"/>
<path d="M263.16 248.735C263.16 252.997 259.705 256.452 255.444 256.452C251.182 256.452 247.727 252.997 247.727 248.735C247.727 244.474 251.182 241.019 255.444 241.019C259.705 241.019 263.16 244.474 263.16 248.735Z" stroke="#FFC6C0" stroke-width="3.42974"/>
<path d="M263.16 248.735C263.16 252.997 259.705 256.452 255.444 256.452C251.182 256.452 247.727 252.997 247.727 248.735C247.727 244.474 251.182 241.019 255.444 241.019C259.705 241.019 263.16 244.474 263.16 248.735Z" stroke="#FF5757" stroke-width="3.42974"/>
<path d="M240.01 93.1129C240.01 97.1395 236.746 100.403 232.721 100.403C228.697 100.403 225.433 97.1395 225.433 93.1129C225.433 89.0863 228.697 85.8228 232.721 85.8228C236.746 85.8228 240.01 89.0863 240.01 93.1129Z" fill="#F9F9F9"/>
<path d="M240.01 93.1129C240.01 97.1395 236.746 100.403 232.721 100.403C228.697 100.403 225.433 97.1395 225.433 93.1129C225.433 89.0863 228.697 85.8228 232.721 85.8228C236.746 85.8228 240.01 89.0863 240.01 93.1129Z" stroke="#25416D" stroke-width="3.42974"/>
<path d="M240.01 93.1129C240.01 97.1395 236.746 100.403 232.721 100.403C228.697 100.403 225.433 97.1395 225.433 93.1129C225.433 89.0863 228.697 85.8228 232.721 85.8228C236.746 85.8228 240.01 89.0863 240.01 93.1129Z" stroke="#FFC6C0" stroke-width="3.42974"/>
<path d="M240.01 93.1129C240.01 97.1395 236.746 100.403 232.721 100.403C228.697 100.403 225.433 97.1395 225.433 93.1129C225.433 89.0863 228.697 85.8228 232.721 85.8228C236.746 85.8228 240.01 89.0863 240.01 93.1129Z" stroke="#FF5757" stroke-width="3.42974"/>
<path d="M441.507 183.57C441.507 187.832 438.052 191.287 433.79 191.287C429.528 191.287 426.073 187.832 426.073 183.57C426.073 179.309 429.528 175.854 433.79 175.854C438.052 175.854 441.507 179.309 441.507 183.57Z" fill="#F9F9F9"/>
<path d="M441.507 183.57C441.507 187.832 438.052 191.287 433.79 191.287C429.528 191.287 426.073 187.832 426.073 183.57C426.073 179.309 429.528 175.854 433.79 175.854C438.052 175.854 441.507 179.309 441.507 183.57Z" stroke="#25416D" stroke-width="3.42974"/>
<path d="M441.507 183.57C441.507 187.832 438.052 191.287 433.79 191.287C429.528 191.287 426.073 187.832 426.073 183.57C426.073 179.309 429.528 175.854 433.79 175.854C438.052 175.854 441.507 179.309 441.507 183.57Z" stroke="#FFC6C0" stroke-width="3.42974"/>
<path d="M441.507 183.57C441.507 187.832 438.052 191.287 433.79 191.287C429.528 191.287 426.073 187.832 426.073 183.57C426.073 179.309 429.528 175.854 433.79 175.854C438.052 175.854 441.507 179.309 441.507 183.57Z" stroke="#FF5757" stroke-width="3.42974"/>
<path d="M267.378 161.134C267.378 168.462 261.439 174.402 254.113 174.402C246.788 174.402 240.849 168.462 240.849 161.134C240.849 153.806 246.788 147.866 254.113 147.866C261.439 147.866 267.378 153.806 267.378 161.134Z" fill="white" stroke="#FFEFEF" stroke-width="3.42974"/>
<path d="M249.052 156.355L258.61 165.913" stroke="#FFEFEF" stroke-width="3.42974" stroke-miterlimit="10" stroke-linecap="round"/>
<path d="M258.61 156.355L249.052 165.913" stroke="#FFEFEF" stroke-width="3.42974" stroke-miterlimit="10" stroke-linecap="round"/>
<path d="M313.778 74.7235C313.778 82.0515 307.839 87.9915 300.513 87.9915C293.188 87.9915 287.249 82.0515 287.249 74.7235C287.249 67.3955 293.188 61.4556 300.513 61.4556C307.839 61.4556 313.778 67.3955 313.778 74.7235Z" fill="white" stroke="#FFEFEF" stroke-width="3.42974"/>
<path d="M295.452 69.9443L305.01 79.5025" stroke="#FFEFEF" stroke-width="3.42974" stroke-miterlimit="10" stroke-linecap="round"/>
<path d="M305.01 69.9443L295.452 79.5024" stroke="#FFEFEF" stroke-width="3.42974" stroke-miterlimit="10" stroke-linecap="round"/>
<path d="M402.429 141.752L411.987 151.31" stroke="#FFEFEF" stroke-width="3.42974" stroke-miterlimit="10" stroke-linecap="round"/>
<path d="M411.987 141.752L402.429 151.31" stroke="#FFEFEF" stroke-width="3.42974" stroke-miterlimit="10" stroke-linecap="round"/>
<path d="M134.928 281.683L144.486 291.242" stroke="#FFEFEF" stroke-width="3.42974" stroke-miterlimit="10" stroke-linecap="round"/>
<path d="M144.486 281.684L134.928 291.242" stroke="#FFEFEF" stroke-width="3.42974" stroke-miterlimit="10" stroke-linecap="round"/>
<path d="M26.7275 134.424L87.8384 77.6369L111.574 101.372L152.408 60.5383" stroke="#114CA8" stroke-width="20"/>
<path d="M185.883 28.9203L175.596 90.2658L124.714 40.2082L185.883 28.9203Z" fill="#114CA8"/>
</svg>
