<svg width="508" height="303" viewBox="0 0 508 303" fill="none" xmlns="http://www.w3.org/2000/svg">
<path d="M120.824 62.7053L56.3076 87.262L87.071 168.085L151.588 143.528L120.824 62.7053Z" fill="#D9EFFF"/>
<path d="M100.946 86.03L70.8347 97.4911C70.0357 97.7952 69.0881 97.4083 68.763 96.5543C68.4571 95.7506 68.8386 94.8003 69.6875 94.4772L99.7486 83.0351C100.548 82.731 101.495 83.1179 101.82 83.9719C102.176 84.7566 101.745 85.7259 100.946 86.03Z" fill="white"/>
<path d="M115.876 80.3465L107.486 83.5399C106.687 83.844 105.74 83.457 105.414 82.603C105.109 81.7993 105.54 80.8298 106.339 80.5257L114.729 77.3323C115.528 77.0282 116.476 77.4151 116.801 78.2691C117.107 79.0729 116.675 80.0423 115.876 80.3465Z" fill="white"/>
<path d="M104.08 94.2676L73.969 105.729C73.17 106.033 72.2224 105.646 71.8973 104.792C71.5723 103.938 71.9729 103.038 72.8218 102.715L102.883 91.2727C103.682 90.9685 104.63 91.3555 104.955 92.2094C105.33 93.0443 104.879 93.9634 104.08 94.2676Z" fill="white"/>
<path d="M119.012 88.5843L110.623 91.7777C109.823 92.0818 108.876 91.6948 108.551 90.8408C108.245 90.037 108.676 89.0676 109.475 88.7635L117.865 85.5701C118.664 85.266 119.612 85.6529 119.937 86.5069C120.262 87.3609 119.811 88.2801 119.012 88.5843Z" fill="white"/>
<path d="M107.235 102.556L77.1238 114.017C76.3248 114.321 75.3771 113.934 75.0521 113.08C74.7462 112.276 75.1277 111.326 75.9766 111.003L106.038 99.5607C106.837 99.2566 107.784 99.6436 108.109 100.497C108.465 101.282 108.034 102.252 107.235 102.556Z" fill="white"/>
<path d="M122.166 96.8726L113.776 100.066C112.977 100.37 112.03 99.9832 111.704 99.1292C111.379 98.2751 111.83 97.356 112.629 97.0518L121.019 93.8584C121.818 93.5543 122.766 93.9412 123.091 94.7952C123.397 95.599 122.965 96.5684 122.166 96.8726Z" fill="white"/>
<path d="M110.371 110.794L80.26 122.255C79.461 122.559 78.5134 122.172 78.1883 121.318C77.8824 120.514 78.2639 119.564 79.1128 119.241L109.174 107.799C109.973 107.495 110.921 107.882 111.246 108.736C111.621 109.57 111.17 110.49 110.371 110.794Z" fill="white"/>
<path d="M125.302 105.111L116.912 108.304C116.113 108.608 115.165 108.221 114.84 107.367C114.515 106.513 114.966 105.594 115.765 105.29L124.155 102.096C124.954 101.792 125.901 102.179 126.226 103.033C126.552 103.887 126.101 104.806 125.302 105.111Z" fill="white"/>
<path d="M113.525 119.082L83.4143 130.543C82.6153 130.847 81.6677 130.461 81.3426 129.607C81.0367 128.803 81.4182 127.853 82.2671 127.529L112.328 116.087C113.127 115.783 114.075 116.17 114.4 117.024C114.756 117.809 114.324 118.778 113.525 119.082Z" fill="white"/>
<path d="M128.457 113.399L120.067 116.592C119.268 116.896 118.321 116.51 117.996 115.656C117.69 114.852 118.121 113.882 118.92 113.578L127.31 110.385C128.109 110.081 129.057 110.468 129.382 111.322C129.688 112.125 129.256 113.095 128.457 113.399Z" fill="white"/>
<path d="M116.661 127.32L86.55 138.781C85.7511 139.085 84.8034 138.699 84.4784 137.845C84.1533 136.991 84.5539 136.091 85.4028 135.767L115.464 124.325C116.263 124.021 117.211 124.408 117.536 125.262C117.911 126.097 117.46 127.016 116.661 127.32Z" fill="white"/>
<path d="M131.592 121.637L123.203 124.83C122.404 125.135 121.456 124.748 121.131 123.894C120.825 123.09 121.256 122.12 122.055 121.816L130.445 118.623C131.244 118.319 132.192 118.706 132.517 119.56C132.842 120.414 132.391 121.333 131.592 121.637Z" fill="white"/>
<path d="M119.968 136.01L89.8571 147.471C89.0582 147.775 88.1105 147.388 87.7855 146.534C87.4796 145.731 87.8611 144.78 88.71 144.457L118.771 133.015C119.57 132.711 120.518 133.098 120.843 133.952C121.218 134.787 120.767 135.706 119.968 136.01Z" fill="white"/>
<path d="M134.9 130.327L126.51 133.521C125.711 133.825 124.763 133.438 124.438 132.584C124.132 131.78 124.564 130.811 125.363 130.506L133.753 127.313C134.552 127.009 135.5 127.396 135.825 128.25C136.15 129.104 135.699 130.023 134.9 130.327Z" fill="white"/>
<path d="M139.947 143.588L131.657 146.743C130.858 147.048 129.91 146.661 129.585 145.807C129.279 145.003 129.711 144.033 130.51 143.729L138.8 140.574C139.599 140.27 140.566 140.707 140.872 141.511C141.197 142.365 140.746 143.284 139.947 143.588Z" fill="white"/>
<path d="M111.933 154.251L94.905 160.732C94.106 161.036 93.1393 160.599 92.8334 159.796C92.5274 158.992 92.9089 158.041 93.7578 157.718L110.786 151.237C111.635 150.914 112.532 151.32 112.857 152.174C113.182 153.028 112.732 153.947 111.933 154.251Z" fill="white"/>
<path d="M151.655 143.56C151.617 143.459 151.598 143.409 151.56 143.309L86.9932 167.884L87.2991 168.688C89.0592 172.561 93.3788 174.598 97.4576 173.448L97.4767 173.498L162.043 148.922L162.024 148.872C157.795 150.079 153.28 147.829 151.655 143.56Z" fill="#D9EFFF"/>
<path d="M152.766 145.725C155.015 148.78 159.116 150.094 162.812 148.688C166.507 147.281 168.697 143.572 168.345 139.795L152.766 145.725Z" fill="#B8DDFF"/>
<path d="M435.961 76.8079L374.804 60.4211L354.276 137.034L415.432 153.421L435.961 76.8079Z" fill="#D9EFFF"/>
<path d="M408.655 83.4748L380.112 75.8268C379.354 75.6238 378.858 74.8273 379.075 74.0178C379.279 73.256 380.073 72.7542 380.877 72.9699L409.373 80.6052C410.13 80.8081 410.627 81.6047 410.41 82.4141C410.253 83.1887 409.412 83.6777 408.655 83.4748Z" fill="white"/>
<path d="M422.808 87.2669L414.855 85.1361C414.098 84.9332 413.601 84.1366 413.818 83.3271C414.022 82.5653 414.864 82.0762 415.621 82.2792L423.573 84.41C424.331 84.6129 424.827 85.4095 424.61 86.2189C424.406 86.9808 423.565 87.4698 422.808 87.2669Z" fill="white"/>
<path d="M406.562 91.2839L378.02 83.6359C377.262 83.4329 376.766 82.6364 376.982 81.8269C377.199 81.0174 377.981 80.5633 378.785 80.7789L407.281 88.4142C408.038 88.6172 408.535 89.4137 408.318 90.2232C408.148 91.0454 407.32 91.4868 406.562 91.2839Z" fill="white"/>
<path d="M420.715 95.076L412.763 92.9452C412.006 92.7423 411.509 91.9457 411.726 91.1362C411.93 90.3744 412.771 89.8853 413.528 90.0883L421.481 92.219C422.238 92.422 422.735 93.2185 422.518 94.028C422.301 94.8375 421.472 95.2789 420.715 95.076Z" fill="white"/>
<path d="M404.457 99.1401L375.914 91.4921C375.157 91.2891 374.66 90.4926 374.877 89.6831C375.081 88.9213 375.875 88.4195 376.68 88.6351L405.175 96.2704C405.932 96.4734 406.429 97.2699 406.212 98.0794C406.055 98.8539 405.214 99.343 404.457 99.1401Z" fill="white"/>
<path d="M418.61 102.932L410.658 100.802C409.9 100.599 409.404 99.8021 409.62 98.9927C409.837 98.1832 410.666 97.7418 411.423 97.9447L419.375 100.075C420.133 100.278 420.63 101.075 420.413 101.884C420.209 102.646 419.367 103.135 418.61 102.932Z" fill="white"/>
<path d="M402.365 106.949L373.822 99.3011C373.065 99.0982 372.568 98.3016 372.785 97.4922C372.989 96.7303 373.783 96.2286 374.588 96.4442L403.083 104.08C403.84 104.282 404.337 105.079 404.12 105.888C403.951 106.711 403.122 107.152 402.365 106.949Z" fill="white"/>
<path d="M416.518 110.741L408.566 108.61C407.808 108.408 407.311 107.611 407.528 106.802C407.745 105.992 408.574 105.551 409.331 105.754L417.283 107.884C418.041 108.087 418.538 108.884 418.321 109.693C418.104 110.503 417.275 110.944 416.518 110.741Z" fill="white"/>
<path d="M400.259 114.806L371.717 107.158C370.959 106.955 370.462 106.158 370.679 105.349C370.883 104.587 371.677 104.085 372.482 104.301L400.977 111.936C401.735 112.139 402.232 112.936 402.015 113.745C401.858 114.52 401.017 115.009 400.259 114.806Z" fill="white"/>
<path d="M414.413 118.598L406.461 116.467C405.703 116.264 405.206 115.468 405.423 114.658C405.628 113.896 406.469 113.407 407.226 113.61L415.178 115.741C415.936 115.944 416.433 116.741 416.216 117.55C416.012 118.312 415.17 118.801 414.413 118.598Z" fill="white"/>
<path d="M398.167 122.615L369.624 114.967C368.867 114.764 368.37 113.967 368.587 113.158C368.804 112.348 369.585 111.894 370.39 112.11L398.885 119.745C399.643 119.948 400.14 120.745 399.923 121.554C399.753 122.376 398.925 122.818 398.167 122.615Z" fill="white"/>
<path d="M412.32 126.407L404.368 124.276C403.61 124.073 403.113 123.277 403.33 122.467C403.535 121.705 404.376 121.216 405.133 121.419L413.085 123.55C413.843 123.753 414.34 124.55 414.123 125.359C413.906 126.169 413.077 126.61 412.32 126.407Z" fill="white"/>
<path d="M395.96 130.852L367.417 123.204C366.66 123.001 366.163 122.204 366.38 121.395C366.584 120.633 367.378 120.131 368.183 120.347L396.678 127.982C397.435 128.185 397.932 128.982 397.715 129.791C397.546 130.613 396.717 131.055 395.96 130.852Z" fill="white"/>
<path d="M410.113 134.645L402.16 132.514C401.403 132.311 400.906 131.514 401.123 130.705C401.327 129.943 402.169 129.454 402.926 129.657L410.878 131.788C411.635 131.991 412.132 132.787 411.915 133.597C411.698 134.406 410.87 134.848 410.113 134.645Z" fill="white"/>
<path d="M406.744 147.214L398.887 145.109C398.13 144.906 397.633 144.11 397.85 143.3C398.054 142.538 398.895 142.049 399.652 142.252L407.51 144.357C408.267 144.56 408.751 145.405 408.547 146.166C408.33 146.976 407.502 147.417 406.744 147.214Z" fill="white"/>
<path d="M380.19 140.099L364.049 135.774C363.291 135.571 362.807 134.727 363.012 133.965C363.216 133.203 364.01 132.702 364.814 132.917L380.955 137.242C381.76 137.458 382.21 138.242 381.993 139.051C381.776 139.861 380.947 140.302 380.19 140.099Z" fill="white"/>
<path d="M415.466 153.481C415.491 153.386 415.504 153.338 415.529 153.243L354.326 136.844L354.122 137.605C353.351 141.43 355.469 145.264 359.119 146.599L359.106 146.647L420.31 163.046L420.322 162.999C416.53 161.626 414.381 157.528 415.466 153.481Z" fill="#D9EFFF"/>
<path d="M415.128 155.687C415.16 159.166 417.504 162.346 421.007 163.284C424.51 164.223 428.13 162.641 429.897 159.644L415.128 155.687Z" fill="#B8DDFF"/>
<path d="M496.524 112.369L451.617 97.4927L432.981 153.75L477.888 168.627L496.524 112.369Z" fill="#D9EFFF"/>
<path d="M475.867 116.158L454.908 109.215C454.352 109.031 454.016 108.415 454.213 107.82C454.398 107.261 455.012 106.921 455.603 107.117L476.528 114.049C477.084 114.233 477.42 114.849 477.223 115.443C477.072 116.014 476.423 116.342 475.867 116.158Z" fill="white"/>
<path d="M486.26 119.601L480.421 117.666C479.865 117.482 479.529 116.866 479.726 116.272C479.911 115.712 480.56 115.384 481.116 115.568L486.955 117.503C487.511 117.687 487.847 118.303 487.65 118.897C487.465 119.457 486.816 119.785 486.26 119.601Z" fill="white"/>
<path d="M473.968 121.892L453.009 114.949C452.453 114.765 452.117 114.149 452.314 113.555C452.511 112.96 453.113 112.656 453.704 112.851L474.628 119.783C475.185 119.967 475.521 120.583 475.324 121.177C475.161 121.783 474.524 122.077 473.968 121.892Z" fill="white"/>
<path d="M484.36 125.335L478.521 123.401C477.965 123.216 477.629 122.601 477.826 122.006C478.011 121.447 478.66 121.118 479.216 121.303L485.055 123.237C485.612 123.421 485.948 124.037 485.751 124.631C485.554 125.226 484.917 125.519 484.36 125.335Z" fill="white"/>
<path d="M472.057 127.661L451.098 120.718C450.541 120.534 450.205 119.918 450.402 119.324C450.588 118.764 451.202 118.424 451.792 118.62L472.717 125.552C473.273 125.736 473.609 126.352 473.412 126.946C473.261 127.517 472.613 127.845 472.057 127.661Z" fill="white"/>
<path d="M482.449 131.104L476.61 129.17C476.054 128.985 475.718 128.37 475.914 127.775C476.111 127.181 476.749 126.888 477.305 127.072L483.144 129.006C483.7 129.19 484.036 129.806 483.839 130.401C483.654 130.96 483.005 131.288 482.449 131.104Z" fill="white"/>
<path d="M470.157 133.396L449.198 126.452C448.642 126.268 448.306 125.652 448.503 125.058C448.688 124.499 449.302 124.159 449.893 124.354L470.817 131.286C471.373 131.47 471.71 132.086 471.513 132.68C471.35 133.286 470.713 133.58 470.157 133.396Z" fill="white"/>
<path d="M480.55 136.838L474.71 134.904C474.154 134.72 473.818 134.104 474.015 133.509C474.212 132.915 474.849 132.622 475.405 132.806L481.245 134.74C481.801 134.925 482.137 135.54 481.94 136.135C481.743 136.729 481.106 137.022 480.55 136.838Z" fill="white"/>
<path d="M468.246 139.165L447.286 132.221C446.73 132.037 446.394 131.421 446.591 130.827C446.777 130.268 447.391 129.928 447.981 130.124L468.906 137.055C469.462 137.239 469.798 137.855 469.601 138.45C469.45 139.02 468.802 139.349 468.246 139.165Z" fill="white"/>
<path d="M478.639 142.607L472.799 140.673C472.243 140.489 471.907 139.873 472.104 139.278C472.29 138.719 472.938 138.391 473.494 138.575L479.334 140.509C479.89 140.694 480.226 141.309 480.029 141.904C479.844 142.463 479.195 142.791 478.639 142.607Z" fill="white"/>
<path d="M466.347 144.899L445.388 137.955C444.831 137.771 444.495 137.156 444.692 136.561C444.889 135.967 445.492 135.662 446.083 135.858L467.007 142.789C467.563 142.974 467.899 143.589 467.702 144.184C467.54 144.79 466.903 145.083 466.347 144.899Z" fill="white"/>
<path d="M476.739 148.342L470.9 146.407C470.343 146.223 470.007 145.607 470.204 145.013C470.39 144.453 471.038 144.125 471.594 144.309L477.434 146.244C477.99 146.428 478.326 147.044 478.129 147.638C477.932 148.232 477.295 148.526 476.739 148.342Z" fill="white"/>
<path d="M464.343 150.948L443.384 144.004C442.828 143.82 442.491 143.204 442.688 142.61C442.874 142.051 443.488 141.711 444.079 141.906L465.003 148.838C465.559 149.022 465.895 149.638 465.698 150.233C465.536 150.838 464.899 151.132 464.343 150.948Z" fill="white"/>
<path d="M474.735 154.39L468.896 152.456C468.339 152.272 468.003 151.656 468.2 151.062C468.386 150.502 469.034 150.174 469.591 150.358L475.43 152.293C475.986 152.477 476.322 153.093 476.125 153.687C475.928 154.281 475.291 154.575 474.735 154.39Z" fill="white"/>
<path d="M471.677 163.621L465.908 161.709C465.351 161.525 465.015 160.909 465.212 160.315C465.398 159.755 466.046 159.427 466.603 159.611L472.372 161.523C472.928 161.707 473.253 162.358 473.068 162.917C472.871 163.511 472.234 163.805 471.677 163.621Z" fill="white"/>
<path d="M452.178 157.161L440.326 153.235C439.769 153.05 439.445 152.4 439.63 151.84C439.816 151.281 440.43 150.941 441.021 151.137L452.873 155.063C453.464 155.259 453.765 155.863 453.568 156.457C453.371 157.052 452.734 157.345 452.178 157.161Z" fill="white"/>
<path d="M477.911 168.673C477.934 168.603 477.945 168.568 477.969 168.498L433.027 153.61L432.841 154.17C432.1 156.989 433.514 159.941 436.179 161.095L436.167 161.13L481.109 176.018L481.121 175.983C478.351 174.794 476.926 171.645 477.911 168.673Z" fill="#D9EFFF"/>
<path d="M477.563 170.304C477.436 172.901 479.047 175.374 481.619 176.226C484.191 177.078 486.96 176.055 488.408 173.897L477.563 170.304Z" fill="#B8DDFF"/>
<g opacity="0.7">
<path opacity="0.7" d="M351.908 25.3916L259.322 10.053L240.332 126.041L332.919 141.379L351.908 25.3916Z" fill="#B0DDFF"/>
<path opacity="0.7" d="M312.614 39.1453L269.474 31.9855C268.312 31.7664 267.513 30.6705 267.658 29.5016C267.876 28.3326 268.965 27.529 270.127 27.6751L313.268 34.8348C314.43 35.054 315.229 36.1499 315.084 37.3188C314.938 38.4877 313.776 39.2914 312.614 39.1453Z" fill="white"/>
<path opacity="0.7" d="M334.04 42.6522L321.984 40.6796C320.822 40.4605 320.023 39.3646 320.168 38.1956C320.386 37.0267 321.475 36.2231 322.637 36.3692L334.693 38.3418C335.855 38.5609 336.654 39.6568 336.509 40.8257C336.364 42.0677 335.202 42.8714 334.04 42.6522Z" fill="white"/>
<path opacity="0.7" d="M310.653 50.9807L267.513 43.821C266.351 43.6018 265.552 42.5059 265.697 41.337C265.915 40.1681 267.004 39.3644 268.167 39.5105L311.307 46.6703C312.469 46.8894 313.268 47.9853 313.123 49.1542C312.978 50.3962 311.816 51.1999 310.653 50.9807Z" fill="white"/>
<path opacity="0.7" d="M332.078 54.5607L320.022 52.5881C318.86 52.3689 318.061 51.273 318.206 50.1041C318.424 48.9352 319.514 48.1315 320.676 48.2776L332.732 50.2502C333.894 50.4694 334.693 51.5653 334.548 52.7342C334.402 53.9031 333.313 54.7068 332.078 54.5607Z" fill="white"/>
<path opacity="0.7" d="M308.693 62.8162L265.552 55.6564C264.39 55.4373 263.591 54.3414 263.736 53.1725C263.954 52.0035 265.044 51.1999 266.206 51.346L309.346 58.5057C310.508 58.7249 311.307 59.8208 311.162 60.9897C311.017 62.2317 309.927 63.0353 308.693 62.8162Z" fill="white"/>
<path opacity="0.7" d="M330.19 66.3961L318.134 64.4235C316.972 64.2044 316.173 63.1085 316.318 61.9395C316.536 60.7706 317.626 59.967 318.788 60.1131L330.844 62.0857C332.006 62.3048 332.805 63.4007 332.659 64.5696C332.442 65.8116 331.352 66.6153 330.19 66.3961Z" fill="white"/>
<path opacity="0.7" d="M306.804 74.7249L263.664 67.5651C262.501 67.346 261.703 66.2501 261.848 65.0811C262.066 63.9122 263.155 63.1086 264.317 63.2547L307.458 70.4144C308.62 70.6336 309.419 71.7295 309.273 72.8984C309.056 74.0673 307.966 74.871 306.804 74.7249Z" fill="white"/>
<path opacity="0.7" d="M328.229 78.2316L316.173 76.259C315.011 76.0398 314.212 74.9439 314.357 73.775C314.575 72.6061 315.665 71.8024 316.827 71.9485L328.883 73.9211C330.045 74.1403 330.844 75.2362 330.699 76.4051C330.553 77.6471 329.391 78.4507 328.229 78.2316Z" fill="white"/>
<path opacity="0.7" d="M304.843 86.5601L261.703 79.4003C260.541 79.1812 259.742 78.0853 259.887 76.9164C260.105 75.7474 261.194 74.9438 262.356 75.0899L305.497 82.2496C306.659 82.4688 307.458 83.5647 307.313 84.7336C307.168 85.9756 306.005 86.7793 304.843 86.5601Z" fill="white"/>
<path opacity="0.7" d="M326.268 90.14L314.212 88.1674C313.05 87.9482 312.251 86.8524 312.396 85.6834C312.614 84.5145 313.704 83.7109 314.866 83.857L326.922 85.8296C328.084 86.0487 328.883 87.1446 328.738 88.3135C328.592 89.4825 327.503 90.2861 326.268 90.14Z" fill="white"/>
<path opacity="0.7" d="M302.883 98.3958L259.742 91.236C258.58 91.0169 257.781 89.921 257.926 88.752C258.144 87.5831 259.234 86.7795 260.396 86.9256L303.536 94.0853C304.698 94.3045 305.497 95.4004 305.352 96.5693C305.207 97.8113 304.045 98.6149 302.883 98.3958Z" fill="white"/>
<path opacity="0.7" d="M324.38 101.975L312.324 100.003C311.162 99.7837 310.363 98.6878 310.508 97.5189C310.726 96.35 311.816 95.5463 312.978 95.6924L325.034 97.665C326.196 97.8842 326.995 98.9801 326.849 100.149C326.631 101.391 325.542 102.195 324.38 101.975Z" fill="white"/>
<path opacity="0.7" d="M300.849 110.889L257.708 103.729C256.546 103.51 255.747 102.414 255.893 101.245C256.11 100.076 257.2 99.2724 258.362 99.4185L301.502 106.578C302.665 106.797 303.463 107.893 303.318 109.062C303.173 110.304 302.011 111.108 300.849 110.889Z" fill="white"/>
<path opacity="0.7" d="M322.274 114.468L310.218 112.496C309.056 112.277 308.257 111.181 308.402 110.012C308.62 108.843 309.709 108.039 310.871 108.185L322.928 110.158C324.09 110.377 324.888 111.473 324.743 112.642C324.598 113.811 323.509 114.614 322.274 114.468Z" fill="white"/>
<path opacity="0.7" d="M319.224 133.464L307.313 131.491C306.151 131.272 305.352 130.176 305.497 129.007C305.715 127.838 306.804 127.035 307.966 127.181L319.877 129.153C321.039 129.372 321.838 130.468 321.693 131.637C321.475 132.879 320.386 133.683 319.224 133.464Z" fill="white"/>
<path opacity="0.7" d="M278.988 126.816L254.585 122.797C253.423 122.578 252.624 121.482 252.77 120.313C252.988 119.144 254.077 118.341 255.239 118.487L279.642 122.505C280.804 122.724 281.603 123.82 281.458 124.989C281.24 126.231 280.15 127.035 278.988 126.816Z" fill="white"/>
<path opacity="0.7" d="M332.95 141.427C332.95 141.281 333.023 141.208 333.023 141.062L240.35 125.72L240.132 126.889C239.551 132.66 243.255 137.994 248.775 139.455V139.528L341.447 154.87V154.797C335.71 153.263 331.933 147.564 332.95 141.427Z" fill="#B0DDFF"/>
<path opacity="0.7" d="M332.805 144.715C333.386 149.829 337.308 154.212 342.61 155.089C347.911 155.966 352.995 153.116 355.174 148.441L332.805 144.715Z" fill="#6CB8FF"/>
</g>
<path d="M222.488 9.71767L131.3 31.9846L158.866 146.221L250.055 123.954L222.488 9.71767Z" fill="#D9EFFF"/>
<path opacity="0.6" d="M191.618 37.8304L149.131 48.2047C147.969 48.4969 146.807 47.7663 146.516 46.5974C146.226 45.4285 146.952 44.2595 148.114 43.9673L190.601 33.593C191.763 33.3008 192.925 34.0314 193.216 35.2003C193.506 36.3692 192.78 37.5382 191.618 37.8304Z" fill="white"/>
<path opacity="0.6" d="M212.752 32.7161L200.841 35.6385C199.679 35.9307 198.517 35.2001 198.226 34.0312C197.936 32.8622 198.662 31.6933 199.824 31.4011L211.735 28.4787C212.897 28.1865 214.059 28.9171 214.35 30.086C214.64 31.1819 213.914 32.4239 212.752 32.7161Z" fill="white"/>
<path opacity="0.6" d="M194.45 49.5196L151.891 59.8939C150.729 60.1861 149.566 59.4555 149.276 58.2866C148.985 57.1177 149.712 55.9487 150.874 55.6565L193.361 45.2822C194.523 44.99 195.685 45.7206 195.975 46.8895C196.338 48.0584 195.612 49.2274 194.45 49.5196Z" fill="white"/>
<path opacity="0.6" d="M215.585 44.3328L203.674 47.2552C202.512 47.5474 201.35 46.8168 201.059 45.6479C200.769 44.479 201.495 43.31 202.657 43.0178L214.568 40.0954C215.73 39.8032 216.892 40.5338 217.182 41.7027C217.473 42.8717 216.747 44.1137 215.585 44.3328Z" fill="white"/>
<path opacity="0.6" d="M197.283 61.209L154.723 71.5833C153.561 71.8756 152.399 71.145 152.108 69.9761C151.818 68.8071 152.544 67.6382 153.706 67.346L196.193 56.9717C197.355 56.6794 198.517 57.41 198.808 58.5789C199.171 59.7479 198.445 60.9168 197.283 61.209Z" fill="white"/>
<path opacity="0.6" d="M218.417 56.022L206.506 58.9444C205.344 59.2366 204.182 58.506 203.892 57.3371C203.601 56.1682 204.327 54.9992 205.489 54.707L217.4 51.7847C218.562 51.4924 219.724 52.223 220.015 53.3919C220.233 54.5609 219.579 55.7298 218.417 56.022Z" fill="white"/>
<path opacity="0.6" d="M200.042 72.8985L157.555 83.2728C156.393 83.565 155.231 82.8345 154.941 81.6655C154.65 80.4966 155.376 79.3276 156.538 79.0354L199.025 68.6611C200.187 68.3689 201.349 69.0995 201.64 70.2684C201.93 71.4373 201.204 72.6063 200.042 72.8985Z" fill="white"/>
<path opacity="0.6" d="M221.177 67.7115L209.266 70.6338C208.104 70.9261 206.942 70.1955 206.651 69.0265C206.361 67.8576 207.087 66.6887 208.249 66.3964L220.16 63.4741C221.322 63.1819 222.484 63.9125 222.774 65.0814C223.065 66.2503 222.339 67.4193 221.177 67.7115Z" fill="white"/>
<path opacity="0.6" d="M202.875 84.5877L160.388 94.962C159.226 95.2542 158.064 94.5237 157.774 93.3547C157.483 92.1858 158.209 91.0169 159.371 90.7246L201.858 80.3503C203.02 80.0581 204.182 80.7887 204.473 81.9576C204.763 83.1265 204.037 84.2955 202.875 84.5877Z" fill="white"/>
<path opacity="0.6" d="M224.009 79.4005L212.098 82.3228C210.936 82.615 209.774 81.8844 209.484 80.7155C209.193 79.5466 209.92 78.3776 211.082 78.0854L222.992 75.1631C224.154 74.8708 225.316 75.6014 225.607 76.7704C225.898 77.9393 225.171 79.1082 224.009 79.4005Z" fill="white"/>
<path opacity="0.6" d="M205.708 96.2772L163.221 106.651C162.059 106.944 160.897 106.213 160.606 105.044C160.316 103.875 161.042 102.706 162.204 102.414L204.691 92.0398C205.853 91.7475 207.015 92.4781 207.305 93.6471C207.596 94.7429 206.87 95.9849 205.708 96.2772Z" fill="white"/>
<path opacity="0.6" d="M226.842 91.0899L214.931 94.0123C213.769 94.3045 212.607 93.5739 212.316 92.405C212.026 91.236 212.752 90.0671 213.914 89.7749L225.825 86.8525C226.987 86.5603 228.149 87.2909 228.44 88.4598C228.73 89.6287 228.004 90.7977 226.842 91.0899Z" fill="white"/>
<path opacity="0.6" d="M208.685 108.551L166.125 118.925C164.963 119.217 163.801 118.487 163.511 117.318C163.22 116.149 163.947 114.98 165.109 114.688L207.596 104.313C208.758 104.021 209.92 104.752 210.21 105.921C210.573 107.017 209.847 108.259 208.685 108.551Z" fill="white"/>
<path opacity="0.6" d="M229.819 103.364L217.909 106.286C216.747 106.578 215.585 105.848 215.294 104.679C215.004 103.51 215.73 102.341 216.892 102.049L228.803 99.1265C229.965 98.8342 231.127 99.5648 231.417 100.734C231.708 101.903 230.982 103.072 229.819 103.364Z" fill="white"/>
<path opacity="0.6" d="M234.322 122.14L222.557 124.989C221.395 125.281 220.233 124.551 219.942 123.382C219.652 122.213 220.378 121.044 221.54 120.752L233.306 117.902C234.468 117.61 235.63 118.341 235.92 119.51C236.211 120.605 235.484 121.847 234.322 122.14Z" fill="white"/>
<path opacity="0.6" d="M194.741 131.784L170.701 137.628C169.539 137.921 168.377 137.19 168.087 136.021C167.796 134.852 168.522 133.683 169.684 133.391L193.724 127.546C194.886 127.254 196.048 127.985 196.339 129.154C196.556 130.323 195.903 131.492 194.741 131.784Z" fill="white"/>
<path d="M250.083 124.039C250.083 123.893 250.01 123.82 250.01 123.674L158.79 145.957L159.081 147.126C160.824 152.678 166.271 156.112 171.936 155.308V155.381L263.155 133.026V132.952C257.273 133.829 251.535 130.03 250.083 124.039Z" fill="#D9EFFF"/>
<path opacity="0.6" d="M251.245 127.108C253.787 131.638 259.016 134.048 264.245 132.806C269.474 131.491 273.033 126.889 273.251 121.775L251.245 127.108Z" fill="#6CB8FF"/>
<path d="M309.709 189.354H175.058C171.064 189.354 167.795 186.066 167.795 182.048V95.6198C167.795 91.6016 171.064 88.314 175.058 88.314H309.709C313.704 88.314 316.972 91.6016 316.972 95.6198V182.048C316.972 186.066 313.776 189.354 309.709 189.354Z" fill="#B0DDFF"/>
<path d="M286.541 208.568H198.226C194.813 208.568 192.053 205.792 192.053 202.358C192.053 198.924 194.813 196.148 198.226 196.148H286.468C289.882 196.148 292.642 198.924 292.642 202.358C292.714 205.792 289.954 208.568 286.541 208.568Z" fill="#B0DDFF"/>
<path d="M264.971 185.408H219.796V197.828H264.971V185.408Z" fill="#B0DDFF"/>
<path d="M306.804 98.469H177.891V179.199H306.804V98.469Z" fill="#E7F5FF"/>
<path d="M242.384 158.304L216.383 138.067H268.457L242.384 158.304Z" fill="#FFC6C0"/>
<path d="M256.909 128.204H227.858V139.162H256.909V128.204Z" fill="#FFC6C0"/>
<path d="M279.497 0.059082H185.662V117.61H279.497V0.059082Z" fill="#B0DDFF"/>
<path d="M242.965 20.0773H199.171C198.008 20.0773 196.992 19.1276 196.992 17.8856C196.992 16.7167 197.936 15.6938 199.171 15.6938H242.892C244.054 15.6938 245.071 16.6436 245.071 17.8856C245.144 19.0545 244.127 20.0773 242.965 20.0773Z" fill="white"/>
<path d="M264.681 20.0773H252.479C251.317 20.0773 250.3 19.1276 250.3 17.8856C250.3 16.7167 251.317 15.6938 252.479 15.6938H264.681C265.843 15.6938 266.859 16.6436 266.859 17.8856C266.859 19.0545 265.843 20.0773 264.681 20.0773Z" fill="white"/>
<path d="M242.965 32.0588H199.171C198.008 32.0588 196.992 31.109 196.992 29.867C196.992 28.6251 197.936 27.6753 199.171 27.6753H242.892C244.054 27.6753 245.071 28.6251 245.071 29.867C245.144 31.109 244.127 32.0588 242.965 32.0588Z" fill="white"/>
<path d="M264.681 32.0588H252.479C251.317 32.0588 250.3 31.109 250.3 29.867C250.3 28.6981 251.317 27.6753 252.479 27.6753H264.681C265.843 27.6753 266.859 28.6251 266.859 29.867C266.859 31.109 265.843 32.0588 264.681 32.0588Z" fill="white"/>
<path d="M242.965 44.1132H199.171C198.008 44.1132 196.992 43.1635 196.992 41.9215C196.992 40.7526 197.936 39.7297 199.171 39.7297H242.892C244.054 39.7297 245.071 40.6795 245.071 41.9215C245.144 43.0904 244.127 44.1132 242.965 44.1132Z" fill="white"/>
<path d="M264.681 44.1132H252.479C251.317 44.1132 250.3 43.1635 250.3 41.9215C250.3 40.6795 251.317 39.7297 252.479 39.7297H264.681C265.843 39.7297 266.859 40.6795 266.859 41.9215C266.859 43.0904 265.843 44.1132 264.681 44.1132Z" fill="white"/>
<path d="M242.965 56.0949H199.171C198.008 56.0949 196.992 55.1452 196.992 53.9032C196.992 52.7342 197.936 51.7114 199.171 51.7114H242.892C244.054 51.7114 245.071 52.6612 245.071 53.9032C245.144 55.1452 244.127 56.0949 242.965 56.0949Z" fill="white"/>
<path d="M264.681 56.0949H252.479C251.317 56.0949 250.3 55.1452 250.3 53.9032C250.3 52.6612 251.317 51.7114 252.479 51.7114H264.681C265.843 51.7114 266.859 52.6612 266.859 53.9032C266.859 55.1452 265.843 56.0949 264.681 56.0949Z" fill="white"/>
<path d="M242.965 68.1496H199.171C198.008 68.1496 196.992 67.1999 196.992 65.9579C196.992 64.7889 197.936 63.7661 199.171 63.7661H242.892C244.054 63.7661 245.071 64.7159 245.071 65.9579C245.144 67.1268 244.127 68.1496 242.965 68.1496Z" fill="white"/>
<path d="M264.681 68.1496H252.479C251.317 68.1496 250.3 67.1999 250.3 65.9579C250.3 64.7889 251.317 63.7661 252.479 63.7661H264.681C265.843 63.7661 266.859 64.7159 266.859 65.9579C266.859 67.1268 265.843 68.1496 264.681 68.1496Z" fill="white"/>
<path d="M242.965 80.1313H199.171C198.008 80.1313 196.992 79.1815 196.992 77.9396C196.992 76.6976 197.936 75.7478 199.171 75.7478H242.892C244.054 75.7478 245.071 76.6976 245.071 77.9396C245.144 79.1815 244.127 80.1313 242.965 80.1313Z" fill="white"/>
<path d="M264.681 80.1313H252.479C251.317 80.1313 250.3 79.1815 250.3 77.9396C250.3 76.7706 251.317 75.7478 252.479 75.7478H264.681C265.843 75.7478 266.859 76.6976 266.859 77.9396C266.859 79.1815 265.843 80.1313 264.681 80.1313Z" fill="white"/>
<path d="M242.965 92.7702H199.171C198.008 92.7702 196.992 91.8205 196.992 90.5785C196.992 89.4095 197.936 88.3867 199.171 88.3867H242.892C244.054 88.3867 245.071 89.3365 245.071 90.5785C245.144 91.8205 244.127 92.7702 242.965 92.7702Z" fill="white"/>
<path d="M264.681 92.7702H252.479C251.317 92.7702 250.3 91.8205 250.3 90.5785C250.3 89.4095 251.317 88.3867 252.479 88.3867H264.681C265.843 88.3867 266.859 89.3365 266.859 90.5785C266.859 91.8205 265.843 92.7702 264.681 92.7702Z" fill="white"/>
<path d="M264.68 112.058H252.624C251.462 112.058 250.445 111.108 250.445 109.866C250.445 108.697 251.462 107.674 252.624 107.674H264.68C265.842 107.674 266.859 108.697 266.859 109.866C266.859 111.108 265.842 112.058 264.68 112.058Z" fill="white"/>
<path d="M223.936 112.058H199.171C198.008 112.058 196.992 111.035 196.992 109.866C196.992 108.697 197.936 107.674 199.171 107.674H223.936C225.171 107.674 226.115 108.624 226.115 109.866C226.115 111.108 225.098 112.058 223.936 112.058Z" fill="white"/>
<path d="M279.569 117.683C279.569 117.537 279.569 117.464 279.569 117.318H185.662V118.487C186.025 124.258 190.528 128.934 196.265 129.446V129.519H290.173V129.446C284.217 128.934 279.569 123.893 279.569 117.683Z" fill="#B0DDFF"/>
<path d="M279.932 120.971C281.312 125.939 285.888 129.592 291.262 129.592C296.636 129.592 301.212 125.939 302.592 120.971H279.932Z" fill="#6CB8FF"/>
<path d="M279.497 0.059082H185.662V117.61H279.497V0.059082Z" fill="#B0DDFF"/>
<path d="M242.965 20.0773H199.171C198.008 20.0773 196.992 19.1276 196.992 17.8856C196.992 16.7167 197.936 15.6938 199.171 15.6938H242.892C244.054 15.6938 245.071 16.6436 245.071 17.8856C245.144 19.0545 244.127 20.0773 242.965 20.0773Z" fill="white"/>
<path d="M264.681 20.0773H252.479C251.317 20.0773 250.3 19.1276 250.3 17.8856C250.3 16.7167 251.317 15.6938 252.479 15.6938H264.681C265.843 15.6938 266.859 16.6436 266.859 17.8856C266.859 19.0545 265.843 20.0773 264.681 20.0773Z" fill="white"/>
<path d="M242.965 32.0588H199.171C198.008 32.0588 196.992 31.109 196.992 29.867C196.992 28.6251 197.936 27.6753 199.171 27.6753H242.892C244.054 27.6753 245.071 28.6251 245.071 29.867C245.144 31.109 244.127 32.0588 242.965 32.0588Z" fill="white"/>
<path d="M264.681 32.0588H252.479C251.317 32.0588 250.3 31.109 250.3 29.867C250.3 28.6981 251.317 27.6753 252.479 27.6753H264.681C265.843 27.6753 266.859 28.6251 266.859 29.867C266.859 31.109 265.843 32.0588 264.681 32.0588Z" fill="white"/>
<path d="M242.965 44.1132H199.171C198.008 44.1132 196.992 43.1635 196.992 41.9215C196.992 40.7526 197.936 39.7297 199.171 39.7297H242.892C244.054 39.7297 245.071 40.6795 245.071 41.9215C245.144 43.0904 244.127 44.1132 242.965 44.1132Z" fill="white"/>
<path d="M264.681 44.1132H252.479C251.317 44.1132 250.3 43.1635 250.3 41.9215C250.3 40.6795 251.317 39.7297 252.479 39.7297H264.681C265.843 39.7297 266.859 40.6795 266.859 41.9215C266.859 43.0904 265.843 44.1132 264.681 44.1132Z" fill="white"/>
<path d="M242.965 56.0949H199.171C198.008 56.0949 196.992 55.1452 196.992 53.9032C196.992 52.7342 197.936 51.7114 199.171 51.7114H242.892C244.054 51.7114 245.071 52.6612 245.071 53.9032C245.144 55.1452 244.127 56.0949 242.965 56.0949Z" fill="white"/>
<path d="M264.681 56.0949H252.479C251.317 56.0949 250.3 55.1452 250.3 53.9032C250.3 52.6612 251.317 51.7114 252.479 51.7114H264.681C265.843 51.7114 266.859 52.6612 266.859 53.9032C266.859 55.1452 265.843 56.0949 264.681 56.0949Z" fill="white"/>
<path d="M242.965 68.1496H199.171C198.008 68.1496 196.992 67.1999 196.992 65.9579C196.992 64.7889 197.936 63.7661 199.171 63.7661H242.892C244.054 63.7661 245.071 64.7159 245.071 65.9579C245.144 67.1268 244.127 68.1496 242.965 68.1496Z" fill="white"/>
<path d="M264.681 68.1496H252.479C251.317 68.1496 250.3 67.1999 250.3 65.9579C250.3 64.7889 251.317 63.7661 252.479 63.7661H264.681C265.843 63.7661 266.859 64.7159 266.859 65.9579C266.859 67.1268 265.843 68.1496 264.681 68.1496Z" fill="white"/>
<path d="M242.965 80.1313H199.171C198.008 80.1313 196.992 79.1815 196.992 77.9396C196.992 76.6976 197.936 75.7478 199.171 75.7478H242.892C244.054 75.7478 245.071 76.6976 245.071 77.9396C245.144 79.1815 244.127 80.1313 242.965 80.1313Z" fill="white"/>
<path d="M264.681 80.1313H252.479C251.317 80.1313 250.3 79.1815 250.3 77.9396C250.3 76.7706 251.317 75.7478 252.479 75.7478H264.681C265.843 75.7478 266.859 76.6976 266.859 77.9396C266.859 79.1815 265.843 80.1313 264.681 80.1313Z" fill="white"/>
<path d="M242.965 92.7702H199.171C198.008 92.7702 196.992 91.8205 196.992 90.5785C196.992 89.4095 197.936 88.3867 199.171 88.3867H242.892C244.054 88.3867 245.071 89.3365 245.071 90.5785C245.144 91.8205 244.127 92.7702 242.965 92.7702Z" fill="white"/>
<path d="M264.681 92.7702H252.479C251.317 92.7702 250.3 91.8205 250.3 90.5785C250.3 89.4095 251.317 88.3867 252.479 88.3867H264.681C265.843 88.3867 266.859 89.3365 266.859 90.5785C266.859 91.8205 265.843 92.7702 264.681 92.7702Z" fill="white"/>
<path d="M264.68 112.058H252.624C251.462 112.058 250.445 111.108 250.445 109.866C250.445 108.697 251.462 107.674 252.624 107.674H264.68C265.842 107.674 266.859 108.697 266.859 109.866C266.859 111.108 265.842 112.058 264.68 112.058Z" fill="white"/>
<path d="M223.936 112.058H199.171C198.008 112.058 196.992 111.035 196.992 109.866C196.992 108.697 197.936 107.674 199.171 107.674H223.936C225.171 107.674 226.115 108.624 226.115 109.866C226.115 111.108 225.098 112.058 223.936 112.058Z" fill="white"/>
<path d="M279.569 117.683C279.569 117.537 279.569 117.464 279.569 117.318H185.662V118.487C186.025 124.258 190.528 128.934 196.265 129.446V129.519H290.173V129.446C284.217 128.934 279.569 123.893 279.569 117.683Z" fill="#B0DDFF"/>
<path d="M279.932 120.971C281.312 125.939 285.888 129.592 291.262 129.592C296.636 129.592 301.212 125.939 302.592 120.971H279.932Z" fill="#6CB8FF"/>
<path d="M118.118 237.911C114.313 234.124 108.026 234.124 104.222 237.911L100.251 241.862C100.251 241.862 100.251 241.862 100.086 242.027C99.5895 242.521 98.5969 242.521 98.1006 241.862C97.6043 241.203 97.6043 240.545 98.1006 239.886L102.071 235.935L107.696 230.337C111.335 226.551 111.831 220.788 108.688 216.837C108.523 216.507 108.192 216.343 108.026 216.178C104.222 212.391 97.9352 212.391 94.1303 216.178L90.3254 220.13C90.3254 220.13 90.3254 220.13 90.1599 220.294C89.6636 220.788 88.6711 220.788 88.1748 220.13C87.6785 219.636 87.6785 218.648 88.3402 218.154L92.3105 214.203L99.9204 206.629C103.56 202.842 104.056 197.08 100.913 193.129C100.748 192.799 100.417 192.635 100.251 192.47C96.4463 188.683 90.1599 188.683 86.355 192.47L82.3847 196.421C82.3847 196.421 82.3847 196.421 82.2192 196.586C81.7229 197.08 80.7304 197.08 80.2341 196.421C79.7378 195.927 79.7378 194.94 80.3995 194.446L84.3698 190.494L111.831 163.164C115.471 159.377 115.967 153.615 112.824 149.664C112.659 149.499 112.328 149.17 112.162 149.005C108.357 145.218 102.071 145.218 98.2661 149.005L56.5774 190.494L48.6367 198.397C48.1404 198.891 47.3133 198.891 46.817 198.397C46.3207 197.903 46.1553 196.915 46.6516 196.421L53.5997 189.507C47.975 184.238 42.5158 182.262 37.3874 183.579C22.9949 187.695 15.3851 217.331 15.2197 217.66C13.2345 229.349 11.7456 235.276 5.12836 241.862L0 246.801L55.5848 302.12L66.1724 291.583C71.4662 286.315 77.5872 282.034 84.3698 278.906L89.0019 276.766C93.7994 274.625 98.1006 271.497 101.906 267.875L117.621 252.234C121.261 248.448 121.757 242.685 118.614 238.734C118.449 238.405 118.283 238.24 118.118 237.911Z" fill="#FFEFEF"/>
</svg>
