<svg width="539" height="326" viewBox="0 0 539 326" fill="none" xmlns="http://www.w3.org/2000/svg">
<path opacity="0.2" d="M370.94 60.7276C361.129 59.3123 369.198 122.517 351.657 119.944C334.116 117.371 336.721 136.601 327.659 137.006C318.97 137.395 310.45 114.195 300.465 128.567C290.48 142.94 281.581 82.504 266.752 101.437C251.923 120.37 240.192 117.337 227.695 76.0601C215.198 34.7836 215.253 76.7959 204.725 71.9383C194.197 67.0807 191.116 118.523 175.768 101.437C160.421 84.3512 162.302 146.894 149.82 148.402C139.484 149.651 141.96 128.318 128.891 135.916C115.823 143.514 116.66 119.944 102.927 119.944C90.8075 119.944 78.5758 141.396 62.1846 137.952C45.7935 134.508 33.9551 161.338 33.9551 161.338V218.254H498.003V100.109C498.003 100.109 497.478 129.172 488.747 128.567C480.017 127.963 470.35 173.034 462.442 154.726C454.534 136.418 440.995 70.3214 423.978 59.0028C406.961 47.6842 413.049 14.1543 400.699 9.55996C388.349 4.9656 380.75 62.1428 370.94 60.7276Z" fill="#B9E0FF"/>
<path opacity="0.6" d="M377.242 184.378C367.431 183.354 359.874 144.058 349.833 138.654C339.792 133.251 346.517 164.662 327.659 159.512C312.926 155.489 309.614 100.621 299.629 111.012C289.644 121.404 277.105 128.678 262.722 124.73C248.34 120.781 254.595 152.079 242.098 122.236C229.601 92.3923 225.273 128.055 212.79 128.055C200.307 128.055 206.699 181.975 191.351 169.622C176.004 157.269 167.74 177.053 155.259 178.143C144.923 179.046 141.96 153.23 128.891 158.724C115.823 164.217 114.988 153.411 101.256 153.411C89.1358 153.411 82.0969 189.57 65.7057 187.08C49.3145 184.59 33.9551 177.104 33.9551 177.104V218.255H498.003V132.835C498.003 132.835 493.165 142.832 484.434 142.395C475.704 141.958 478.724 163.179 463.81 164.633C448.895 166.088 445.819 130.419 428.803 122.235C411.786 114.052 408.859 159.642 396.509 156.32C384.159 152.999 387.052 185.401 377.242 184.378Z" fill="#6CB8FF"/>
<path opacity="0.4" d="M364.009 133.079C369.036 112.722 375.61 53.0522 401.326 61.7104C427.042 70.3687 427.815 148.055 463.199 150.863C496.897 153.537 497.976 143.355 498.002 142.379V142.304C498.002 142.304 498.003 142.33 498.002 142.379V218.254H33.9551V130.973C33.9551 130.973 34.3633 158.585 55.5247 162.329C76.6861 166.073 79.2089 186.764 91.3809 186.764C105.341 186.764 105.793 167.165 124.251 174.425C142.709 181.686 140.394 163.327 150.547 162.329C163.613 161.044 165.936 105.072 193.25 115.062C220.563 125.051 214.933 90.024 228.855 90.024C242.776 90.024 230.586 122.825 256.887 125.357C283.189 127.89 271.975 179.645 295.562 179.645C312.879 179.645 319.953 163.545 337.326 168.505C354.699 173.465 361.056 145.035 364.009 133.079Z" fill="#FFC6C0"/>
<path d="M55.666 218.254V222.596" stroke="#D8EEFF" stroke-linecap="round"/>
<path d="M33.9551 196.545L29.6131 196.545" stroke="#D8EEFF" stroke-linecap="round"/>
<path d="M33.9551 174.834L29.6131 174.834" stroke="#D8EEFF" stroke-linecap="round"/>
<path d="M33.9551 153.125L29.6131 153.125" stroke="#D8EEFF" stroke-linecap="round"/>
<path d="M33.9551 131.415L29.6131 131.415" stroke="#D8EEFF" stroke-linecap="round"/>
<path d="M33.9551 109.706L29.6131 109.706" stroke="#D8EEFF" stroke-linecap="round"/>
<path d="M33.9551 87.9956L29.6131 87.9956" stroke="#D8EEFF" stroke-linecap="round"/>
<path d="M33.9551 66.2856L29.6131 66.2856" stroke="#D8EEFF" stroke-linecap="round"/>
<path d="M33.9551 44.5759L29.6131 44.5759" stroke="#D8EEFF" stroke-linecap="round"/>
<path d="M33.9551 22.866L29.6131 22.866" stroke="#D8EEFF" stroke-linecap="round"/>
<path d="M33.9551 1.15601L29.6131 1.15601" stroke="#D8EEFF" stroke-linecap="round"/>
<path d="M77.375 218.254V222.596" stroke="#D8EEFF" stroke-linecap="round"/>
<path d="M99.085 218.254V222.596" stroke="#D8EEFF" stroke-linecap="round"/>
<path d="M120.795 218.254V222.596" stroke="#D8EEFF" stroke-linecap="round"/>
<path d="M142.505 218.254V222.596" stroke="#D8EEFF" stroke-linecap="round"/>
<path d="M164.215 218.254V222.596" stroke="#D8EEFF" stroke-linecap="round"/>
<path d="M185.924 218.254V222.596" stroke="#D8EEFF" stroke-linecap="round"/>
<path d="M207.636 218.254V222.596" stroke="#D8EEFF" stroke-linecap="round"/>
<path d="M229.345 218.254V222.596" stroke="#D8EEFF" stroke-linecap="round"/>
<path d="M251.056 218.254V222.596" stroke="#D8EEFF" stroke-linecap="round"/>
<path d="M272.764 218.254V222.596" stroke="#D8EEFF" stroke-linecap="round"/>
<path d="M294.474 218.254V222.596" stroke="#D8EEFF" stroke-linecap="round"/>
<path d="M316.184 218.254V222.596" stroke="#D8EEFF" stroke-linecap="round"/>
<path d="M337.894 218.254V222.596" stroke="#D8EEFF" stroke-linecap="round"/>
<path d="M359.604 218.254V222.596" stroke="#D8EEFF" stroke-linecap="round"/>
<path d="M381.313 218.254V222.596" stroke="#D8EEFF" stroke-linecap="round"/>
<path d="M403.023 218.254V222.596" stroke="#D8EEFF" stroke-linecap="round"/>
<path d="M424.733 218.254V222.596" stroke="#D8EEFF" stroke-linecap="round"/>
<path d="M446.442 218.254V222.596" stroke="#D8EEFF" stroke-linecap="round"/>
<path d="M468.152 218.254V222.596" stroke="#D8EEFF" stroke-linecap="round"/>
<path d="M489.863 218.254V222.596" stroke="#D8EEFF" stroke-linecap="round"/>
<path d="M33.9551 1.15601V218.254H498.003" stroke="#D8EEFF" stroke-width="2"/>
<g clip-path="url(#clip0)">
<path d="M159.821 304.433H8.17916C3.68062 304.433 0 300.77 0 296.292V199.985C0 195.507 3.68062 191.844 8.17916 191.844H159.821C164.319 191.844 168 195.507 168 199.985V296.292C168 300.77 164.319 304.433 159.821 304.433Z" fill="#D8EEFF"/>
<path d="M133.729 325.844H34.2706C30.4264 325.844 27.3184 322.75 27.3184 318.924C27.3184 315.098 30.4264 312.004 34.2706 312.004H133.647C137.492 312.004 140.6 315.098 140.6 318.924C140.682 322.75 137.573 325.844 133.729 325.844Z" fill="#D8EEFF"/>
<path d="M109.437 300.037H58.5625V313.877H109.437V300.037Z" fill="#D8EEFF"/>
<path opacity="0.5" d="M156.549 203.16H11.3691V293.117H156.549V203.16Z" fill="white"/>
<g opacity="0.6">
<path d="M17.3643 278.91L38.36 251.306L74.9717 271.75L92.4998 264.568L112.718 235.808L125.107 254.99L136.913 281.193L150.511 261.476" stroke="#0084F8"/>
<path d="M150.511 245.789L137.72 273.289L122.83 260.21L112.876 221.921L99.4192 265.506L91.8729 276.401L80.9033 270.82L70.7925 263.941L56.1382 239.648L30.6387 281.193" stroke="#FF8576"/>
<circle cx="56.2415" cy="239.581" r="1.84599" fill="#FF8576"/>
<circle cx="70.6888" cy="264.053" r="1.84599" fill="#FF8576"/>
<circle cx="91.9612" cy="276.441" r="1.84599" fill="#FF8576"/>
<circle cx="99.1419" cy="265.9" r="1.84599" fill="#FF8576"/>
<circle cx="112.719" cy="220.659" r="1.84599" fill="#FF8576"/>
<circle cx="123.092" cy="260.362" r="1.84599" fill="#FF8576"/>
<circle cx="137.668" cy="272.749" r="1.84599" fill="#FF8576"/>
<circle cx="38.3733" cy="251.557" r="1.84599" fill="#0084F8"/>
<circle cx="74.8968" cy="271.572" r="1.84599" fill="#0084F8"/>
<circle cx="92.4212" cy="264.715" r="1.84599" fill="#0084F8"/>
<circle cx="112.719" cy="235.889" r="1.84599" fill="#0084F8"/>
<circle cx="125.469" cy="255.245" r="1.84599" fill="#0084F8"/>
</g>
</g>
<g clip-path="url(#clip1)">
<path d="M344.87 304.433H194.13C189.659 304.433 186 300.77 186 296.292V199.985C186 195.507 189.659 191.844 194.13 191.844H344.87C349.341 191.844 353 195.507 353 199.985V296.292C353 300.77 349.341 304.433 344.87 304.433Z" fill="#D8EEFF"/>
<path d="M318.934 325.844H220.067C216.246 325.844 213.156 322.75 213.156 318.924C213.156 315.098 216.246 312.004 220.067 312.004H318.852C322.674 312.004 325.763 315.098 325.763 318.924C325.845 322.75 322.755 325.844 318.934 325.844Z" fill="#D8EEFF"/>
<path d="M294.785 300.037H244.214V313.877H294.785V300.037Z" fill="#D8EEFF"/>
<path opacity="0.5" d="M341.618 203.16H197.302V293.117H341.618V203.16Z" fill="white"/>
</g>
<g clip-path="url(#clip2)">
<path d="M530.87 304.433H380.13C375.659 304.433 372 300.77 372 296.292V199.985C372 195.507 375.659 191.844 380.13 191.844H530.87C535.341 191.844 539 195.507 539 199.985V296.292C539 300.77 535.341 304.433 530.87 304.433Z" fill="#D8EEFF"/>
<path d="M504.934 325.844H406.067C402.246 325.844 399.156 322.75 399.156 318.924C399.156 315.098 402.246 312.004 406.067 312.004H504.852C508.674 312.004 511.763 315.098 511.763 318.924C511.845 322.75 508.755 325.844 504.934 325.844Z" fill="#D8EEFF"/>
<path d="M480.785 300.037H430.214V313.877H480.785V300.037Z" fill="#D8EEFF"/>
<path opacity="0.5" d="M527.618 203.16H383.302V293.117H527.618V203.16Z" fill="white"/>
<rect width="1.97917" height="9.40106" transform="matrix(1 0 0 -1 391.178 258.55)" fill="#25416D"/>
<rect width="1.97917" height="8.41148" transform="matrix(1 0 0 -1 395.137 261.024)" fill="#25416D"/>
<rect width="1.97917" height="9.15367" transform="matrix(1 0 0 -1 399.094 253.355)" fill="#25416D"/>
<rect width="1.97917" height="10.638" transform="matrix(1 0 0 -1 403.053 244.696)" fill="#25416D"/>
<rect width="1.97917" height="14.349" transform="matrix(1 0 0 -1 407.012 240.243)" fill="#25416D"/>
<rect width="1.97917" height="12.3698" transform="matrix(1 0 0 -1 410.969 241.975)" fill="#25416D"/>
<rect width="1.97917" height="6.18491" transform="matrix(1 0 0 -1 414.928 248.16)" fill="#25416D"/>
<rect width="1.97917" height="7.66929" transform="matrix(1 0 0 -1 418.886 255.829)" fill="#25416D"/>
<rect width="1.97917" height="13.8542" transform="matrix(1 0 0 -1 422.845 258.55)" fill="#25416D"/>
<rect width="1.97917" height="14.1016" transform="matrix(1 0 0 -1 426.803 252.613)" fill="#25416D"/>
<rect width="1.97917" height="12.1224" transform="matrix(1 0 0 -1 430.761 255.829)" fill="#25416D"/>
<rect width="1.97917" height="12.8646" transform="matrix(1 0 0 -1 434.72 246.427)" fill="#25416D"/>
<rect width="1.97917" height="7.91668" transform="matrix(1 0 0 -1 438.678 255.334)" fill="#25416D"/>
<rect width="1.97917" height="7.1745" transform="matrix(1 0 0 -1 442.637 257.561)" fill="#25416D"/>
<rect width="1.97917" height="7.91668" transform="matrix(1 0 0 -1 446.595 255.334)" fill="#25416D"/>
<rect width="1.97917" height="10.3906" transform="matrix(1 0 0 -1 450.553 259.54)" fill="#25416D"/>
<rect width="1.97917" height="9.15367" transform="matrix(1 0 0 -1 454.512 261.519)" fill="#25416D"/>
<rect width="1.97917" height="5.19532" transform="matrix(1 0 0 -1 458.47 263.745)" fill="#25416D"/>
<rect width="1.97917" height="9.40106" transform="matrix(1 0 0 -1 462.428 258.55)" fill="#25416D"/>
<rect width="1.97917" height="8.41148" transform="matrix(1 0 0 -1 466.387 261.024)" fill="#25416D"/>
<rect width="1.97917" height="10.638" transform="matrix(1 0 0 -1 470.345 247.417)" fill="#25416D"/>
<rect width="1.97917" height="12.6172" transform="matrix(1 0 0 -1 474.303 237.274)" fill="#25416D"/>
<rect width="1.97917" height="17.0704" transform="matrix(1 0 0 -1 478.262 232.079)" fill="#25416D"/>
<rect width="1.97917" height="14.5964" transform="matrix(1 0 0 -1 482.219 234.058)" fill="#25416D"/>
<rect width="1.97917" height="7.42189" transform="matrix(1 0 0 -1 486.178 241.48)" fill="#25416D"/>
<rect width="1.97917" height="8.90627" transform="matrix(1 0 0 -1 490.137 250.386)" fill="#25416D"/>
<rect width="1.97917" height="16.3282" transform="matrix(1 0 0 -1 494.095 253.602)" fill="#25416D"/>
<rect width="1.97917" height="16.823" transform="matrix(1 0 0 -1 498.053 246.675)" fill="#25416D"/>
<rect width="1.97917" height="14.349" transform="matrix(1 0 0 -1 502.012 250.386)" fill="#25416D"/>
<rect width="1.97917" height="15.0912" transform="matrix(1 0 0 -1 505.97 239.253)" fill="#25416D"/>
<rect width="1.97917" height="11.6276" transform="matrix(1 0 0 -1 509.928 241.48)" fill="#25416D"/>
<rect width="1.97917" height="10.638" transform="matrix(1 0 0 -1 513.887 244.943)" fill="#25416D"/>
<rect width="1.97917" height="11.6276" transform="matrix(1 0 0 -1 517.845 241.48)" fill="#25416D"/>
<rect x="391.178" y="259.54" width="1.97917" height="25.7292" fill="#6CB8FF"/>
<rect x="395.137" y="262.014" width="1.97917" height="23.2553" fill="#6CB8FF"/>
<rect x="399.094" y="254.344" width="1.97917" height="30.9245" fill="#6CB8FF"/>
<rect x="403.053" y="245.686" width="1.97917" height="39.5834" fill="#6CB8FF"/>
<rect x="407.012" y="241.232" width="1.97917" height="44.0366" fill="#6CB8FF"/>
<rect x="410.969" y="242.964" width="1.97917" height="42.3048" fill="#6CB8FF"/>
<rect x="414.928" y="249.149" width="1.97917" height="36.1199" fill="#6CB8FF"/>
<rect x="418.886" y="256.818" width="1.97917" height="28.4506" fill="#6CB8FF"/>
<rect x="422.845" y="259.54" width="1.97917" height="25.7292" fill="#6CB8FF"/>
<rect x="426.803" y="253.602" width="1.97917" height="31.6667" fill="#6CB8FF"/>
<rect x="430.761" y="256.818" width="1.97917" height="28.4506" fill="#6CB8FF"/>
<rect x="434.72" y="247.417" width="1.97917" height="37.8517" fill="#6CB8FF"/>
<rect x="438.678" y="256.076" width="1.97917" height="29.1928" fill="#6CB8FF"/>
<rect x="442.637" y="258.55" width="1.97917" height="26.7188" fill="#6CB8FF"/>
<rect x="446.595" y="256.076" width="1.97917" height="29.1928" fill="#6CB8FF"/>
<rect x="450.553" y="260.282" width="1.97917" height="24.987" fill="#6CB8FF"/>
<rect x="454.512" y="262.261" width="1.97917" height="23.0079" fill="#6CB8FF"/>
<rect x="458.47" y="264.488" width="1.97917" height="20.7813" fill="#6CB8FF"/>
<rect x="462.428" y="259.54" width="1.97917" height="25.7292" fill="#6CB8FF"/>
<rect x="466.387" y="262.014" width="1.97917" height="23.2553" fill="#6CB8FF"/>
<rect x="470.345" y="248.654" width="1.97917" height="36.6147" fill="#6CB8FF"/>
<rect x="474.303" y="238.511" width="1.97917" height="46.7579" fill="#6CB8FF"/>
<rect x="478.262" y="233.068" width="1.97917" height="52.2006" fill="#6CB8FF"/>
<rect x="482.219" y="235.295" width="1.97917" height="49.9741" fill="#6CB8FF"/>
<rect x="486.178" y="242.469" width="1.97917" height="42.7996" fill="#6CB8FF"/>
<rect x="490.137" y="251.623" width="1.97917" height="33.6459" fill="#6CB8FF"/>
<rect x="494.095" y="254.839" width="1.97917" height="30.4298" fill="#6CB8FF"/>
<rect x="498.053" y="247.912" width="1.97917" height="37.3569" fill="#6CB8FF"/>
<rect x="502.012" y="251.623" width="1.97917" height="33.6459" fill="#6CB8FF"/>
<rect x="505.97" y="240.49" width="1.97917" height="44.7788" fill="#6CB8FF"/>
<rect x="509.928" y="242.469" width="1.97917" height="42.7996" fill="#6CB8FF"/>
<rect x="513.887" y="245.933" width="1.97917" height="39.336" fill="#6CB8FF"/>
<rect x="517.845" y="242.469" width="1.97917" height="42.7996" fill="#6CB8FF"/>
</g>
<path d="M299.883 248.138C299.883 264.643 286.504 278.022 269.999 278.022C253.495 278.022 240.115 264.643 240.115 248.138C240.115 231.634 253.495 218.254 269.999 218.254C286.504 218.254 299.883 231.634 299.883 248.138ZM247.586 248.138C247.586 260.516 257.621 270.551 269.999 270.551C282.378 270.551 292.412 260.516 292.412 248.138C292.412 235.76 282.378 225.725 269.999 225.725C257.621 225.725 247.586 235.76 247.586 248.138Z" fill="#F0F5F9"/>
<path d="M269.999 218.254C277.658 218.254 285.025 221.195 290.578 226.469C296.132 231.744 299.449 238.949 299.843 246.598C300.238 254.247 297.681 261.755 292.7 267.573C287.719 273.391 280.694 277.075 273.076 277.863C265.458 278.652 257.827 276.485 251.76 271.811C245.693 267.136 241.652 260.311 240.472 252.743C239.292 245.175 241.062 237.444 245.418 231.144C249.774 224.844 256.382 220.456 263.878 218.888L265.409 226.2C259.786 227.377 254.83 230.667 251.563 235.392C248.297 240.117 246.969 245.916 247.854 251.592C248.739 257.267 251.77 262.387 256.32 265.893C260.87 269.398 266.593 271.023 272.307 270.432C278.021 269.841 283.289 267.078 287.025 262.714C290.761 258.351 292.678 252.719 292.382 246.983C292.086 241.246 289.599 235.842 285.434 231.886C281.268 227.931 275.743 225.725 269.999 225.725L269.999 218.254Z" fill="#344E77" fill-opacity="0.4"/>
<path d="M269.999 218.254C277.091 218.254 283.951 220.776 289.354 225.369C294.757 229.962 298.351 236.327 299.493 243.326C300.635 250.325 299.251 257.502 295.588 263.574C291.925 269.646 286.222 274.218 279.498 276.472C272.775 278.726 265.468 278.516 258.885 275.879C252.303 273.241 246.872 268.349 243.565 262.076C240.257 255.803 239.288 248.558 240.831 241.637C242.374 234.715 246.328 228.568 251.986 224.293L256.49 230.254C252.246 233.46 249.28 238.071 248.123 243.262C246.966 248.453 247.693 253.887 250.173 258.592C252.654 263.296 256.727 266.966 261.664 268.943C266.601 270.921 272.081 271.079 277.124 269.389C282.166 267.698 286.444 264.269 289.191 259.715C291.938 255.161 292.976 249.778 292.12 244.529C291.263 239.28 288.568 234.506 284.515 231.061C280.463 227.617 275.318 225.725 269.999 225.725L269.999 218.254Z" fill="#25416D" fill-opacity="0.6"/>
<path d="M269.999 218.254C276.316 218.254 282.471 220.256 287.579 223.972C292.687 227.688 296.487 232.927 298.431 238.937C300.376 244.947 300.367 251.419 298.404 257.423C296.441 263.428 292.626 268.656 287.507 272.356C282.388 276.057 276.227 278.041 269.91 278.022C263.593 278.003 257.445 275.983 252.348 272.252C247.25 268.521 243.467 263.27 241.54 257.254C239.613 251.238 239.642 244.767 241.622 238.768L248.716 241.111C247.231 245.609 247.209 250.463 248.655 254.975C250.1 259.487 252.938 263.425 256.761 266.223C260.583 269.022 265.195 270.537 269.932 270.551C274.67 270.565 279.29 269.078 283.13 266.302C286.969 263.526 289.831 259.605 291.303 255.102C292.775 250.599 292.782 245.745 291.323 241.237C289.865 236.73 287.015 232.801 283.184 230.013C279.353 227.226 274.737 225.725 269.999 225.725L269.999 218.254Z" fill="#25416D"/>
<path d="M269.999 218.254C274.832 218.254 279.594 219.426 283.874 221.671C288.155 223.915 291.828 227.164 294.577 231.139C297.327 235.114 299.071 239.697 299.66 244.494C300.25 249.291 299.667 254.16 297.961 258.682C296.256 263.205 293.479 267.246 289.869 270.46C286.259 273.673 281.923 275.963 277.233 277.133C272.544 278.303 267.64 278.318 262.944 277.177C258.247 276.036 253.897 273.773 250.267 270.581L255.2 264.971C257.923 267.364 261.185 269.062 264.707 269.917C268.23 270.773 271.907 270.762 275.425 269.884C278.942 269.007 282.194 267.289 284.901 264.879C287.609 262.469 289.692 259.438 290.971 256.046C292.25 252.654 292.687 249.003 292.245 245.405C291.803 241.807 290.495 238.37 288.433 235.389C286.371 232.407 283.616 229.971 280.406 228.287C277.195 226.604 273.624 225.725 269.999 225.725L269.999 218.254Z" fill="#6CB8FF"/>
<defs>
<clipPath id="clip0">
<rect width="168" height="134" fill="white" transform="translate(0 191.844)"/>
</clipPath>
<clipPath id="clip1">
<rect width="167" height="134" fill="white" transform="translate(186 191.844)"/>
</clipPath>
<clipPath id="clip2">
<rect width="167" height="134" fill="white" transform="translate(372 191.844)"/>
</clipPath>
</defs>
</svg>
