<svg width="1920" height="331" viewBox="0 0 1920 331" fill="none" xmlns="http://www.w3.org/2000/svg">
<g opacity="0.3">
<path opacity="0.6" d="M1395.28 82.2218C1354.68 79.9867 1388.07 179.803 1315.49 175.739C1242.92 171.676 1253.7 202.045 1216.2 202.685C1180.25 203.3 1145 166.66 1103.69 189.358C1062.37 212.057 1025.56 116.612 964.2 146.512C902.845 176.412 854.306 171.622 802.6 106.436C750.894 41.2496 751.12 107.598 707.56 99.9264C664 92.2551 651.255 173.495 587.753 146.512C524.252 119.53 532.035 218.301 480.394 220.682C437.628 222.654 447.869 188.964 393.8 200.963C339.731 212.963 343.192 175.739 286.373 175.739C236.227 175.739 185.619 209.617 117.8 204.179C49.9815 198.74 1 241.111 1 241.111V330.997H1921V144.415C1921 144.415 1918.83 190.313 1882.71 189.358C1846.58 188.403 1806.59 259.583 1773.87 230.67C1741.15 201.756 1685.13 97.3729 1614.72 79.498C1544.31 61.6231 1569.51 8.67076 1518.41 1.41509C1467.31 -5.84058 1435.87 84.4569 1395.28 82.2218Z" fill="url(#paint0_linear)"/>
<path d="M1 241.111C1 241.111 49.9815 198.74 117.8 204.178C185.619 209.617 236.227 175.739 286.373 175.739C343.192 175.739 339.731 212.963 393.8 200.963C447.869 188.964 437.628 222.654 480.394 220.682C532.035 218.301 524.252 119.529 587.753 146.512C651.255 173.495 664 92.255 707.56 99.9264C751.12 107.598 750.894 41.2496 802.6 106.436C854.306 171.622 902.845 176.412 964.2 146.512C1025.56 116.612 1062.37 212.057 1103.69 189.358C1145 166.66 1180.25 203.3 1216.2 202.685C1253.7 202.044 1242.92 171.675 1315.49 175.739C1388.07 179.803 1354.68 79.9866 1395.28 82.2217C1435.87 84.4568 1467.31 -5.84058 1518.41 1.41509C1569.51 8.67075 1544.31 61.623 1614.72 79.4979C1685.13 97.3728 1741.15 201.756 1773.87 230.669C1806.59 259.583 1846.58 188.403 1882.71 189.358C1918.83 190.313 1921 144.415 1921 144.415" stroke="#0084F8" stroke-width="2"/>
<path opacity="0.6" d="M1366.6 165.752C1387.4 126.257 1414.6 10.4941 1521 27.2916C1627.4 44.0892 1630.6 194.806 1777 200.254C1916.43 205.442 1920.89 185.687 1921 183.794V183.649C1921 183.649 1921 183.699 1921 183.794V330.997H1V161.666C1 161.666 2.6892 215.235 90.2445 222.498C177.8 229.761 188.238 269.903 238.6 269.903C296.361 269.903 298.231 231.879 374.6 245.966C450.968 260.053 441.393 224.435 483.399 222.498C537.461 220.005 547.073 111.415 660.082 130.796C773.091 150.177 749.799 82.2218 807.399 82.2218C864.999 82.2218 814.56 145.858 923.382 150.771C1032.21 155.684 985.81 256.092 1083.4 256.092C1155.05 256.092 1184.32 224.857 1256.2 234.48C1328.08 244.102 1354.38 188.946 1366.6 165.752Z" fill="url(#paint1_linear)"/>
<path d="M1 161.666C1 161.666 2.68921 215.235 90.2445 222.498C177.8 229.761 188.238 269.903 238.6 269.903C296.361 269.903 298.231 231.879 374.599 245.966C450.968 260.052 441.393 224.435 483.399 222.498C537.461 220.005 547.073 111.415 660.082 130.796C773.091 150.177 749.799 82.2217 807.399 82.2217C864.999 82.2217 814.56 145.857 923.382 150.771C1032.2 155.684 985.81 256.092 1083.4 256.092C1155.05 256.092 1184.32 224.857 1256.2 234.479C1328.08 244.101 1354.38 188.946 1366.6 165.752C1387.4 126.257 1414.6 10.4941 1521 27.2916C1627.4 44.0892 1630.6 194.806 1777 200.253C1923.4 205.701 1921 183.649 1921 183.649" stroke="#FF8576" stroke-width="2"/>
</g>
<defs>
<linearGradient id="paint0_linear" x1="961" y1="1" x2="961" y2="330.997" gradientUnits="userSpaceOnUse">
<stop stop-color="#0084F8"/>
<stop offset="1" stop-color="#0084F8" stop-opacity="0"/>
</linearGradient>
<linearGradient id="paint1_linear" x1="961" y1="25.6377" x2="961" y2="330.997" gradientUnits="userSpaceOnUse">
<stop stop-color="#FF8576"/>
<stop offset="1" stop-color="#FF8576" stop-opacity="0"/>
</linearGradient>
</defs>
</svg>
