<svg xmlns="http://www.w3.org/2000/svg" viewBox="0 0 21.001 21.001"><path d="M3.001 15.501a1 1 0 0 1-1-1V8.119l-.553.276a1 1 0 1 1-.894-1.789l2-1a.998.998 0 0 1 1.447.895v8a1 1 0 0 1-1 1zM12.001 15.501h-5a1.002 1.002 0 0 1-.707-1.707l4-4c.254-.254.394-.591.394-.95 0-.358-.14-.695-.394-.949-.508-.508-1.39-.508-1.9.001a1.33 1.33 0 0 0-.393.948 1 1 0 0 1-2 0c0-.894.348-1.733.98-2.364 1.265-1.263 3.464-1.263 4.727.001.632.631.979 1.471.979 2.363 0 .893-.348 1.733-.979 2.364l-2.293 2.293h2.586a1 1 0 0 1 0 2zM19.956 9.878a2.725 2.725 0 0 0 .545-1.627 2.753 2.753 0 0 0-2.75-2.75 2.739 2.739 0 0 0-2.44 1.484 1 1 0 1 0 1.776.92.75.75 0 1 1 .664 1.096 1 1 0 0 0 0 2c.689 0 1.25.561 1.25 1.25s-.561 1.25-1.25 1.25-1.25-.561-1.25-1.25a1 1 0 0 0-2 0c0 1.792 1.458 3.25 3.25 3.25s3.25-1.458 3.25-3.25a3.23 3.23 0 0 0-1.045-2.373z" fill="#030104"/></svg>